<?xml version="1.0" standalone="no"?>
<!DOCTYPE svg PUBLIC "-//W3C//DTD SVG 20010904//EN"
 "http://www.w3.org/TR/2001/REC-SVG-20010904/DTD/svg10.dtd">
<svg version="1.0" xmlns="http://www.w3.org/2000/svg"
 width="800.000000pt" height="800.000000pt" viewBox="0 0 800.000000 800.000000"
 preserveAspectRatio="xMidYMid meet">
<metadata>
Created by potrace 1.11, written by Peter Selinger 2001-2013
</metadata>
<g transform="translate(0.000000,800.000000) scale(0.100000,-0.100000)"
fill="#000000" stroke="none">
<path d="M3755 7379 c-2 -3 -26 -7 -52 -8 -26 -1 -61 -5 -78 -7 -16 -2 -48 -7
-70 -9 -22 -3 -49 -6 -60 -9 -30 -6 -107 -19 -130 -22 -11 -1 -20 -3 -20 -4 0
-1 -7 -3 -15 -5 -8 -2 -26 -6 -40 -9 -132 -28 -449 -126 -475 -146 -5 -4 -21
-11 -35 -15 -14 -4 -47 -18 -74 -31 -28 -13 -54 -24 -59 -24 -5 0 -23 -10 -40
-22 -18 -13 -33 -22 -34 -21 -5 4 -67 -27 -128 -63 -33 -19 -68 -37 -77 -41
-10 -3 -18 -9 -18 -14 0 -5 -7 -9 -15 -9 -8 0 -15 -5 -15 -11 0 -7 -10 -9 -25
-7 -18 4 -23 2 -16 -6 7 -8 0 -16 -22 -26 -18 -7 -40 -22 -49 -32 -9 -11 -18
-18 -21 -16 -4 3 -36 -19 -85 -59 -15 -12 -30 -21 -33 -20 -3 1 -17 -10 -31
-25 -14 -16 -28 -28 -32 -28 -6 0 -46 -34 -113 -97 -18 -17 -33 -29 -33 -26 0
3 -27 -22 -60 -56 -33 -34 -64 -61 -70 -61 -5 0 -10 -4 -10 -9 0 -5 -27 -37
-59 -71 -61 -63 -91 -98 -139 -159 -15 -19 -35 -43 -44 -53 -10 -10 -18 -22
-18 -27 0 -5 -7 -14 -15 -21 -21 -17 -187 -266 -207 -310 -9 -19 -25 -44 -35
-55 -11 -11 -20 -24 -20 -28 -1 -4 -22 -50 -47 -102 -25 -52 -46 -99 -46 -105
0 -5 -5 -10 -10 -10 -6 0 -9 -3 -9 -7 3 -21 -2 -33 -13 -27 -6 4 -8 3 -4 -4 3
-6 0 -26 -8 -44 -12 -28 -24 -57 -31 -78 -1 -3 -6 -16 -12 -30 -6 -14 -18 -47
-27 -75 -9 -27 -19 -57 -23 -65 -3 -8 -7 -19 -7 -25 -1 -5 -10 -37 -21 -70
-10 -33 -19 -64 -20 -70 -1 -5 -3 -12 -4 -15 -2 -5 -9 -37 -15 -68 -1 -8 -9
-18 -17 -23 -8 -5 -9 -9 -3 -9 8 0 9 -11 4 -35 -4 -19 -5 -35 -2 -35 3 0 -3
-10 -14 -22 -10 -12 -13 -18 -5 -13 11 6 13 4 7 -11 -5 -10 -10 -30 -11 -44
-2 -14 -4 -25 -5 -25 -2 0 -9 -48 -11 -87 -1 -15 -6 -25 -12 -21 -5 3 -4 -4 2
-16 7 -11 8 -21 4 -21 -8 0 -13 -52 -16 -172 -1 -38 -6 -68 -11 -68 -5 0 -3
-6 3 -14 8 -10 9 -16 1 -21 -7 -4 -7 -12 0 -24 5 -10 7 -21 4 -24 -12 -11 -13
-67 -1 -67 8 0 8 -3 2 -8 -12 -8 -13 -22 -2 -39 4 -6 3 -14 -3 -18 -6 -3 -7
-14 -2 -23 13 -29 8 -77 -8 -74 -11 3 -10 -1 3 -16 9 -10 17 -30 16 -43 -1
-25 3 -70 17 -174 4 -33 8 -76 8 -97 1 -20 4 -34 9 -31 4 2 8 -11 9 -29 1 -31
3 -46 8 -58 3 -8 10 -44 14 -70 2 -14 5 -25 6 -25 1 0 4 -11 7 -25 7 -36 11
-54 14 -60 1 -3 3 -9 4 -15 2 -5 4 -13 5 -17 1 -5 3 -11 4 -15 1 -5 7 -26 14
-47 6 -22 9 -43 6 -48 -3 -4 -1 -8 4 -8 8 0 10 -6 14 -49 1 -11 5 -18 9 -15 4
2 12 -18 19 -44 7 -26 16 -51 20 -57 3 -5 12 -23 18 -38 10 -23 10 -27 0 -21
-7 4 -6 -1 3 -12 17 -20 35 -63 31 -76 -1 -5 3 -8 9 -8 6 0 9 -9 6 -20 -3 -11
-2 -18 2 -15 11 6 42 -64 35 -78 -4 -7 -3 -8 1 -4 9 8 45 -56 45 -80 0 -7 4
-13 9 -13 4 0 23 -30 42 -67 19 -38 37 -69 41 -71 5 -2 8 -10 8 -18 0 -8 5
-14 11 -14 5 0 7 -5 4 -10 -3 -6 1 -13 9 -16 9 -3 16 -10 16 -16 0 -5 18 -36
40 -68 21 -33 34 -60 27 -61 -7 0 -2 -4 11 -9 12 -5 27 -21 34 -35 6 -14 15
-25 20 -25 4 0 8 -4 8 -10 0 -9 15 -29 45 -64 41 -45 73 -95 67 -101 -4 -5 -2
-5 4 -2 6 3 18 -3 27 -14 19 -22 23 -44 5 -33 -7 4 -8 3 -4 -5 4 -6 12 -9 17
-5 12 7 171 -155 164 -167 -3 -4 0 -11 6 -15 8 -4 9 -3 5 4 -14 24 8 11 40
-22 18 -19 30 -37 26 -42 -4 -4 -2 -5 3 -1 6 3 33 -14 59 -39 27 -24 50 -44
53 -44 14 0 44 -40 38 -52 -6 -10 -5 -10 5 -1 11 10 17 9 29 -5 9 -9 25 -22
36 -29 11 -6 19 -17 17 -23 -2 -8 3 -10 13 -6 9 3 18 -1 21 -9 4 -8 12 -15 20
-15 8 0 14 -4 14 -10 0 -5 5 -10 11 -10 6 0 17 -6 24 -12 33 -30 45 -38 53
-38 6 0 37 -20 71 -45 34 -25 68 -45 76 -45 18 0 19 -12 3 -29 -10 -10 -8 -10
11 0 19 11 25 11 28 2 3 -7 13 -13 23 -13 11 0 23 -8 29 -18 5 -9 13 -16 18
-15 8 2 153 -66 163 -77 3 -3 11 -6 19 -8 8 -2 32 -12 54 -23 23 -10 45 -19
49 -19 5 0 28 -9 50 -20 23 -11 48 -20 55 -20 7 0 13 -4 13 -8 0 -4 10 -8 21
-9 12 -1 31 -10 42 -20 11 -10 17 -12 13 -5 -7 11 -4 12 11 3 11 -6 23 -7 27
-4 3 3 6 1 6 -5 0 -7 11 -12 24 -12 30 0 78 -24 68 -35 -4 -5 0 -4 8 1 19 11
33 12 41 2 3 -4 21 -10 40 -12 18 -3 36 -5 39 -7 3 -1 8 -1 13 0 4 0 7 -3 7
-8 0 -5 10 -7 22 -3 11 3 19 1 15 -4 -3 -5 9 -10 26 -11 18 -1 42 -3 55 -4 12
-1 22 -6 22 -11 0 -5 6 -8 13 -6 11 2 98 -9 142 -18 11 -2 32 -5 48 -6 15 0
27 -6 27 -12 0 -7 3 -7 8 -1 9 12 32 18 32 7 0 -4 26 -7 58 -8 86 -2 125 -7
141 -18 11 -8 13 -8 7 2 -4 7 -1 12 8 12 9 0 16 -5 16 -11 0 -5 5 -7 12 -3 6
4 79 9 162 11 157 3 229 7 306 18 24 4 59 7 77 8 18 1 33 7 33 12 0 7 3 7 8 0
9 -12 44 -16 36 -4 -3 5 2 10 10 10 29 3 56 6 59 9 2 2 18 5 82 13 17 3 37 7
45 10 55 19 83 26 91 21 5 -3 9 -1 9 4 0 5 6 9 13 10 44 3 259 72 320 103 12
6 17 5 17 -3 0 -9 3 -8 10 2 5 8 13 15 17 15 4 1 25 9 45 19 20 10 42 14 49
10 7 -4 9 -3 5 4 -5 9 14 20 44 27 12 3 105 51 110 56 3 4 16 10 30 14 13 4
31 14 39 22 7 8 22 12 32 10 12 -3 16 0 12 10 -3 7 -2 13 3 11 9 -3 84 39 94
52 3 4 15 6 27 5 12 -1 19 3 16 10 -2 7 10 18 26 25 17 7 31 16 31 21 0 5 5 9
11 9 5 0 8 -4 4 -9 -3 -5 -1 -12 4 -15 4 -3 8 2 7 12 0 9 2 17 6 17 4 0 14 9
22 20 9 11 16 17 16 12 0 -4 8 1 18 10 10 10 29 25 42 33 13 8 30 23 39 33 8
9 19 17 24 17 8 0 14 4 60 45 16 14 33 22 39 19 6 -4 8 -3 5 3 -8 12 61 75 74
67 5 -3 8 -2 7 3 -4 12 223 239 235 235 5 -1 6 1 3 6 -3 5 17 33 45 63 27 29
49 57 49 62 0 4 5 5 10 2 6 -3 10 0 10 8 0 8 8 23 18 35 41 49 48 58 50 67 2
6 10 14 18 18 8 4 14 15 14 22 0 8 4 15 8 15 5 0 14 12 20 26 7 15 17 22 24
18 6 -4 8 -3 5 3 -4 6 12 39 36 74 23 35 49 76 56 91 8 15 19 24 25 21 6 -3 8
-3 4 2 -6 7 37 103 52 115 4 3 13 19 20 37 8 17 18 29 22 27 4 -3 5 2 2 10 -3
9 -1 16 5 16 6 0 10 3 10 8 -3 19 2 33 11 27 5 -3 7 0 4 8 -3 8 0 18 5 22 6 3
9 11 6 16 -4 5 2 9 12 10 10 0 13 3 6 5 -8 4 -6 16 7 42 19 40 43 94 45 102 0
3 6 15 13 28 7 12 10 22 6 22 -4 0 1 10 12 22 10 12 13 18 6 14 -12 -7 -12 -4
-1 15 14 26 16 31 18 55 0 9 6 12 13 8 7 -4 8 -3 4 4 -4 7 -4 18 0 24 5 7 9
19 10 28 5 34 14 64 21 69 5 3 9 20 11 36 4 51 5 54 12 50 4 -3 8 8 8 23 0 15
3 41 7 57 4 17 8 38 9 48 0 9 3 17 6 17 4 0 7 6 8 13 2 40 12 81 21 90 6 6 6
19 1 32 -5 13 -6 26 -2 29 3 4 7 13 8 21 1 7 5 33 8 57 4 24 9 77 12 118 3 41
11 81 17 89 7 9 8 12 1 8 -7 -4 -10 10 -10 39 1 24 5 44 9 44 4 0 3 10 -4 22
-10 18 -9 20 6 14 15 -5 16 -4 6 8 -7 8 -10 20 -6 26 3 5 1 10 -5 10 -6 0 -8
5 -5 11 11 17 13 59 2 59 -5 0 -5 5 2 13 6 8 8 16 5 20 -9 9 -11 68 -2 73 5 3
5 10 2 16 -4 6 -8 29 -9 52 -2 23 -6 73 -10 111 -4 39 -9 88 -11 110 -1 22 -3
40 -4 40 -4 0 -11 42 -11 60 0 11 -4 36 -9 55 -5 19 -12 53 -16 75 -3 22 -7
45 -8 50 -1 6 -4 15 -8 20 -3 6 -7 26 -9 45 -2 19 -7 37 -10 40 -4 3 -9 19
-12 35 -2 17 -6 37 -10 45 -8 21 -49 153 -51 165 -1 6 -8 21 -16 35 -7 14 -12
25 -11 25 1 0 -2 12 -8 26 -5 15 -11 35 -13 45 -2 11 -9 25 -15 32 -11 12 -15
27 -12 48 0 4 -3 10 -8 13 -12 9 -53 99 -53 116 0 8 -4 15 -9 15 -10 0 -21 27
-20 44 0 5 -3 12 -8 15 -5 3 -16 20 -25 36 -41 80 -64 120 -70 123 -5 2 -8 8
-8 13 0 6 -18 37 -40 69 -22 32 -40 63 -40 69 0 5 -4 11 -8 13 -4 2 -28 32
-52 68 -25 36 -47 67 -50 70 -3 3 -21 25 -40 50 -19 25 -37 47 -40 50 -3 3
-34 39 -69 80 -36 41 -86 96 -113 123 -26 26 -48 52 -48 57 0 6 -4 10 -10 10
-5 0 -35 25 -66 55 -31 30 -59 55 -61 55 -3 0 -21 15 -40 33 -60 54 -69 62
-89 74 -10 6 -18 16 -16 23 1 6 -2 9 -7 6 -5 -3 -14 1 -21 9 -7 8 -18 15 -25
15 -8 0 -15 4 -17 8 -1 4 -25 23 -53 42 -27 19 -55 40 -62 47 -7 6 -22 15 -33
18 -11 3 -20 11 -20 16 0 5 -4 9 -10 9 -5 0 -38 18 -72 40 -35 22 -68 40 -75
40 -6 0 -13 4 -15 8 -2 7 -272 145 -288 148 -3 0 -18 7 -35 14 -16 8 -34 14
-40 15 -5 0 -15 3 -20 7 -27 17 -148 57 -156 52 -5 -3 -9 -1 -9 3 0 5 -21 15
-47 22 -27 8 -70 20 -98 28 -27 8 -58 16 -67 19 -10 2 -26 6 -35 9 -47 12
-162 36 -198 41 -22 3 -56 9 -75 13 -19 4 -45 7 -57 6 -13 -1 -23 1 -23 5 0 3
-15 6 -32 7 -18 1 -60 4 -93 8 -76 8 -526 12 -530 4z"/>
<path d="M7196 3658 c3 -5 10 -6 15 -3 13 9 11 12 -6 12 -8 0 -12 -4 -9 -9z"/>
<path d="M1075 2680 c3 -5 8 -10 11 -10 2 0 4 5 4 10 0 6 -5 10 -11 10 -5 0
-7 -4 -4 -10z"/>
<path d="M1030 2656 c0 -2 8 -10 18 -17 15 -13 16 -12 3 4 -13 16 -21 21 -21
13z"/>
<path d="M6835 2529 c-4 -6 -5 -12 -2 -15 2 -3 7 2 10 11 7 17 1 20 -8 4z"/>
<path d="M1235 2491 c-3 -5 -2 -12 3 -15 5 -3 9 1 9 9 0 17 -3 19 -12 6z"/>
<path d="M1440 2040 c-9 -6 -10 -10 -3 -10 6 0 15 5 18 10 8 12 4 12 -15 0z"/>
<path d="M6335 1980 c3 -5 8 -10 11 -10 2 0 4 5 4 10 0 6 -5 10 -11 10 -5 0
-7 -4 -4 -10z"/>
<path d="M1635 1931 c-3 -5 -2 -12 3 -15 5 -3 9 1 9 9 0 17 -3 19 -12 6z"/>
<path d="M6425 1920 c-3 -6 1 -7 9 -4 18 7 21 14 7 14 -6 0 -13 -4 -16 -10z"/>
<path d="M6195 1820 c-3 -5 -1 -10 4 -10 6 0 11 5 11 10 0 6 -2 10 -4 10 -3 0
-8 -4 -11 -10z"/>
<path d="M6113 1725 c0 -8 4 -12 9 -9 5 3 6 10 3 15 -9 13 -12 11 -12 -6z"/>
<path d="M1875 1691 c-3 -5 -2 -12 3 -15 5 -3 9 1 9 9 0 17 -3 19 -12 6z"/>
<path d="M6030 1639 c0 -5 5 -7 10 -4 6 3 10 8 10 11 0 2 -4 4 -10 4 -5 0 -10
-5 -10 -11z"/>
<path d="M2215 1500 c-3 -6 1 -7 9 -4 18 7 21 14 7 14 -6 0 -13 -4 -16 -10z"/>
<path d="M2156 1442 c-3 -5 1 -9 9 -9 8 0 12 4 9 9 -3 4 -7 8 -9 8 -2 0 -6 -4
-9 -8z"/>
<path d="M5675 1420 c-3 -5 -1 -10 4 -10 6 0 11 5 11 10 0 6 -2 10 -4 10 -3 0
-8 -4 -11 -10z"/>
<path d="M5616 1378 c3 -4 11 -5 19 -1 21 7 19 12 -4 10 -11 0 -18 -5 -15 -9z"/>
<path d="M2367 1359 c7 -7 15 -10 18 -7 3 3 -2 9 -12 12 -14 6 -15 5 -6 -5z"/>
<path d="M5470 1320 c0 -5 5 -10 11 -10 5 0 7 5 4 10 -3 6 -8 10 -11 10 -2 0
-4 -4 -4 -10z"/>
<path d="M2609 1277 c6 -8 7 -18 3 -22 -4 -5 -1 -5 6 -1 10 6 10 11 1 22 -6 8
-14 14 -16 14 -3 0 0 -6 6 -13z"/>
<path d="M2686 1238 c10 -14 21 -24 23 -22 3 3 -6 15 -18 27 l-24 22 19 -27z"/>
<path d="M2426 1202 c-3 -5 1 -9 9 -9 8 0 12 4 9 9 -3 4 -7 8 -9 8 -2 0 -6 -4
-9 -8z"/>
<path d="M2750 1200 c0 -5 5 -10 11 -10 5 0 7 5 4 10 -3 6 -8 10 -11 10 -2 0
-4 -4 -4 -10z"/>
<path d="M2795 1200 c3 -5 8 -10 11 -10 2 0 4 5 4 10 0 6 -5 10 -11 10 -5 0
-7 -4 -4 -10z"/>
<path d="M5206 1178 c3 -5 10 -6 15 -3 13 9 11 12 -6 12 -8 0 -12 -4 -9 -9z"/>
<path d="M2766 1162 c-3 -5 1 -9 9 -9 8 0 12 4 9 9 -3 4 -7 8 -9 8 -2 0 -6 -4
-9 -8z"/>
<path d="M2815 1160 c-3 -5 -1 -10 4 -10 6 0 11 5 11 10 0 6 -2 10 -4 10 -3 0
-8 -4 -11 -10z"/>
<path d="M5306 1162 c-3 -5 1 -9 9 -9 8 0 12 4 9 9 -3 4 -7 8 -9 8 -2 0 -6 -4
-9 -8z"/>
<path d="M2875 1100 c-3 -5 -1 -10 4 -10 6 0 11 5 11 10 0 6 -2 10 -4 10 -3 0
-8 -4 -11 -10z"/>
<path d="M2990 1105 c0 -7 30 -13 34 -7 3 4 -4 9 -15 9 -10 1 -19 0 -19 -2z"/>
<path d="M5014 1096 c1 -8 5 -18 8 -22 4 -3 5 1 4 10 -1 8 -5 18 -8 22 -4 3
-5 -1 -4 -10z"/>
<path d="M4930 1080 c0 -5 5 -10 11 -10 5 0 7 5 4 10 -3 6 -8 10 -11 10 -2 0
-4 -4 -4 -10z"/>
<path d="M3095 1061 c-3 -5 -2 -12 3 -15 5 -3 9 1 9 9 0 17 -3 19 -12 6z"/>
<path d="M4853 1055 c0 -8 4 -12 9 -9 5 3 6 10 3 15 -9 13 -12 11 -12 -6z"/>
<path d="M2976 1038 c3 -5 10 -6 15 -3 13 9 11 12 -6 12 -8 0 -12 -4 -9 -9z"/>
<path d="M3335 1020 c3 -5 8 -10 11 -10 2 0 4 5 4 10 0 6 -5 10 -11 10 -5 0
-7 -4 -4 -10z"/>
<path d="M4610 1019 c0 -5 5 -7 10 -4 6 3 10 8 10 11 0 2 -4 4 -10 4 -5 0 -10
-5 -10 -11z"/>
<path d="M4695 1020 c-3 -5 -1 -10 4 -10 6 0 11 5 11 10 0 6 -2 10 -4 10 -3 0
-8 -4 -11 -10z"/>
<path d="M2795 1011 c-3 -5 -2 -12 3 -15 5 -3 9 1 9 9 0 17 -3 19 -12 6z"/>
<path d="M3130 1006 c0 -2 7 -7 16 -10 8 -3 12 -2 9 4 -6 10 -25 14 -25 6z"/>
<path d="M4915 1001 c-3 -5 -2 -12 3 -15 5 -3 9 1 9 9 0 17 -3 19 -12 6z"/>
<path d="M3495 980 c3 -5 8 -10 11 -10 2 0 4 5 4 10 0 6 -5 10 -11 10 -5 0 -7
-4 -4 -10z"/>
<path d="M4415 980 c3 -5 8 -10 11 -10 2 0 4 5 4 10 0 6 -5 10 -11 10 -5 0 -7
-4 -4 -10z"/>
<path d="M4615 981 c-3 -5 -2 -12 3 -15 5 -3 9 1 9 9 0 17 -3 19 -12 6z"/>
<path d="M3593 955 c0 -8 4 -12 9 -9 5 3 6 10 3 15 -9 13 -12 11 -12 -6z"/>
<path d="M4174 956 c1 -8 5 -18 8 -22 4 -3 5 1 4 10 -1 8 -5 18 -8 22 -4 3 -5
-1 -4 -10z"/>
<path d="M4730 966 c0 -2 7 -7 16 -10 8 -3 12 -2 9 4 -6 10 -25 14 -25 6z"/>
<path d="M4055 951 c-3 -5 -2 -12 3 -15 5 -3 9 1 9 9 0 17 -3 19 -12 6z"/>
<path d="M3536 942 c-2 -4 -1 -14 4 -22 7 -11 9 -9 7 8 -1 24 -3 26 -11 14z"/>
<path d="M3699 948 c-5 -18 -6 -38 -1 -34 7 8 12 36 6 36 -2 0 -4 -1 -5 -2z"/>
<path d="M3779 948 c-5 -18 -6 -38 -1 -34 7 8 12 36 6 36 -2 0 -4 -1 -5 -2z"/>
<path d="M3896 938 c3 -4 11 -5 19 -1 21 7 19 12 -4 10 -11 0 -18 -5 -15 -9z"/>
<path d="M4266 942 c-3 -5 1 -9 9 -9 8 0 12 4 9 9 -3 4 -7 8 -9 8 -2 0 -6 -4
-9 -8z"/>
<path d="M3650 919 c0 -5 5 -7 10 -4 6 3 10 8 10 11 0 2 -4 4 -10 4 -5 0 -10
-5 -10 -11z"/>
<path d="M3856 922 c-3 -5 1 -9 9 -9 8 0 12 4 9 9 -3 4 -7 8 -9 8 -2 0 -6 -4
-9 -8z"/>
<path d="M3951 913 c7 -12 15 -20 18 -17 3 2 -3 12 -13 22 -17 16 -18 16 -5
-5z"/>
</g>
</svg>
