<svg xmlns="http://www.w3.org/2000/svg" viewBox="0 0 971.15 921.44"><defs><style>.cls-1{fill:#008eb6;}</style></defs><g id="Layer_2" data-name="Layer 2"><g id="Layer_1-2" data-name="Layer 1"><path class="cls-1" d="M803.15,208c-36.85-49.14-101.45-28.42-189-57C562.49,134.14,491,96.26,419.15,0h552V382.22c-41.41,5.45-97.86,6.16-129-28C803.81,312.17,839.37,256.31,803.15,208Z"/><path class="cls-1" d="M191.15,608c84.93-18,164.35,12.47,197,25,72.27,27.74,65.8,48.75,127,63,71.08,16.55,110.07-4.75,164,30,29.74,19.17,42.05,41.22,46,49,3.81,7.52,23.79,46.9,8,84-16.88,39.65-68.29,61.88-110,56-55-7.74-61-59.78-130-83-40.15-13.51-75.14-8.36-98-5-101.76,15-119.55,82.28-191,93C119.56,932.69,4.81,859.33.15,777-4.71,691.31,111.35,624.92,191.15,608Z"/></g></g></svg>