<svg xmlns="http://www.w3.org/2000/svg" viewBox="0 0 126.56 72.95"><defs><style>.cls-1{fill:#ffad43;}.cls-2{fill:#dd0031;}.cls-3{fill:#fff;}.cls-4{fill:#007ae5;}.cls-5,.cls-6{fill:#0e1e25;}.cls-6{fill-opacity:0.12;fill-rule:evenodd;}</style></defs><g id="Layer_2" data-name="Layer 2"><g id="Layer_1-2" data-name="Layer 1"><path class="cls-1" d="M15.68,71l.48-.08-.24-.16-.24.16Zm-4.32-3.28.72,1.68.16.16-.16-.32Zm-1.2-1,.24.32h.24Zm6.64,3,.16-.08-.16-.16Zm5.68,1.52h-.24v.64h.48Zm.56.24-.08.4h.24v-.4Zm.32,0H23l.32.4ZM19,70.07l-.8-.4L18.56,71l1-.72Zm1.52,1v-.64l-1.52.4V71Zm3.44.4v-.24l-.24.24Zm-2.08-.64-.32-.32-.72,1.36h1ZM11,66.71h.4l-.08-.32-.32.08Zm2.48,1,.56-.08L13.76,67l-.64.4ZM23.6,71l-.24-.48-.16.32.16.24ZM9.36,65.27,9.44,65l-1.12.24v.32Zm19.68,7-.88-.16.88.64L30.4,73l-.88-.24ZM6.32,62.63v-.16l-.16-.24v.24ZM32,72.47v-.24l-.56.24ZM28.4,71,25,71.43l1.44.64h1.36ZM1.84,59.67l-.32-.08H1l.56.48ZM35,72.71v-.24l-.16-.08-.24.08Zm1.36-.24v-.24l-.56.24Zm1.28-.08.4-.16-.4-.16-.24.32Zm1-.56-.56.24.56.32ZM1.2,56.87,0,56.79l1.6,1.44-.32-.8Zm37.44,15,.16-.4h-.16Zm4.48-1.6L40,72.47l.8-.08L43.36,71Zm4.4-.16-.4.16v.24l.24-.08ZM45,71l-1.68.16h2.4l1.6-1.6-1.76-.16.56,1Zm5.44-1.44-.56-.16-.24.16.56.08ZM48.4,69l-.32-.16v.56h.72Zm.72-.16H48.8l.16.56.4-.16Zm7.12.56-.32-.16v.16ZM55.6,69l-.24-.16.24.56Zm66-8.08v.32l.56.24-.24-.56Zm-58.32,6.8v.48l.24-.16ZM57,67.43V67l-.48.24Zm67.76-7.36v-.48l-.48.48ZM53.6,66.47l-1.84.4-1,1.44L55,68.07l-.08-.4-.56-.24-.16-1Zm9.68,1H63v.32h.32ZM58,66.71h-.4l.16.32.48-.16Zm63.12-6.64v.56h.08l.4-.16ZM59,66.47h-.32l.32.24ZM63,67v-.32l-.4.72Zm57.6-6.4v.64l1.36.64Zm3.68-1.52-.32-.24-.32-.08.16,1.12ZM62.16,66.87l-.8.16-.08,1,1.12-1Zm57.68-7-.24.16.16.4.4-.24ZM61.12,66.15H61l-.24.24.4.32Zm-.72.24v-.48L60,67l.72-.16Zm62.16-7.92.64.88h.16v-.56Zm-3.36,1.2-.24.56.48.24.16-.8ZM61.36,65.59l-.24.32.56.24v-.24Zm58.08-6,.16-.24h-.4v.24Zm.32-.24v-.24h-.32Zm-1,0v.32l.16-.08Zm-55,5.52v-.24h-.24Zm55-6.64.16.32.48-.32Zm-54,6h-.4v.4H65Zm54.64-6.16-.24.16h.24Zm-2.32.16-.16.24.4.08.08-.32ZM71.84,65v-.4H71.6l-.4.4Zm46.32-6.8-.24-.16v.16Zm5.2-2.16-.8,2.16,1,.32V57.43l.88,1.36V56.87Zm-4.56.72-.56.4v.88l.72-.64Zm1.6-.72v-.4l-.24.8,1.44.32-.4-.72Zm-2.24.08.08.64h.56l.8,1-.16,1,.8-.32-.08,1.44,1-.24,2.16,1.68-.8-2.24-1.6-.24.16-.64,1,.24Zm1.68-.72-.4.24-.24.24.64.16Zm1.12,0-.56-.32,1.2,1,.16-.24Zm-45.68,6.8L75,62.07l-.08.16.4.24Zm-6.72-.32h-.4l-.16.16h.8Zm5.6,0-.64.8.64-.48Zm.72,0-.32.16-.24.16h.4ZM42,58.07l.08.16h.48Zm77-4,.24,1.2h.4l.24-.56Zm-2.16.64-.72.4,1.28,3,.08-2.64Zm0-1,.88,2.24,1.12-.24-.88-1.52,1,.72-.16-1.2Zm-39.92,6-.56.4.24.4.88-.56Zm-35.12-4v-.24l-.8.24.32.24ZM113,54.07h-.64l.4,1.2.56-.16Zm.32-.64.72,2.24,1,.16,1,1.76-.64-1.92-1.12-2Zm-35.2,3.2-.16.16.4.08v-.08Zm-1.52.24-.48-.24-.16.16.64.4Zm1-.08.08-.16h-.32v.16Zm-.56,0-.56-.32.56.72-1,.88-.88-.64.48,1.92-.16-.24-.32-.32v-.56h-.4l.08-.16-.24-.24-1.2,1,1,2.08.32-1h.72l-.72,1.44,2-2.48,1.12.24-.64-.64,1.44-.24Zm33.52-5-.32-.32.32,1.12Zm-34,4.32-.32.08,1.12.32h-.32l-.24-.4Zm2.8-.24.16-.16v-.24Zm32.32-5.2-.64.8-.48-.64-.08.24,1.12,1-.8-.32v.8l1.52,1.12.4-.24-.8-1.12,2.32.8L113.76,52l-2.08-.56,1.92.32v-1l-1.6.64Zm-34.08,4.8-.24-.16h-.08l.08.16Zm36.64-5.76h-.24l-.32.16.8.16Zm-1,0,2,3.2-.24,1.6,1.28-1.68-1.84-2.4,1.84,1.36L114.8,50ZM77.68,55.43l-1,.48,1,.72,1.68-1.36-1.6-.56-.32.4.24.16Zm.32-.72.16-.56v-.08l-.4.4ZM61.36,53.27l.4-.48-.8.64Zm17-.4v-.08l-.24.32.48-.24Zm3.12-1.6.24-.24-.24-.24-.16.48Zm-5.2.16V51l-.32.24v.16Zm6.08-.8h-.24v.16h.24ZM92,46.47V46l-.4.48ZM52.24,45.19l-2.8.08,2.32,2.4,1.2-.8Zm37,1.12V47l.72-.56v-.16l-.32.16Zm-10.4,1,.56-.48L79,46.63l-.4.72ZM40.72,42.87,39.6,41.51l.4,1ZM89.92,46l.8-.48v-.24l-1.12,1Zm-3.52-.72v.48l.16-.24Zm-.24.48v-.48h-.32v.24Zm1.76-1.12H87.6l.32.24Zm-1.68,0-.08.32.08.24L86.4,45ZM47,32.71l-.16-.24-.4-.32.56.72Zm13.76,1H60.4l-.24.32.56.08ZM46.24,31.27l-.88-1.2-.56,1.52.56.56.72-.56h.16l.88,1.12L47,33l.8.4.32.72,1.6-.72L47.36,31Zm8.08-7.2.56-.24.08-.24Zm.88-.64.72-.56h-.16Zm2.16-1-.32.16h.24Zm.24,0,.8-.32.16-.08Zm22.56,27.6.64-.4-.48,1.12-1,.24.24,1L81,51.75l.56-1.36L82.8,50v-.64l.56.48v-1.2l.32,1,.24-1.76.32,1.2,1.52-.64v-1.2l.8-.64H85.2l.4-.32.56-.32-1.2-.8,1.6-1.92V45l.4-1.12.64.8,1.76-1-.8,1h1.2l-.8.56,1-.32-.32.4L91,45.19l-.24.56-.24.24,1.12.48,1-1.84-.24,2,1.52.64,4.88-.64.4-.64.24.64-.08.4,2,.24,1.44-1.76,1.28.8-.56,1L103,45.75l-.4,1.92,7.44,3.6.88-1.28-1.52-1.36-1,.48v-1l2,1L110,47.75l.88.32.24,2,.88-.4,1,.4-1.92-4.32,2.32,3.6h.64l.72.48.32-1.52v1.76l.64-.24.64,1.2v-.56l1.52,1-.24.32-1.12-.48-.16.16,1.52.64v.24l-.24.48-.56.08v.4l1.68-.16,1,1.36,2.64,1v.24l-.88.24.32,2.32,1.68-2.8,1.76,2.8-.4.64.64-1-.24,2.24,1.2-1.2-1.2-4-4.16-.72-5-5.68-5-3.6-1.84.88L109,47.67l-.24.08-1.12,1.36-4.4-3.92v-1L99.76,45,92.64,9.83l-3-1.28-2.48,1L81,8.07l-2.16.48-1.92-.32.8-.16L77.36,7l-2.48.32L73.76,5.83l-1.2,1.44-.32-.4.72-1L72,5,70.08,7,67,7.51l1.2.56-.8,1.2-.56-.72.4-.88L64.16,9l.24-.72-2.72,4.32-3.92.24L57,14.63l3,3.44.4,2.08h2.16v.32l-.16.64,1.36.16-.24,1.52,1.92-.16v1l-2.16-.4-.88-2.08.32,2.72,1.12-.24.24.88-4.16-.24-.72-.64,1-1.44v-.08h-.8l-2.4.56.32.8-1.52-.24-2,1.28h-1.2l1.2,1.2,1.84,1-1.28-.16V27l.56,1L55,29.27l5,1.36.08-1L60.4,31l2.88-2.16L63.84,30l-1.28,1,1.2,2.24-1,1.2L61,34.15l-3,1.92.24-.8-1-.24v.64l-1.36.56.32,1.6-.88-.4-1.2,2.4h-1l.64,2.72.8-.88,1-.56-.4.4H55l-.08.16h-.32l-.08.56-.32.08,1,.56-.72.72h.4l1.6.4.56-.32-.32.56.88.4-2,.32.16-.48L55.2,44l-.32-.4L53.6,44.87l3.12,3.2,1.92-.32-.08-1.12,1.6-1.44L59,46.63,60,50l-.64.64.32.8h.48l-.24,1.12-1.28.56,1,.32,2.88-1.68,2.72,3,.88-3,.64.56.16.56-.32-.56-.48.24.48,1.28L69.52,52l-.32,1.44-1.28,1.68.88.72-.88.08L68,58.23l-1.84.64L65.28,61l-.48-.48-3.44,2.16v2l-1-.56v.56l-.64-1.2-1.52.24-3.76,2.72-.16.88L55,67l-.08-.64,1,.64V65.59l.56,1.28H57.6l.8-2,1.28.4-.48.64,3.2-1.68.32,1,.32-1,2-.16.16-.8h.24V64l.72-.72-1-.4.56-.64,4-1.76v-1.6l4.56-2.72,2.24-2.88-2-1.2,1.6-2.4.4.4,1.12-1-.8-1.44h.48l.4.24.24-.24,3.36-4.08,1.2.24,1.36-1.28-1.36,1.68,1.92.72-2.72-.32-1.68,1.12-.72,3.92.08.32Z"/><path class="cls-2" d="M99.44,5.23,80.88,7.84A10,10,0,0,1,99.44,5.23Z"/><path class="cls-3" d="M100.42,12.17a10.09,10.09,0,0,0,.13-3.56,9.82,9.82,0,0,0-1.11-3.38L80.88,7.84a10,10,0,0,0,1,6.93Z"/><path class="cls-4" d="M100.42,12.17a10,10,0,0,1-18.57,2.6Z"/><path class="cls-3" d="M86,5.39l-.49.37a.13.13,0,0,1-.18,0,.16.16,0,0,1,0-.09l0-.63-.49-.37a.14.14,0,0,1,0-.19s0,0,.07,0l.58-.18.18-.59a.14.14,0,0,1,.17-.09.18.18,0,0,1,.07,0l.34.53h.6a.13.13,0,0,1,.13.14.19.19,0,0,1,0,.08l-.37.5.19.6a.14.14,0,0,1-.09.17h-.08Z"/><path class="cls-3" d="M89.82,4.09l-.49.37a.13.13,0,0,1-.18,0,.16.16,0,0,1,0-.09l0-.63-.49-.37a.13.13,0,0,1,0-.19.08.08,0,0,1,.07,0l.57-.18.19-.59a.13.13,0,0,1,.17-.09.15.15,0,0,1,.06,0l.35.53h.6a.14.14,0,0,1,.13.14.11.11,0,0,1,0,.08l-.36.5.19.6a.14.14,0,0,1-.09.17.11.11,0,0,1-.08,0Z"/><path class="cls-3" d="M93.88,4.28l-.48.37a.13.13,0,0,1-.19,0,.19.19,0,0,1,0-.08V3.9l-.49-.38a.14.14,0,0,1,0-.19.18.18,0,0,1,.07-.05l.58-.17.19-.6a.13.13,0,0,1,.23,0l.34.52h.61a.13.13,0,0,1,.13.14.11.11,0,0,1,0,.08l-.37.5.19.6a.13.13,0,0,1-.08.17h-.09Z"/><path class="cls-3" d="M87.63,17.28l-.49.37a.13.13,0,0,1-.18,0,.11.11,0,0,1,0-.08l0-.63-.49-.38a.14.14,0,0,1,0-.19.18.18,0,0,1,.07,0l.58-.17.18-.6a.13.13,0,0,1,.17-.08.12.12,0,0,1,.07.05l.34.52h.6a.13.13,0,0,1,.13.14.19.19,0,0,1,0,.08l-.37.5.19.6a.14.14,0,0,1-.09.17.11.11,0,0,1-.08,0Z"/><path class="cls-3" d="M91.66,17.22l-.49.36a.12.12,0,0,1-.18,0,.08.08,0,0,1,0-.08v-.63l-.49-.38a.14.14,0,0,1,0-.19.18.18,0,0,1,.07-.05l.58-.17.18-.6a.14.14,0,0,1,.17-.09.13.13,0,0,1,.07.06l.34.52h.6a.14.14,0,0,1,.14.14.13.13,0,0,1,0,.08l-.37.49.19.61a.15.15,0,0,1-.08.17.1.1,0,0,1-.09,0Z"/><path class="cls-3" d="M95.55,16.17l-.48.36a.13.13,0,0,1-.19,0,.24.24,0,0,1,0-.08v-.63l-.49-.38a.14.14,0,0,1,0-.19.12.12,0,0,1,.07-.05L95,15l.19-.6a.13.13,0,0,1,.16-.09.13.13,0,0,1,.07.06l.34.52h.61a.15.15,0,0,1,.13.14.16.16,0,0,1,0,.09l-.37.49.19.6a.13.13,0,0,1-.08.17.14.14,0,0,1-.09,0Z"/><path class="cls-5" d="M86,8.69l-.63.08c-.17,0-.22.09-.23.21,0,.31.38.23.19,1.07l-.42,1.82L84,10.23c-.38-.71.08-.77,0-1.09C84,9,83.84,9,83.67,9l-1.21.17c-.17,0-.24.09-.23.21,0,.29.29.17.73,1l1.12,2c.21.41.35.42.71.37s.44-.16.52-.53c0-.12.3-1.35.51-2.3s.5-.84.46-1.15C86.26,8.7,86.14,8.66,86,8.69Z"/><path class="cls-5" d="M88.49,8.29a1.89,1.89,0,0,0-1.69,2.25A2,2,0,1,0,90.74,10,1.88,1.88,0,0,0,88.49,8.29ZM89,11.75c-.51.07-.9-.49-1-1.37s.09-1.52.6-1.6.9.5,1,1.37S89.49,11.68,89,11.75Z"/><path class="cls-5" d="M94.73,8.58c-.07-.24-.17-.54-.24-.76s-.18-.31-.41-.27l-2.62.36c-.22,0-.31.13-.31.38s0,.55,0,.79.1.26.24.25.34-.33.42-.55a.62.62,0,0,1,.55-.45l.3,2.1c.05.38.07.57,0,.72s-.14.3-.12.39.11.16.27.13l1.09-.15c.17,0,.23-.09.23-.2s-.06-.17-.23-.35-.15-.3-.21-.69l-.29-2.1a.68.68,0,0,1,.67.29c.13.19.29.44.54.4A.2.2,0,0,0,94.73,8.58Z"/><path class="cls-5" d="M98.45,9.49c-.26,0-.34.31-.42.53a.63.63,0,0,1-.56.46H97.4c-.37.06-.5,0-.59-.65l-.07-.47a.72.72,0,0,1,.41,0c.16.11.2.22.32.21s.13-.17.1-.34l-.08-.57c0-.17,0-.32-.19-.3s-.13.14-.25.29a.71.71,0,0,1-.38.15l0-.39c-.09-.6,0-.73.35-.79a.66.66,0,0,1,.66.29c.13.19.29.44.54.41a.21.21,0,0,0,.17-.3c-.08-.23-.17-.53-.24-.76S97.91,7,97.69,7l-2.31.32c-.16,0-.24.09-.22.21s0,.16.22.34.15.31.2.69l.2,1.38a1.29,1.29,0,0,1,0,.73c-.11.21-.14.29-.12.39s.11.15.27.13l2.42-.34c.23,0,.31-.12.32-.36s0-.56,0-.81S98.58,9.47,98.45,9.49Z"/><path class="cls-6" d="M92,19.54a9.63,9.63,0,1,0-10.88-8.2A9.63,9.63,0,0,0,92,19.54Zm.05.37a10,10,0,1,0-11.3-8.51A10,10,0,0,0,92,19.91Z"/></g></g></svg>