<svg id="Layer_1" data-name="Layer 1" xmlns="http://www.w3.org/2000/svg" viewBox="0 0 67.68 65.22"><defs><style>.cls-1{fill:#ffad43;}.cls-2{fill:#dd0031;}.cls-3{fill:#fff;}.cls-4{fill:#007ae5;}.cls-5,.cls-6{fill:#0e1e25;}.cls-6{fill-opacity:0.12;fill-rule:evenodd;}</style></defs><path class="cls-1" d="M5.68,23.28,4,4.48l30,.4H65l1.2,2V8.32l-3.12,3L62,13.44l9.12-.4.56,1.76-1-.24-.56.64,1.28.8-3.36,1.68L68.64,19l-.4.88.24.88-1.28.64-.08,1L66,24l.56,3.44-.48.48h-.8l-.72,1.44-1.28.8.48,1.52L61.28,33.2l-.16,1.52H60l-.64,1.6v3.76l-1.2.72-.88-.08v1.6h-1l-.48,1.44-1.52.72,1.2,1-.16,1-2.88,1,1,.88-.64,1,.48,1L50.8,52.64l1,.88-.16.8-1,.32,1.52,1.6v1.68l-.72.8,1,.88.24,2-1,.56V64H10.48V54.64l-1.92-.72-2.88.4.08-.4H5l-.8-1.2Z" transform="translate(-4 1.22)"/><path class="cls-2" d="M67.22,4,48.65,6.62A10,10,0,0,1,67.22,4Z" transform="translate(-4 1.22)"/><path class="cls-3" d="M68.19,11a10,10,0,0,0-1-6.94L48.65,6.62a10.09,10.09,0,0,0-.13,3.56,9.89,9.89,0,0,0,1.11,3.38Z" transform="translate(-4 1.22)"/><path class="cls-4" d="M68.19,11a10,10,0,0,1-18.56,2.61Z" transform="translate(-4 1.22)"/><path class="cls-3" d="M53.73,4.18l-.48.36a.14.14,0,0,1-.19,0,.29.29,0,0,1,0-.09V3.79l-.49-.37a.14.14,0,0,1,0-.19.12.12,0,0,1,.07,0L53.18,3l.19-.59a.13.13,0,0,1,.16-.09.18.18,0,0,1,.07.05l.34.53h.61a.15.15,0,0,1,.13.14.16.16,0,0,1,0,.09l-.37.49.19.6a.13.13,0,0,1-.08.17.14.14,0,0,1-.09,0Z" transform="translate(-4 1.22)"/><path class="cls-3" d="M57.59,2.88l-.49.36a.13.13,0,0,1-.18,0,.1.1,0,0,1,0-.09V2.49l-.49-.37a.14.14,0,0,1,0-.19.12.12,0,0,1,.07-.05L57,1.7l.18-.59A.14.14,0,0,1,57.39,1a.18.18,0,0,1,.07.05l.34.53h.6a.15.15,0,0,1,.14.14.16.16,0,0,1,0,.09l-.37.49.19.6a.13.13,0,0,1-.17.17Z" transform="translate(-4 1.22)"/><path class="cls-3" d="M61.66,3.06l-.49.37a.12.12,0,0,1-.18,0,.11.11,0,0,1,0-.08l0-.63-.49-.38a.14.14,0,0,1,0-.19.13.13,0,0,1,.07,0l.58-.17.18-.6a.13.13,0,0,1,.17-.08.15.15,0,0,1,.06.05l.35.52h.6a.13.13,0,0,1,.13.14.19.19,0,0,1,0,.08l-.37.5.19.6a.14.14,0,0,1-.09.17.11.11,0,0,1-.08,0Z" transform="translate(-4 1.22)"/><path class="cls-3" d="M55.4,16.06l-.48.37a.13.13,0,0,1-.19,0,.19.19,0,0,1,0-.08v-.63l-.49-.38a.14.14,0,0,1,0-.19l.07,0,.58-.17.19-.6a.12.12,0,0,1,.16-.08.18.18,0,0,1,.07,0l.34.52h.61a.13.13,0,0,1,.13.14.11.11,0,0,1,0,.08l-.36.5.18.6a.13.13,0,0,1-.08.17H56Z" transform="translate(-4 1.22)"/><path class="cls-3" d="M59.44,16l-.49.36a.12.12,0,0,1-.18,0,.11.11,0,0,1,0-.08v-.63l-.48-.38a.13.13,0,0,1,0-.19A.15.15,0,0,1,58.3,15l.58-.17.19-.6a.12.12,0,0,1,.16-.08.08.08,0,0,1,.07,0l.34.52h.61a.13.13,0,0,1,.13.14.11.11,0,0,1,0,.08l-.36.5.18.6a.13.13,0,0,1-.08.17.11.11,0,0,1-.08,0Z" transform="translate(-4 1.22)"/><path class="cls-3" d="M63.33,15l-.49.36a.12.12,0,0,1-.18,0,.11.11,0,0,1,0-.08l0-.63-.49-.38a.14.14,0,0,1,0-.19A.13.13,0,0,1,62.2,14l.58-.17.18-.6a.14.14,0,0,1,.17-.09.12.12,0,0,1,.06.06l.35.52h.6a.13.13,0,0,1,.13.13.29.29,0,0,1,0,.09l-.37.49.19.6a.15.15,0,0,1-.09.18.12.12,0,0,1-.08,0Z" transform="translate(-4 1.22)"/><path class="cls-5" d="M53.74,7.47l-.62.09c-.17,0-.22.08-.23.2,0,.32.38.23.18,1.07l-.42,1.82L51.77,9c-.38-.71.08-.76,0-1.09,0-.11-.14-.15-.31-.13L50.24,8c-.17,0-.24.09-.24.21,0,.29.29.17.73,1l1.12,2.06c.22.4.35.41.71.36s.44-.15.53-.53c0-.12.3-1.35.51-2.29s.5-.85.45-1.16C54,7.48,53.91,7.44,53.74,7.47Z" transform="translate(-4 1.22)"/><path class="cls-5" d="M56.27,7.07a1.89,1.89,0,0,0-1.7,2.25,2,2,0,1,0,4-.55A1.89,1.89,0,0,0,56.27,7.07Zm.48,3.46c-.51.07-.89-.49-1-1.37s.09-1.52.6-1.6.89.5,1,1.37S57.27,10.46,56.75,10.53Z" transform="translate(-4 1.22)"/><path class="cls-5" d="M62.51,7.36c-.07-.24-.18-.54-.25-.76s-.17-.31-.4-.27l-2.62.36c-.23,0-.32.13-.32.38s0,.55,0,.79.11.27.25.25.33-.33.41-.55a.64.64,0,0,1,.56-.45l.29,2.1c.06.38.08.57,0,.72s-.15.3-.12.39.1.16.27.14l1.08-.16c.17,0,.24-.09.23-.2s0-.17-.22-.34-.16-.31-.21-.7L61.13,7a.66.66,0,0,1,.67.29c.13.19.3.44.55.41S62.56,7.52,62.51,7.36Z" transform="translate(-4 1.22)"/><path class="cls-5" d="M66.22,8.27c-.26,0-.34.31-.42.53a.64.64,0,0,1-.55.47h-.07c-.38.05-.51,0-.6-.66l-.06-.47a.67.67,0,0,1,.4,0c.16.11.21.22.33.21s.12-.17.1-.34l-.08-.57c0-.17,0-.32-.19-.3s-.13.15-.26.29-.2.11-.37.15l-.06-.39c-.08-.6,0-.73.36-.79a.63.63,0,0,1,.65.29c.13.19.3.44.55.41s.21-.13.16-.3l-.24-.76a.32.32,0,0,0-.41-.27l-2.3.32c-.17,0-.24.09-.23.21s.06.16.22.34.15.31.21.69l.19,1.39c.06.38.08.57,0,.72s-.14.29-.12.39.11.16.27.13l2.42-.34c.22,0,.31-.12.31-.36s0-.56,0-.81S66.36,8.25,66.22,8.27Z" transform="translate(-4 1.22)"/><path class="cls-6" d="M59.76,18.32a9.63,9.63,0,1,0-10.87-8.2A9.63,9.63,0,0,0,59.76,18.32Zm.05.37a10,10,0,1,0-11.29-8.51A10,10,0,0,0,59.81,18.69Z" transform="translate(-4 1.22)"/></svg>