<svg id="Layer_1" data-name="Layer 1" xmlns="http://www.w3.org/2000/svg" viewBox="0 0 57.19 65.21"><defs><style>.cls-1{fill:#ffad43;}.cls-2{fill:#dd0031;}.cls-3{fill:#fff;}.cls-4{fill:#007ae5;}.cls-5,.cls-6{fill:#0e1e25;}.cls-6{fill-opacity:0.12;fill-rule:evenodd;}</style></defs><path class="cls-1" d="M50.4,15.53V6.25L8.72,5.69l-.48,8.24L7.6,15.61l-1,.16-1-1.12L4,14.25l-1.36.4-.32,1L3,17.13l-.32,3.76.72,3.2-.64.8L3,27.53l1.52,2.56.32,1.84L7,33.85l-2.4,1.6-1.2,1.6.24,2.56-.48,1.68-1,1.12-.8.4v.8L1.6,45l-.08,1.2,1.6.72.24,1.6-.72,1.36H1L0,52.17l33,13,18,.08Z"/><path class="cls-2" d="M56,5.23,37.42,7.84A10,10,0,0,1,56,5.23Z"/><path class="cls-3" d="M57,12.17a10.09,10.09,0,0,0,.13-3.56A9.82,9.82,0,0,0,56,5.23L37.42,7.84a10,10,0,0,0,1,6.93Z"/><path class="cls-4" d="M57,12.17a10,10,0,0,1-18.57,2.6Z"/><path class="cls-3" d="M42.5,5.39,42,5.76a.13.13,0,0,1-.18,0,.16.16,0,0,1,0-.09l0-.63-.49-.37a.14.14,0,0,1,0-.19s0,0,.07,0L42,4.22l.18-.59a.13.13,0,0,1,.17-.09.15.15,0,0,1,.06,0l.35.53h.6a.14.14,0,0,1,.13.14.19.19,0,0,1,0,.08l-.37.5.19.6a.14.14,0,0,1-.09.17h-.08Z"/><path class="cls-3" d="M46.36,4.09l-.49.37a.13.13,0,0,1-.18,0,.16.16,0,0,1,0-.09l0-.63-.49-.37a.13.13,0,0,1,0-.19.08.08,0,0,1,.07,0l.57-.18L46,2.33a.12.12,0,0,1,.16-.09.13.13,0,0,1,.07,0l.35.53h.6A.14.14,0,0,1,47.3,3a.11.11,0,0,1,0,.08l-.36.5.19.6a.14.14,0,0,1-.09.17.11.11,0,0,1-.08,0Z"/><path class="cls-3" d="M50.42,4.28l-.48.37a.13.13,0,0,1-.19,0,.19.19,0,0,1,0-.08V3.9l-.49-.38a.14.14,0,0,1,0-.19.18.18,0,0,1,.07-.05l.58-.17.19-.6a.13.13,0,0,1,.23,0l.34.52h.61a.13.13,0,0,1,.13.14.11.11,0,0,1,0,.08l-.37.5.19.6a.13.13,0,0,1-.08.17H51Z"/><path class="cls-3" d="M44.17,17.28l-.49.37a.13.13,0,0,1-.18,0,.11.11,0,0,1,0-.08l0-.63L43,16.52a.14.14,0,0,1,0-.19.18.18,0,0,1,.07,0l.58-.17.18-.6a.13.13,0,0,1,.17-.08.12.12,0,0,1,.07.05l.34.52H45a.13.13,0,0,1,.13.14.19.19,0,0,1,0,.08l-.37.5.19.6a.14.14,0,0,1-.09.17.11.11,0,0,1-.08,0Z"/><path class="cls-3" d="M48.2,17.22l-.49.36a.12.12,0,0,1-.18,0,.08.08,0,0,1,0-.08v-.63L47,16.46a.14.14,0,0,1,0-.19.18.18,0,0,1,.07-.05l.58-.17.18-.6a.14.14,0,0,1,.17-.09.13.13,0,0,1,.07.06l.34.52H49a.14.14,0,0,1,.14.14.13.13,0,0,1,0,.08l-.37.49.19.61a.15.15,0,0,1-.08.17.1.1,0,0,1-.09,0Z"/><path class="cls-3" d="M52.09,16.17l-.48.36a.13.13,0,0,1-.19,0,.24.24,0,0,1,0-.08v-.63l-.49-.38a.14.14,0,0,1,0-.19.12.12,0,0,1,.07-.05l.58-.17.19-.6a.13.13,0,0,1,.16-.09.13.13,0,0,1,.07.06l.34.52h.61A.15.15,0,0,1,53,15a.16.16,0,0,1,0,.09l-.37.49.19.6a.13.13,0,0,1-.08.17.14.14,0,0,1-.09,0Z"/><path class="cls-5" d="M42.51,8.69l-.63.08c-.17,0-.22.09-.23.21,0,.31.38.23.19,1.07l-.42,1.82-.88-1.64c-.38-.71.08-.77,0-1.09,0-.11-.14-.15-.31-.13L39,9.18c-.17,0-.24.09-.23.21,0,.29.28.17.73,1l1.12,2c.21.41.35.42.71.37s.44-.16.52-.53c0-.12.3-1.35.51-2.3s.5-.84.46-1.15C42.8,8.7,42.68,8.66,42.51,8.69Z"/><path class="cls-5" d="M45,8.29a1.89,1.89,0,0,0-1.69,2.25A2,2,0,1,0,47.28,10,1.88,1.88,0,0,0,45,8.29Zm.49,3.46c-.51.07-.9-.49-1-1.37s.09-1.52.6-1.6.9.5,1,1.37S46,11.68,45.52,11.75Z"/><path class="cls-5" d="M51.27,8.58C51.2,8.34,51.1,8,51,7.82s-.18-.31-.41-.27L48,7.91c-.22,0-.31.13-.31.38s0,.55,0,.79.1.26.24.25.34-.33.42-.55a.62.62,0,0,1,.55-.45l.3,2.1c0,.38.07.57,0,.72s-.14.3-.12.39.11.16.27.13l1.09-.15c.16,0,.23-.09.23-.2s-.06-.17-.23-.35-.15-.3-.21-.69l-.29-2.1a.68.68,0,0,1,.67.29c.13.19.29.44.54.4S51.32,8.74,51.27,8.58Z"/><path class="cls-5" d="M55,9.49c-.26,0-.34.31-.42.53a.63.63,0,0,1-.56.46h-.07c-.37.06-.5,0-.59-.65l-.07-.47a.72.72,0,0,1,.41,0c.16.11.2.22.32.21s.13-.17.1-.34L54,8.71c0-.17,0-.32-.19-.3s-.13.14-.25.29a.71.71,0,0,1-.38.15l-.05-.39c-.09-.6,0-.73.35-.79a.66.66,0,0,1,.66.29c.13.19.29.44.54.41s.22-.13.16-.3-.16-.53-.24-.76-.18-.3-.4-.27l-2.31.32c-.16,0-.24.09-.22.21s0,.16.22.34.15.31.2.69l.2,1.38a1.29,1.29,0,0,1,0,.73c-.11.21-.14.29-.12.39s.11.15.27.13l2.42-.34c.23,0,.31-.12.32-.36s0-.56,0-.81S55.12,9.47,55,9.49Z"/><path class="cls-6" d="M48.53,19.54a9.63,9.63,0,1,0-10.88-8.2A9.63,9.63,0,0,0,48.53,19.54Zm0,.37a10,10,0,1,0-11.3-8.51A10,10,0,0,0,48.58,19.91Z"/></svg>