<svg id="Layer_1" data-name="Layer 1" xmlns="http://www.w3.org/2000/svg" viewBox="0 0 59.28 72.96"><defs><style>.cls-1{fill:#ffad43;}.cls-2{fill:#dd0031;}.cls-3{fill:#fff;}.cls-4{fill:#007ae5;}.cls-5,.cls-6{fill:#0e1e25;}.cls-6{fill-opacity:0.12;fill-rule:evenodd;}</style></defs><path class="cls-1" d="M34.72,71.36l-1.2-1.76h-.24l.8,1.68Zm-7-3.12h-.32l.8.32v-.24Zm7-1-1.52-.32,1,1h.64ZM24.48,63.12h-1.2l.56,1,.8-.48ZM22.88,63l-.48-.24-.32.24.8.16Zm2.88-.16L25,62.72l.88.72L27.44,63l-.16-.24ZM23.6,14.24l-.08-7.68H1.12L1,8l.4.72L2,10.48l-1,4.8.48-.56-1,1L0,17.6.08,19l2.08,1.76,1,2.08L2.8,25,3.36,27v1.2L6.64,31.6l1.52,2.48-.8-.72L7.2,35l.4-.64,2.32,1.76.4-.4L9.92,34l.72-.08,1.28.8.8-.72.64.72L14.64,34l-.4.72.88-.64,1,.72-1.2-.72-.24.72H12l-.4-.08-.8.08-.16.32.48,1.2.72.56.88,1.92h-.56l-1.44-1-.08-1.44-.72.24V38.4l1.2,2.8,1,1.2h1.28l.8.88-.4,1.44-.64.16.48,2.24,2.08,2.08,1.36,2.32,2.24,1.68v1.44l1.52.4v4.32l.8.48,5.2.32,1.92,1,1,1.2,1.92.64,1.76-.16.72,1.92,1.52-.08,3.76,2.56L41,69.12,41.44,72l.72-.32.16.48L41.68,72l.64,1,15.52-2.72.08-1.68L56.72,68,56,65.6l1.2-1-.16-3L59.28,59l-1.52-1-2-3.52L23.84,27.76Z"/><path class="cls-2" d="M35,5.23,16.47,7.84A10,10,0,0,1,35,5.23Z"/><path class="cls-3" d="M36,12.17a9.86,9.86,0,0,0,.13-3.56A9.82,9.82,0,0,0,35,5.23L16.47,7.84a10.08,10.08,0,0,0,1,6.93Z"/><path class="cls-4" d="M36,12.17a10,10,0,0,1-18.56,2.6Z"/><path class="cls-3" d="M21.55,5.39l-.49.37a.13.13,0,0,1-.18,0,.15.15,0,0,1,0-.09V5l-.49-.37a.14.14,0,0,1,0-.19s0,0,.07,0L21,4.22l.19-.59a.12.12,0,0,1,.16-.09.18.18,0,0,1,.07,0l.34.53h.6a.14.14,0,0,1,.14.14.11.11,0,0,1,0,.08l-.37.5.19.6a.14.14,0,0,1-.08.17h-.09Z"/><path class="cls-3" d="M25.41,4.09l-.49.37a.13.13,0,0,1-.18,0,.16.16,0,0,1,0-.09l0-.63-.49-.37a.14.14,0,0,1,0-.19s0,0,.07,0l.58-.18L25,2.33a.13.13,0,0,1,.17-.09.15.15,0,0,1,.06,0l.35.53h.6a.14.14,0,0,1,.13.14.19.19,0,0,1,0,.08l-.37.5.19.6a.14.14,0,0,1-.09.17.11.11,0,0,1-.08,0Z"/><path class="cls-3" d="M29.48,4.28,29,4.65a.13.13,0,0,1-.19,0,.19.19,0,0,1,0-.08V3.9l-.49-.38a.14.14,0,0,1,0-.19.15.15,0,0,1,.06-.05l.58-.17.19-.6a.13.13,0,0,1,.23,0l.34.52h.61a.13.13,0,0,1,.13.14.11.11,0,0,1,0,.08l-.36.5.18.6a.13.13,0,0,1-.08.17h-.08Z"/><path class="cls-3" d="M23.22,17.28l-.49.37a.13.13,0,0,1-.18,0,.11.11,0,0,1,0-.08V16.9l-.49-.38a.14.14,0,0,1,0-.19.18.18,0,0,1,.07,0l.58-.17.19-.6a.13.13,0,0,1,.23,0l.34.52H24a.13.13,0,0,1,.13.14.11.11,0,0,1,0,.08l-.37.5.19.6a.13.13,0,0,1-.08.17.14.14,0,0,1-.09,0Z"/><path class="cls-3" d="M27.25,17.22l-.48.36a.13.13,0,0,1-.19,0,.19.19,0,0,1,0-.08v-.63l-.49-.38a.14.14,0,0,1,0-.19.18.18,0,0,1,.07-.05l.58-.17.19-.6a.13.13,0,0,1,.16-.09.13.13,0,0,1,.07.06l.34.52h.61a.13.13,0,0,1,.13.14.13.13,0,0,1,0,.08l-.37.49.19.61a.14.14,0,0,1-.08.17.1.1,0,0,1-.09,0Z"/><path class="cls-3" d="M31.15,16.17l-.49.36a.12.12,0,0,1-.18,0,.13.13,0,0,1,0-.08v-.63L30,15.41a.13.13,0,0,1,0-.19s0,0,.06-.05l.58-.17.19-.6a.13.13,0,0,1,.16-.09.11.11,0,0,1,.07.06l.34.52H32a.15.15,0,0,1,.13.14.16.16,0,0,1,0,.09l-.36.49.18.6a.12.12,0,0,1-.08.17.11.11,0,0,1-.08,0Z"/><path class="cls-5" d="M21.56,8.69l-.63.08c-.16,0-.22.09-.23.21,0,.31.38.23.19,1.07l-.42,1.82-.88-1.64c-.38-.71.08-.77,0-1.09,0-.11-.14-.15-.31-.13l-1.21.17c-.16,0-.23.09-.23.21,0,.29.29.17.73,1l1.12,2c.22.41.35.42.71.37s.44-.16.52-.53c0-.12.3-1.35.51-2.3s.51-.84.46-1.15C21.86,8.7,21.73,8.66,21.56,8.69Z"/><path class="cls-5" d="M24.09,8.29a1.89,1.89,0,0,0-1.7,2.25A2,2,0,1,0,26.34,10,1.89,1.89,0,0,0,24.09,8.29Zm.48,3.46c-.51.07-.89-.49-1-1.37s.09-1.52.61-1.6.89.5,1,1.37S25.08,11.68,24.57,11.75Z"/><path class="cls-5" d="M30.33,8.58l-.25-.76c-.07-.24-.17-.31-.4-.27l-2.62.36c-.23,0-.32.13-.32.38s0,.55,0,.79.1.26.25.25.33-.33.41-.55a.62.62,0,0,1,.55-.45l.3,2.1a1.38,1.38,0,0,1,0,.72c-.12.22-.15.3-.13.39s.11.16.28.13l1.08-.15c.17,0,.24-.09.23-.2s-.06-.17-.23-.35-.15-.3-.2-.69L29,8.18a.66.66,0,0,1,.67.29c.13.19.29.44.54.4A.2.2,0,0,0,30.33,8.58Z"/><path class="cls-5" d="M34,9.49c-.26,0-.34.31-.42.53a.62.62,0,0,1-.56.46H33c-.37.06-.5,0-.59-.65l-.06-.47a.67.67,0,0,1,.4,0c.16.11.2.22.32.21s.13-.17.11-.34l-.08-.57c0-.17-.05-.32-.2-.3s-.13.14-.25.29a.71.71,0,0,1-.38.15l0-.39c-.09-.6,0-.73.35-.79a.65.65,0,0,1,.66.29c.13.19.29.44.54.41s.22-.13.17-.3l-.24-.76A.32.32,0,0,0,33.28,7L31,7.36c-.16,0-.23.09-.22.21s.05.16.22.34.15.31.21.69L31.37,10a1.42,1.42,0,0,1,0,.73c-.12.21-.15.29-.13.39s.11.15.28.13l2.42-.34c.22,0,.31-.12.31-.36s0-.56,0-.81S34.17,9.47,34,9.49Z"/><path class="cls-6" d="M27.58,19.54a9.63,9.63,0,1,0-10.87-8.2A9.63,9.63,0,0,0,27.58,19.54Zm.05.37A10,10,0,1,0,16.34,11.4,10,10,0,0,0,27.63,19.91Z"/></svg>