<svg id="Layer_1" data-name="Layer 1" xmlns="http://www.w3.org/2000/svg" viewBox="0 0 93.4 68.2"><defs><style>.cls-1{fill:#ffad43;}.cls-2{fill:#dd0031;}.cls-3{fill:#fff;}.cls-4{fill:#007ae5;}.cls-5,.cls-6{fill:#0e1e25;}.cls-6{fill-opacity:0.12;fill-rule:evenodd;}</style></defs><path class="cls-1" d="M32.88,7.56l-21.6-1-3.12,45,2.72,4.64L0,62.6l3.36,5.6,2-1,.8.8L8.72,66.6l.32.48.8-1.6,1.36.08L16.88,62l2.64-1.36,1.52.48,1.44-1.76.56.32,2-1.36,1,1.12,1.28-.56,3.2-2.48,1.84-.4,4.32-5.12.24,1.76.88,1.12H41.2l2.88-.56,2.24.64L47.6,53l2.56-.64L53,53.48l.88-.32.56.64L56.8,52l3.76.56,1-.72-.8-.56L61.28,50l-1.84-2.48,2.16,1v2.16l2.56,1.6L67,50.68l1.2.64.4-1.6,3.68.88,1.12-2.48,2.08,2.08,3.2-1.52h3.52l1.12.56-.64,1L84,49.72l.64-4,1-1.36.4-6.4L85.44,8.2,43.12,8,43,9.32l-1.84.16L41,8Z"/><path class="cls-2" d="M92.19,5.23,73.63,7.84A10,10,0,0,1,92.19,5.23Z"/><path class="cls-3" d="M93.16,12.17a10,10,0,0,0-1-6.94L73.63,7.84a9.86,9.86,0,0,0-.14,3.56,10.06,10.06,0,0,0,1.11,3.37Z"/><path class="cls-4" d="M93.16,12.17a10,10,0,0,1-18.56,2.6Z"/><path class="cls-3" d="M78.71,5.39l-.49.37a.13.13,0,0,1-.18,0,.16.16,0,0,1,0-.09L78,5l-.49-.37a.13.13,0,0,1,0-.19.08.08,0,0,1,.07,0l.57-.18.19-.59a.12.12,0,0,1,.16-.09.13.13,0,0,1,.07,0l.35.53h.6a.14.14,0,0,1,.13.14.11.11,0,0,1,0,.08l-.36.5.18.6a.13.13,0,0,1-.08.17h-.08Z"/><path class="cls-3" d="M82.56,4.09l-.48.37a.14.14,0,0,1-.19,0,.29.29,0,0,1,0-.09V3.71l-.49-.37a.14.14,0,0,1,0-.19.1.1,0,0,1,.07,0L82,2.92l.19-.59a.12.12,0,0,1,.16-.09.18.18,0,0,1,.07,0l.34.53h.61a.14.14,0,0,1,.13.14.11.11,0,0,1,0,.08l-.37.5.19.6a.13.13,0,0,1-.08.17.14.14,0,0,1-.09,0Z"/><path class="cls-3" d="M86.63,4.28l-.49.37a.12.12,0,0,1-.18,0,.11.11,0,0,1,0-.08l0-.63-.49-.38a.14.14,0,0,1,0-.19.18.18,0,0,1,.07-.05l.58-.17.18-.6a.13.13,0,0,1,.17-.08.12.12,0,0,1,.07,0l.34.52h.6a.13.13,0,0,1,.13.14.11.11,0,0,1,0,.08l-.37.5.19.6a.14.14,0,0,1-.09.17H87.2Z"/><path class="cls-3" d="M80.38,17.28l-.49.37a.13.13,0,0,1-.18,0,.11.11,0,0,1,0-.08l0-.63-.49-.38a.13.13,0,0,1,0-.19.13.13,0,0,1,.07,0l.57-.17.19-.6a.13.13,0,0,1,.17-.08s0,0,.06.05l.35.52h.6a.13.13,0,0,1,.13.14.11.11,0,0,1,0,.08l-.36.5.19.6a.14.14,0,0,1-.09.17.11.11,0,0,1-.08,0Z"/><path class="cls-3" d="M84.41,17.22l-.49.36a.12.12,0,0,1-.18,0,.11.11,0,0,1,0-.08l0-.63-.49-.38a.14.14,0,0,1,0-.19.18.18,0,0,1,.07-.05l.58-.17.18-.6a.14.14,0,0,1,.17-.09.12.12,0,0,1,.06.06l.35.52h.6a.13.13,0,0,1,.13.14.24.24,0,0,1,0,.08l-.37.49.19.61a.14.14,0,0,1-.09.17.08.08,0,0,1-.08,0Z"/><path class="cls-3" d="M88.3,16.17l-.49.36a.12.12,0,0,1-.18,0,.13.13,0,0,1,0-.08l0-.63-.49-.38a.14.14,0,0,1,0-.19.12.12,0,0,1,.07-.05l.58-.17.18-.6a.14.14,0,0,1,.17-.09.13.13,0,0,1,.07.06l.34.52h.6a.15.15,0,0,1,.14.14.16.16,0,0,1,0,.09l-.37.49.19.6a.13.13,0,0,1-.17.17Z"/><path class="cls-5" d="M78.71,8.69l-.62.08c-.17,0-.22.09-.23.21,0,.31.38.23.19,1.07l-.42,1.82-.88-1.64c-.38-.71.07-.77,0-1.09,0-.11-.15-.15-.31-.13l-1.21.17c-.17,0-.24.09-.23.21,0,.29.28.17.72,1s1.07,2,1.12,2c.22.41.36.42.71.37s.44-.16.53-.53c0-.12.3-1.35.51-2.3s.5-.84.46-1.15C79,8.7,78.88,8.66,78.71,8.69Z"/><path class="cls-5" d="M81.24,8.29a1.89,1.89,0,0,0-1.69,2.25A2,2,0,1,0,83.49,10,1.88,1.88,0,0,0,81.24,8.29Zm.49,3.46c-.51.07-.9-.49-1-1.37s.09-1.52.6-1.6.9.5,1,1.37S82.24,11.68,81.73,11.75Z"/><path class="cls-5" d="M87.48,8.58c-.07-.24-.17-.54-.24-.76s-.18-.31-.41-.27l-2.62.36c-.23,0-.31.13-.32.38s0,.55,0,.79a.21.21,0,0,0,.24.25c.25,0,.33-.33.41-.55a.64.64,0,0,1,.56-.45l.29,2.1c.06.38.08.57,0,.72s-.15.3-.12.39.1.16.27.13l1.08-.15c.17,0,.24-.09.24-.2s-.06-.17-.23-.35-.15-.3-.21-.69l-.29-2.1a.65.65,0,0,1,.66.29c.13.19.3.44.55.4S87.53,8.74,87.48,8.58Z"/><path class="cls-5" d="M91.19,9.49c-.25,0-.34.31-.42.53a.62.62,0,0,1-.55.46h-.07c-.38.06-.51,0-.59-.65l-.07-.47a.72.72,0,0,1,.41,0c.15.11.2.22.32.21s.12-.17.1-.34l-.08-.57c0-.17,0-.32-.19-.3s-.13.14-.25.29a.71.71,0,0,1-.38.15l-.06-.39c-.08-.6,0-.73.36-.79a.63.63,0,0,1,.65.29c.14.19.3.44.55.41s.21-.13.16-.3l-.24-.76A.32.32,0,0,0,90.43,7l-2.3.32c-.16,0-.24.09-.23.21s.06.16.23.34.15.31.2.69L88.52,10c.06.39.08.57,0,.73s-.14.29-.12.39.11.15.27.13l2.42-.34c.22,0,.31-.12.32-.36s0-.56,0-.81S91.33,9.47,91.19,9.49Z"/><path class="cls-6" d="M84.73,19.54a9.63,9.63,0,1,0-10.87-8.2A9.63,9.63,0,0,0,84.73,19.54Zm.06.37a10,10,0,1,0-11.3-8.51A10,10,0,0,0,84.79,19.91Z"/></svg>