<svg id="Layer_1" data-name="Layer 1" xmlns="http://www.w3.org/2000/svg" viewBox="0 0 26.1 70.88"><defs><style>.cls-1{fill:#ffad43;}.cls-2{fill:#dd0031;}.cls-3{fill:#fff;}.cls-4{fill:#007ae5;}.cls-5,.cls-6{fill:#0e1e25;}.cls-6{fill-opacity:0.12;fill-rule:evenodd;}</style></defs><path class="cls-1" d="M12.32,10.72,10.08,9.36,6.32,9.28,2.88,10.8,0,14.48l2.48,56.4H24.4l.24-.32,1,.32-.48-7.2-1.2,2.08-1-1-3,.88.72-.88h-.72l.56-.64L23,63.28l.72-.56-1.76-1h1L22.4,60h1.68l.48.56.08,2.16L25,61l-.4-4.72-.24-.72-3-.24-5-5.36-.24-2.72-1.76-3.2-.88-.56-.48-4.24.16-3.84-1-2.56-1-1.44-1.12-.24L7,25l.88-2.48L7.6,20.88,6.16,19.44l.48-1.84,1.52-.72,2-2.88.48-1.76Z"/><path class="cls-2" d="M24.89,5.23,6.33,7.84A10,10,0,0,1,24.89,5.23Z"/><path class="cls-3" d="M25.86,12.17A9.86,9.86,0,0,0,26,8.61a10,10,0,0,0-1.11-3.38L6.33,7.84a10,10,0,0,0,1,6.93Z"/><path class="cls-4" d="M25.86,12.17A10,10,0,0,1,7.3,14.77Z"/><path class="cls-3" d="M11.41,5.39l-.49.37a.13.13,0,0,1-.18,0,.16.16,0,0,1,0-.09l0-.63-.49-.37a.13.13,0,0,1,0-.19.08.08,0,0,1,.07,0l.57-.18L11,3.63a.13.13,0,0,1,.17-.09.15.15,0,0,1,.06,0l.35.53h.6a.14.14,0,0,1,.13.14.11.11,0,0,1,0,.08l-.36.5.19.6a.14.14,0,0,1-.09.17H12Z"/><path class="cls-3" d="M15.26,4.09l-.48.37a.14.14,0,0,1-.19,0,.29.29,0,0,1,0-.09V3.71l-.49-.37a.15.15,0,0,1,0-.19.1.1,0,0,1,.07,0l.58-.18.19-.59a.12.12,0,0,1,.16-.09.18.18,0,0,1,.07,0l.34.53h.61a.14.14,0,0,1,.13.14.11.11,0,0,1,0,.08l-.36.5.18.6a.13.13,0,0,1-.08.17.14.14,0,0,1-.09,0Z"/><path class="cls-3" d="M19.33,4.28l-.49.37a.12.12,0,0,1-.18,0,.11.11,0,0,1,0-.08l0-.63-.49-.38a.14.14,0,0,1,0-.19.18.18,0,0,1,.07-.05l.58-.17.18-.6a.13.13,0,0,1,.17-.08.12.12,0,0,1,.07,0l.34.52h.6a.14.14,0,0,1,.14.14.11.11,0,0,1,0,.08l-.37.5.19.6A.14.14,0,0,1,20,4.5H19.9Z"/><path class="cls-3" d="M13.08,17.28l-.49.37a.13.13,0,0,1-.18,0,.11.11,0,0,1,0-.08l0-.63-.49-.38a.13.13,0,0,1,0-.19.13.13,0,0,1,.07,0l.57-.17.19-.6a.13.13,0,0,1,.17-.08s0,0,.06.05l.35.52h.6a.13.13,0,0,1,.13.14.11.11,0,0,1,0,.08l-.36.5.19.6a.14.14,0,0,1-.09.17.11.11,0,0,1-.08,0Z"/><path class="cls-3" d="M17.11,17.22l-.49.36a.12.12,0,0,1-.18,0,.11.11,0,0,1,0-.08l0-.63-.49-.38a.14.14,0,0,1,0-.19.18.18,0,0,1,.07-.05l.58-.17.18-.6a.14.14,0,0,1,.17-.09.12.12,0,0,1,.06.06l.35.52h.6a.13.13,0,0,1,.13.14.24.24,0,0,1,0,.08l-.37.49.19.61a.14.14,0,0,1-.09.17.08.08,0,0,1-.08,0Z"/><path class="cls-3" d="M21,16.17l-.49.36a.12.12,0,0,1-.18,0,.08.08,0,0,1,0-.08v-.63l-.49-.38a.14.14,0,0,1,0-.19.12.12,0,0,1,.07-.05l.58-.17.18-.6a.14.14,0,0,1,.17-.09.13.13,0,0,1,.07.06l.34.52h.6A.15.15,0,0,1,22,15a.16.16,0,0,1,0,.09l-.37.49.19.6a.13.13,0,0,1-.17.17Z"/><path class="cls-5" d="M11.41,8.69l-.62.08c-.17,0-.22.09-.23.21,0,.31.38.23.19,1.07l-.42,1.82-.88-1.64c-.38-.71.07-.77,0-1.09C9.4,9,9.28,9,9.12,9l-1.21.17c-.17,0-.24.09-.23.21,0,.29.28.17.72,1s1.07,2,1.12,2c.22.41.36.42.72.37s.43-.16.52-.53c0-.12.3-1.35.51-2.3s.5-.84.46-1.15C11.71,8.7,11.58,8.66,11.41,8.69Z"/><path class="cls-5" d="M13.94,8.29a1.89,1.89,0,0,0-1.69,2.25,1.9,1.9,0,0,0,2.25,1.71A1.9,1.9,0,0,0,16.19,10,1.88,1.88,0,0,0,13.94,8.29Zm.49,3.46c-.51.07-.9-.49-1-1.37s.09-1.52.6-1.6.9.5,1,1.37S14.94,11.68,14.43,11.75Z"/><path class="cls-5" d="M20.18,8.58c-.07-.24-.17-.54-.24-.76s-.18-.31-.41-.27l-2.62.36c-.23,0-.31.13-.32.38s0,.55,0,.79a.21.21,0,0,0,.24.25c.25,0,.33-.33.41-.55a.64.64,0,0,1,.56-.45l.29,2.1c.06.38.08.57,0,.72s-.15.3-.12.39.1.16.27.13l1.08-.15c.17,0,.24-.09.24-.2s-.06-.17-.23-.35-.15-.3-.21-.69l-.29-2.1a.65.65,0,0,1,.66.29c.14.19.3.44.55.4S20.23,8.74,20.18,8.58Z"/><path class="cls-5" d="M23.89,9.49c-.25,0-.33.31-.41.53a.64.64,0,0,1-.56.46h-.07c-.38.06-.5,0-.59-.65l-.07-.47a.72.72,0,0,1,.41,0c.16.11.2.22.32.21s.12-.17.1-.34l-.08-.57c0-.17,0-.32-.19-.3s-.13.14-.25.29a.71.71,0,0,1-.38.15l-.06-.39c-.08-.6,0-.73.36-.79a.63.63,0,0,1,.65.29c.14.19.3.44.55.41s.21-.13.16-.3l-.24-.76A.32.32,0,0,0,23.13,7l-2.3.32c-.16,0-.24.09-.23.21s.06.16.23.34.15.31.2.69L21.22,10c.06.39.08.57,0,.73s-.14.29-.12.39.11.15.27.13l2.42-.34c.22,0,.31-.12.32-.36s0-.56,0-.81S24,9.47,23.89,9.49Z"/><path class="cls-6" d="M17.44,19.54a9.63,9.63,0,1,0-10.88-8.2A9.63,9.63,0,0,0,17.44,19.54Zm0,.37A10,10,0,1,0,6.19,11.4,10,10,0,0,0,17.49,19.91Z"/></svg>