<svg id="Layer_1" data-name="Layer 1" xmlns="http://www.w3.org/2000/svg" viewBox="0 0 68.26 69.41"><defs><style>.cls-1{fill:#ffad43;}.cls-2{fill:#dd0031;}.cls-3{fill:#fff;}.cls-4{fill:#007ae5;}.cls-5,.cls-6{fill:#0e1e25;}.cls-6{fill-opacity:0.12;fill-rule:evenodd;}</style></defs><path class="cls-1" d="M49.76,69.09l-.56.24-.16.08h.72Zm.8,0L50.08,69l-.32.4Zm1.84-.72v-.32h-.24v.24Zm-.88-.32.16.4-.56-.08-.48.72,1.12-.64Zm.56,0L52,68h-.24v.4Zm3.6-.08.32-.08v-.24l-1,.24Zm-2.48.4L53,67.89l-.32-.32.4.88Zm3.76-.8L57,67l-1,.88Zm1.12-.72v-.32l-.56.4Zm1.44-1,.32-.32-.4.32Zm-3.6-3.68.08-.32h-.32v.32Zm-.24-.48h-.4l.32.16Zm6.4,1.68,1-1.92-1,.64v.64L60,65.49h.24Zm1.28-2.64.24-.32.08-.16-.4.64Zm.48-2.56v-.4h-.08l-.08.4ZM53.12,57l-.4-.56-.32.24V57Zm-1-.64H52l-.24.08.4.32Zm-1.6-.08h-.48l.16.16Zm1.12.08v-.08l-.16-.24v.4Zm-5.2-5.92-.72-.72.4.72,1,.24Zm.32-.4-.32-1.68-.64-.08.72,1.52Zm-1.44-2.24-.24-.48v.88Zm-3-5.92-.56-1H41.6l.8,1Zm21.28,1.44-1.6-5.12-.8-1.44L62.72,41ZM59.52,29.89l-.08-.48-.88.88.88,2.88V31.25ZM41.6,28v.16h.24V28Zm0-.16h.24l-.24-.24Zm-2.88-3.76-.08-.32-.16.24v.08Zm-17.6-5.84h-1l.64.48Zm1,.64,2.48-1.44-2.72,1.36h-.8l.48.32Zm3.12-1.52.4-.4-.88.48ZM8.8,10.61h.32l-1.44-.24-5.2.56h.4ZM44.32,37.09,42.4,39.81h.16l-.64.08.48.4h-.8l.24.24-.64-.48.32.48,1,.72.08,1.12,2.16,4.48,1.36.4-1-2.4,1,1,1.76-.64-1.12.88.16,3.6h1l.32-1,1-.48-1.84,2.24,1,.24v-.56l.24.56.56,3.6v-.48l.48,1.2.8.24-.8.72,1-.32,2.4,1.12,1.52,2.64L55,61.17,57,62.45l-.8.24h.32l-.88-.56-.4-.48-.64,1,.32.72.72.64,1.84-.8,1.36.32,1.92-.88.08.48.48.24-.08-.48-.4-.16.48-.08.4.56-.24-.56.88-1.2.32-2.56,1.12-2.8v1.36l1-10.24-1-3.2-1.52-1,1,.32v.16l-1.28-3.12-.32-1.76-3-6.88-1.28-4.08,1,.4-.08,1.44h1.44l-.32,3.76,1.76,3.52-1.36-3.52V31.41l.56-.64-1-1.76L57,25l-2.8-7.28L53,11l-1-.64v-.8l.64,1V8.77L48,7.73l-.56.48V12l-1,.08-.72-2-22.48-2-1-2.8-22-1L0,5.65,1.84,7.49l-.4,1.6.64.56L.56,11.41l2.24-.56,1-1.28-.32-1,1,1.12.4-1.44.48.56L5,9.25,6,10l-2.56.88,3.68-.48,1.44.16.8-1,.8.08v.48l1.6-.48.64.4.32,1-1.12-.56v.56l-.4-.56-.56.48L9.2,10.53,13,11.89l2.88,1.6-.32-1-.72-.16.72-.4.56.48,1.12-.48.24.4-1.6.72,1.36.8.64-.32L18,14.77l.8-.24-.56.32-1.92-1.36L19,16.21l.32.72L19,18.21l-.72-1.84.48,1.36.24.48,2.88-.32,1.28-.64-.16.48,3.28-1.52,1.12.16.16-.16v-.32l-1-.4.08-.32.88.32-.48-.56,1.76-.64.32.48,1.36-.32,2.88,1.76,1.12,2,1.28.64-.16,1.28,1.52,1.12,1.52,2.48H41l.56,1.92.72.88v1l-.64-.08.64.8-.4,2.64-1.68,5.52,1,2.08v-.48l-.64-1,1.28,1.2.8-1.6L41.44,36l.48-.32H41.6v-.48l1.28.56L43,37.09h.64v-1H44ZM58,43.33l1.12,1,.4,1.2-.72,2.88-1.44-.72L55.6,45.73Z"/><path class="cls-2" d="M67.06,5.23,48.49,7.84A10,10,0,0,1,67.06,5.23Z"/><path class="cls-3" d="M68,12.17a10.08,10.08,0,0,0,.14-3.56,10.27,10.27,0,0,0-1.11-3.38L48.49,7.84a10.09,10.09,0,0,0-.13,3.56,9.84,9.84,0,0,0,1.11,3.37Z"/><path class="cls-4" d="M68,12.17a10,10,0,0,1-18.56,2.6Z"/><path class="cls-3" d="M53.57,5.39l-.48.37a.14.14,0,0,1-.19,0,.29.29,0,0,1,0-.09V5l-.49-.37a.14.14,0,0,1,0-.19s0,0,.07,0L53,4.22l.19-.59a.12.12,0,0,1,.16-.09.18.18,0,0,1,.07,0l.34.53h.61a.14.14,0,0,1,.13.14.11.11,0,0,1,0,.08l-.37.5.19.6a.13.13,0,0,1-.08.17h-.09Z"/><path class="cls-3" d="M57.43,4.09l-.49.37a.13.13,0,0,1-.18,0,.16.16,0,0,1,0-.09l0-.63-.49-.37a.14.14,0,0,1,0-.19s0,0,.07,0l.58-.18.18-.59a.14.14,0,0,1,.17-.09.18.18,0,0,1,.07,0l.34.53h.6a.15.15,0,0,1,.14.14.11.11,0,0,1,0,.08l-.37.5.19.6a.14.14,0,0,1-.08.17.14.14,0,0,1-.09,0Z"/><path class="cls-3" d="M61.5,4.28,61,4.65a.12.12,0,0,1-.18,0,.11.11,0,0,1,0-.08l0-.63-.49-.38a.13.13,0,0,1,0-.19.13.13,0,0,1,.07-.05l.57-.17.19-.6a.13.13,0,0,1,.17-.08s.05,0,.06,0l.35.52h.6a.13.13,0,0,1,.13.14.11.11,0,0,1,0,.08l-.36.5.19.6a.14.14,0,0,1-.09.17h-.08Z"/><path class="cls-3" d="M55.24,17.28l-.48.37a.14.14,0,0,1-.19,0,.19.19,0,0,1,0-.08V16.9l-.49-.38a.14.14,0,0,1,0-.19.18.18,0,0,1,.07,0l.58-.17.19-.6a.13.13,0,0,1,.23,0l.34.52h.61a.13.13,0,0,1,.13.14.11.11,0,0,1,0,.08l-.37.5.19.6a.13.13,0,0,1-.08.17.14.14,0,0,1-.09,0Z"/><path class="cls-3" d="M59.28,17.22l-.49.36a.13.13,0,0,1-.19,0,.19.19,0,0,1,0-.08v-.63l-.49-.38a.15.15,0,0,1,0-.19l.07-.05.58-.17.19-.6a.13.13,0,0,1,.16-.09.13.13,0,0,1,.07.06l.34.52h.61a.13.13,0,0,1,.13.14.13.13,0,0,1,0,.08l-.36.49.18.61a.13.13,0,0,1-.08.17.08.08,0,0,1-.08,0Z"/><path class="cls-3" d="M63.17,16.17l-.49.36a.12.12,0,0,1-.18,0,.13.13,0,0,1,0-.08l0-.63L62,15.41a.13.13,0,0,1,0-.19s0,0,.07-.05l.57-.17.19-.6a.14.14,0,0,1,.17-.09.12.12,0,0,1,.06.06l.35.52H64a.15.15,0,0,1,.13.14.16.16,0,0,1,0,.09l-.36.49.19.6a.13.13,0,0,1-.09.17.11.11,0,0,1-.08,0Z"/><path class="cls-5" d="M53.58,8.69,53,8.77c-.17,0-.22.09-.24.21,0,.31.39.23.19,1.07l-.42,1.82-.88-1.64c-.38-.71.08-.77,0-1.09,0-.11-.14-.15-.31-.13l-1.2.17c-.17,0-.24.09-.24.21,0,.29.29.17.73,1l1.12,2c.22.41.35.42.71.37s.44-.16.53-.53c0-.12.29-1.35.5-2.3s.51-.84.46-1.15C53.88,8.7,53.75,8.66,53.58,8.69Z"/><path class="cls-5" d="M56.11,8.29a1.89,1.89,0,0,0-1.7,2.25,2,2,0,1,0,4-.55A1.89,1.89,0,0,0,56.11,8.29Zm.48,3.46c-.51.07-.89-.49-1-1.37s.1-1.52.61-1.6.89.5,1,1.37S57.1,11.68,56.59,11.75Z"/><path class="cls-5" d="M62.35,8.58c-.07-.24-.18-.54-.25-.76s-.17-.31-.4-.27l-2.62.36c-.23,0-.32.13-.32.38s0,.55,0,.79a.22.22,0,0,0,.25.25c.25,0,.33-.33.41-.55A.62.62,0,0,1,60,8.33l.29,2.1c.06.38.08.57,0,.72s-.15.3-.12.39.1.16.27.13l1.08-.15c.17,0,.24-.09.23-.2s-.05-.17-.22-.35-.16-.3-.21-.69L61,8.18a.66.66,0,0,1,.67.29c.13.19.29.44.54.4A.2.2,0,0,0,62.35,8.58Z"/><path class="cls-5" d="M66.06,9.49c-.26,0-.34.31-.42.53a.62.62,0,0,1-.55.46H65c-.37.06-.5,0-.59-.65l-.06-.47a.67.67,0,0,1,.4,0c.16.11.21.22.33.21s.12-.17.1-.34l-.08-.57c0-.17,0-.32-.19-.3s-.13.14-.26.29-.2.11-.38.15l0-.39c-.09-.6,0-.73.35-.79a.65.65,0,0,1,.66.29c.13.19.3.44.55.41s.21-.13.16-.3l-.24-.76A.32.32,0,0,0,65.3,7L63,7.36c-.16,0-.23.09-.22.21s0,.16.22.34.15.31.21.69L63.39,10c.06.39.08.57,0,.73s-.14.29-.12.39.11.15.27.13L66,10.89c.22,0,.31-.12.31-.36s0-.56,0-.81S66.19,9.47,66.06,9.49Z"/><path class="cls-6" d="M59.6,19.54a9.63,9.63,0,1,0-10.87-8.2A9.62,9.62,0,0,0,59.6,19.54Zm0,.37A10,10,0,1,0,48.36,11.4,10,10,0,0,0,59.65,19.91Z"/></svg>