<svg id="Layer_1" data-name="Layer 1" xmlns="http://www.w3.org/2000/svg" viewBox="0 0 52.4 68.54"><defs><style>.cls-1{fill:#ffad43;}.cls-2{fill:#dd0031;}.cls-3{fill:#fff;}.cls-4{fill:#007ae5;}.cls-5,.cls-6{fill:#0e1e25;}.cls-6{fill-opacity:0.12;fill-rule:evenodd;}</style></defs><path class="cls-1" d="M45.52,63.74v-.88L46,60.78l-.88,1ZM6,41l-.24,1.12,1,.88L5.28,44.46,3.84,49,5,52.7l-.88,4.72L5,58.7l.16,1.52,1.44,3.44L36.48,66l.8,2.56,1.44-.08.48-2.72-.32-2,.72-1.12L45,64.06l-.32-1.84.48.08L45,61.42l.56-.64-.64-.4.64-.4-.64-.88,1,.88L46,58.54l-.4.72-.48-.72.4.16V57.5l.32-.08.56,1,1.12-1.44-.64-.88-1.76-.64,2.4.4-.64-1.2.64.48L48.72,53l-1.44.72.24-.56-.64-.24,1.44-.64-.48-.56.88,1L49,51.26v-.4l-.08.4-1,.24.48-.64-.88-.72,2,.32.8-1.2L49,49l.56-.4-.32-.32,1.6.4.48-.4-.4-.48.4-.48.4.24.72-.64L49,45.26V42.78l-.64-2.08L46,38.94V37.26l-1.36-3.92L42,31.9l-.24-1-.88-.4.16-.72-1-.64V27.66l-2.8-1.76-1-2.24L33,21.1l-1.68-2.72-1.68-3.76-1.84-.56L26.4,12.62l-1.84-1.44.32-1.44,2.24-2.32L0,6.94,3.68,34.22,4.56,38Z"/><path class="cls-2" d="M38.47,5.23,19.91,7.84A10,10,0,0,1,38.47,5.23Z"/><path class="cls-3" d="M39.45,12.17a10,10,0,0,0-1-6.94L19.91,7.84a10.08,10.08,0,0,0,1,6.93Z"/><path class="cls-4" d="M39.45,12.17a10,10,0,0,1-18.56,2.6Z"/><path class="cls-3" d="M25,5.39l-.49.37a.13.13,0,0,1-.18,0,.15.15,0,0,1,0-.09V5l-.49-.37a.14.14,0,0,1,0-.19s0,0,.07,0l.58-.18.19-.59a.12.12,0,0,1,.16-.09.18.18,0,0,1,.07,0l.34.53h.61a.14.14,0,0,1,.13.14.11.11,0,0,1,0,.08l-.37.5.19.6a.13.13,0,0,1-.08.17h-.09Z"/><path class="cls-3" d="M28.85,4.09l-.49.37a.13.13,0,0,1-.18,0,.16.16,0,0,1,0-.09l0-.63-.49-.37a.14.14,0,0,1,0-.19s0,0,.07,0l.58-.18.18-.59a.14.14,0,0,1,.17-.09.18.18,0,0,1,.07,0l.34.53h.6a.13.13,0,0,1,.13.14.11.11,0,0,1,0,.08l-.37.5.19.6a.14.14,0,0,1-.09.17.11.11,0,0,1-.08,0Z"/><path class="cls-3" d="M32.92,4.28l-.49.37a.12.12,0,0,1-.18,0,.11.11,0,0,1,0-.08V3.9l-.48-.38a.13.13,0,0,1,0-.19.15.15,0,0,1,.06-.05l.58-.17.19-.6a.12.12,0,0,1,.16-.08s.06,0,.07,0l.35.52h.6a.13.13,0,0,1,.13.14.11.11,0,0,1,0,.08l-.36.5.18.6a.13.13,0,0,1-.08.17h-.08Z"/><path class="cls-3" d="M26.66,17.28l-.48.37a.14.14,0,0,1-.19,0,.19.19,0,0,1,0-.08V16.9l-.49-.38a.14.14,0,0,1,0-.19.18.18,0,0,1,.07,0l.58-.17.19-.6a.13.13,0,0,1,.23,0l.34.52h.61a.13.13,0,0,1,.13.14.11.11,0,0,1,0,.08l-.37.5.19.6a.13.13,0,0,1-.08.17.14.14,0,0,1-.09,0Z"/><path class="cls-3" d="M30.69,17.22l-.48.36a.13.13,0,0,1-.19,0,.19.19,0,0,1,0-.08v-.63l-.49-.38a.15.15,0,0,1,0-.19l.07-.05.58-.17.19-.6a.13.13,0,0,1,.16-.09.13.13,0,0,1,.07.06l.34.52h.61a.13.13,0,0,1,.13.14.13.13,0,0,1,0,.08l-.36.49.18.61a.13.13,0,0,1-.08.17.1.1,0,0,1-.09,0Z"/><path class="cls-3" d="M34.59,16.17l-.49.36a.12.12,0,0,1-.18,0,.13.13,0,0,1,0-.08l0-.63-.49-.38a.13.13,0,0,1,0-.19s0,0,.07-.05L34,15l.19-.6a.14.14,0,0,1,.17-.09.12.12,0,0,1,.06.06l.35.52h.6a.15.15,0,0,1,.13.14.16.16,0,0,1,0,.09l-.36.49.19.6a.13.13,0,0,1-.09.17.11.11,0,0,1-.08,0Z"/><path class="cls-5" d="M25,8.69l-.62.08c-.17,0-.23.09-.24.21,0,.31.39.23.19,1.07l-.42,1.82L23,10.23c-.38-.71.08-.77,0-1.09C23,9,22.87,9,22.7,9l-1.21.17c-.16,0-.23.09-.23.21,0,.29.29.17.73,1l1.12,2c.22.41.35.42.71.37s.44-.16.53-.53c0-.12.29-1.35.5-2.3s.51-.84.46-1.15C25.3,8.7,25.17,8.66,25,8.69Z"/><path class="cls-5" d="M27.53,8.29a1.89,1.89,0,0,0-1.7,2.25,2,2,0,1,0,4-.55A1.89,1.89,0,0,0,27.53,8.29ZM28,11.75c-.51.07-.89-.49-1-1.37s.1-1.52.61-1.6.89.5,1,1.37S28.52,11.68,28,11.75Z"/><path class="cls-5" d="M33.77,8.58c-.07-.24-.18-.54-.25-.76s-.17-.31-.4-.27l-2.62.36c-.23,0-.32.13-.32.38s0,.55,0,.79a.22.22,0,0,0,.25.25c.25,0,.33-.33.41-.55a.62.62,0,0,1,.56-.45l.29,2.1c.05.38.08.57,0,.72s-.15.3-.13.39.11.16.28.13l1.08-.15c.17,0,.24-.09.23-.2s0-.17-.22-.35-.16-.3-.21-.69l-.3-2.1a.66.66,0,0,1,.67.29c.13.19.29.44.54.4A.2.2,0,0,0,33.77,8.58Z"/><path class="cls-5" d="M37.48,9.49c-.26,0-.34.31-.42.53a.62.62,0,0,1-.56.46h-.07c-.37.06-.5,0-.59-.65l-.06-.47a.67.67,0,0,1,.4,0c.16.11.21.22.32.21s.13-.17.11-.34l-.08-.57c0-.17-.05-.32-.19-.3s-.13.14-.26.29-.2.11-.38.15l-.05-.39c-.09-.6,0-.73.35-.79a.65.65,0,0,1,.66.29c.13.19.3.44.55.41s.21-.13.16-.3l-.24-.76A.32.32,0,0,0,36.72,7l-2.31.32c-.16,0-.23.09-.22.21s.05.16.22.34.15.31.21.69L34.81,10c0,.39.08.57,0,.73s-.14.29-.13.39.11.15.28.13l2.42-.34c.22,0,.31-.12.31-.36s0-.56,0-.81S37.61,9.47,37.48,9.49Z"/><path class="cls-6" d="M31,19.54a9.63,9.63,0,1,0-10.87-8.2A9.62,9.62,0,0,0,31,19.54Zm.05.37A10,10,0,1,0,19.78,11.4,10,10,0,0,0,31.07,19.91Z"/></svg>