<svg id="Layer_1" data-name="Layer 1" xmlns="http://www.w3.org/2000/svg" viewBox="0 0 101.36 66.88"><defs><style>.cls-1{fill:#ffad43;}.cls-2{fill:#dd0031;}.cls-3{fill:#fff;}.cls-4{fill:#007ae5;}.cls-5,.cls-6{fill:#0e1e25;}.cls-6{fill-opacity:0.12;fill-rule:evenodd;}</style></defs><path class="cls-1" d="M86.48,42.56,81.2,40.24l.88,5.28-4.24,4.64L80.72,64l4.4,2.88,16.24-12.24-7.68-9ZM68.4,35.36l-.48-1.68L65.76,35l.8.48Zm-6.32-4.48.56-2.56-3.84-.48,1.52,3Zm5.6-5.44-2.32,2.24,5.44,6.48,7.76-2.72-4.48-4.16-4.56.8Zm-12-3.84-1,2.48L65.36,22.8H62.08ZM43.12,14.24,42,11.92l-5.84,2.8L39.28,20l2.08-1.6,5.44,2.32-.48-3.44ZM.32,10l2.4-2.32L3,5.92,0,8.32ZM16,1.76l-4.24-.08L7.84,5.6l6.4,3.2Z"/><path class="cls-2" d="M87.35,5.23,68.79,7.84A10,10,0,0,1,87.35,5.23Z"/><path class="cls-3" d="M88.33,12.17a9.86,9.86,0,0,0,.13-3.56,9.82,9.82,0,0,0-1.11-3.38L68.79,7.84a10.08,10.08,0,0,0,1,6.93Z"/><path class="cls-4" d="M88.33,12.17a10,10,0,0,1-18.56,2.6Z"/><path class="cls-3" d="M73.87,5.39l-.49.37a.13.13,0,0,1-.18,0,.15.15,0,0,1,0-.09V5l-.49-.37a.14.14,0,0,1,0-.19s0,0,.07,0l.58-.18.19-.59a.12.12,0,0,1,.16-.09.18.18,0,0,1,.07,0l.34.53h.6a.14.14,0,0,1,.14.14.11.11,0,0,1,0,.08l-.37.5.19.6a.14.14,0,0,1-.08.17h-.09Z"/><path class="cls-3" d="M77.73,4.09l-.49.37a.13.13,0,0,1-.18,0,.16.16,0,0,1,0-.09l0-.63-.49-.37a.14.14,0,0,1,0-.19s0,0,.07,0l.58-.18.18-.59a.13.13,0,0,1,.17-.09.15.15,0,0,1,.06,0l.35.53h.6a.14.14,0,0,1,.13.14.19.19,0,0,1,0,.08l-.37.5.19.6a.14.14,0,0,1-.09.17.11.11,0,0,1-.08,0Z"/><path class="cls-3" d="M81.8,4.28l-.49.37a.13.13,0,0,1-.19,0,.19.19,0,0,1,0-.08V3.9l-.49-.38a.14.14,0,0,1,0-.19.15.15,0,0,1,.06-.05l.58-.17.19-.6a.13.13,0,0,1,.23,0L82,3h.61a.13.13,0,0,1,.13.14.11.11,0,0,1,0,.08l-.36.5.18.6a.13.13,0,0,1-.08.17h-.08Z"/><path class="cls-3" d="M75.54,17.28l-.49.37a.13.13,0,0,1-.18,0,.11.11,0,0,1,0-.08V16.9l-.49-.38a.14.14,0,0,1,0-.19.18.18,0,0,1,.07,0l.58-.17.19-.6a.13.13,0,0,1,.23,0l.34.52h.61a.13.13,0,0,1,.13.14.11.11,0,0,1,0,.08l-.37.5.19.6a.13.13,0,0,1-.08.17.14.14,0,0,1-.09,0Z"/><path class="cls-3" d="M79.57,17.22l-.48.36a.13.13,0,0,1-.19,0,.19.19,0,0,1,0-.08v-.63l-.49-.38a.14.14,0,0,1,0-.19.18.18,0,0,1,.07-.05l.58-.17.19-.6a.13.13,0,0,1,.16-.09.13.13,0,0,1,.07.06l.34.52h.61a.13.13,0,0,1,.13.14.13.13,0,0,1,0,.08l-.37.49.19.61a.14.14,0,0,1-.08.17.1.1,0,0,1-.09,0Z"/><path class="cls-3" d="M83.47,16.17l-.49.36a.12.12,0,0,1-.18,0,.13.13,0,0,1,0-.08v-.63l-.48-.38a.13.13,0,0,1,0-.19s0,0,.06-.05l.58-.17.19-.6a.13.13,0,0,1,.16-.09.11.11,0,0,1,.07.06l.34.52h.61a.15.15,0,0,1,.13.14.16.16,0,0,1,0,.09l-.36.49.18.6a.12.12,0,0,1-.08.17.11.11,0,0,1-.08,0Z"/><path class="cls-5" d="M73.88,8.69l-.63.08c-.16,0-.22.09-.23.21,0,.31.38.23.19,1.07l-.42,1.82-.88-1.64c-.38-.71.08-.77,0-1.09,0-.11-.14-.15-.31-.13l-1.21.17c-.16,0-.23.09-.23.21,0,.29.29.17.73,1l1.12,2c.22.41.35.42.71.37s.44-.16.52-.53c0-.12.3-1.35.51-2.3s.51-.84.46-1.15C74.18,8.7,74.05,8.66,73.88,8.69Z"/><path class="cls-5" d="M76.41,8.29a1.89,1.89,0,0,0-1.7,2.25,2,2,0,1,0,4-.55A1.89,1.89,0,0,0,76.41,8.29Zm.48,3.46c-.51.07-.89-.49-1-1.37s.09-1.52.61-1.6.89.5,1,1.37S77.4,11.68,76.89,11.75Z"/><path class="cls-5" d="M82.65,8.58l-.25-.76c-.07-.24-.17-.31-.4-.27l-2.62.36c-.23,0-.32.13-.32.38s0,.55,0,.79.1.26.25.25.33-.33.41-.55a.62.62,0,0,1,.55-.45l.3,2.1a1.38,1.38,0,0,1,0,.72c-.12.22-.15.3-.13.39s.11.16.28.13l1.08-.15c.17,0,.24-.09.23-.2s-.06-.17-.23-.35-.15-.3-.2-.69l-.3-2.1a.66.66,0,0,1,.67.29c.13.19.29.44.54.4A.2.2,0,0,0,82.65,8.58Z"/><path class="cls-5" d="M86.36,9.49c-.26,0-.34.31-.42.53a.62.62,0,0,1-.56.46h-.07c-.37.06-.5,0-.59-.65l-.06-.47a.67.67,0,0,1,.4,0c.16.11.2.22.32.21s.13-.17.11-.34l-.08-.57c0-.17,0-.32-.2-.3s-.13.14-.25.29a.71.71,0,0,1-.38.15l0-.39c-.09-.6,0-.73.35-.79a.65.65,0,0,1,.66.29c.13.19.29.44.54.41s.22-.13.17-.3L86,7.31A.32.32,0,0,0,85.6,7l-2.31.32c-.16,0-.23.09-.22.21s.05.16.22.34.15.31.21.69L83.69,10a1.42,1.42,0,0,1,0,.73c-.12.21-.15.29-.13.39s.11.15.28.13l2.42-.34c.22,0,.31-.12.31-.36s0-.56,0-.81S86.49,9.47,86.36,9.49Z"/><path class="cls-6" d="M79.9,19.54A9.63,9.63,0,1,0,69,11.34,9.63,9.63,0,0,0,79.9,19.54Zm0,.37A10,10,0,1,0,68.66,11.4,10,10,0,0,0,80,19.91Z"/></svg>