<svg id="Layer_1" data-name="Layer 1" xmlns="http://www.w3.org/2000/svg" viewBox="0 0 73.76 56.12"><defs><style>.cls-1{fill:#ffad43;}.cls-2{fill:#dd0031;}.cls-3{fill:#fff;}.cls-4{fill:#007ae5;}.cls-5,.cls-6{fill:#0e1e25;}.cls-6{fill-opacity:0.12;fill-rule:evenodd;}</style></defs><path class="cls-1" d="M68,23.32,67.2,21l-3.6-.8-.8-1-1.28-5.76,1-2.4-1.28-.64-.8-2.24-29,.32L.8,8.12,1.36,10,.8,12.12l1,.4.4,1.36L0,19.64,1,21l.48,2.24.88.4.56,4.64,2.08,3v1.36L5.76,34l-.4,4.16,1.2.24v.88l1,.32-.72,2L8,42l-.72,1.6.8.56-.4,1.68.64,2.64-.48,2.48L8.8,52v1l20.56.64,26.72-.8L59,56l1.36.08-.4-2.72,2.88-1.68L63.6,49l1.68-2.08-.4-2.16L63.2,43.24l.8-3,3.6-.56,3.12-1.44,1-1L72,34.84l1.36-1.2.4-3.2-.24-1-2.8-2.08-.48-1.84L68,24Z"/><path class="cls-2" d="M70,5.23,51.43,7.84A10,10,0,0,1,70,5.23Z"/><path class="cls-3" d="M71,12.17a9.86,9.86,0,0,0,.14-3.56A10,10,0,0,0,70,5.23L51.43,7.84a10,10,0,0,0,1,6.93Z"/><path class="cls-4" d="M71,12.17a10,10,0,0,1-18.56,2.6Z"/><path class="cls-3" d="M56.51,5.39,56,5.76a.13.13,0,0,1-.18,0,.16.16,0,0,1,0-.09l0-.63-.49-.37a.13.13,0,0,1,0-.19.08.08,0,0,1,.07,0L56,4.22l.19-.59a.13.13,0,0,1,.17-.09.15.15,0,0,1,.06,0l.35.53h.6a.14.14,0,0,1,.13.14.11.11,0,0,1,0,.08l-.36.5.19.6a.14.14,0,0,1-.09.17h-.08Z"/><path class="cls-3" d="M60.36,4.09l-.48.37a.14.14,0,0,1-.19,0,.29.29,0,0,1,0-.09V3.71l-.49-.37a.15.15,0,0,1,0-.19.1.1,0,0,1,.07,0l.58-.18L60,2.33a.12.12,0,0,1,.16-.09.18.18,0,0,1,.07,0l.34.53h.61a.14.14,0,0,1,.13.14.11.11,0,0,1,0,.08l-.36.5.18.6a.13.13,0,0,1-.08.17.14.14,0,0,1-.09,0Z"/><path class="cls-3" d="M64.43,4.28l-.49.37a.12.12,0,0,1-.18,0,.11.11,0,0,1,0-.08l0-.63-.49-.38a.14.14,0,0,1,0-.19.18.18,0,0,1,.07-.05l.58-.17.18-.6a.13.13,0,0,1,.17-.08.12.12,0,0,1,.07,0l.34.52h.6a.14.14,0,0,1,.14.14.11.11,0,0,1,0,.08l-.37.5.19.6a.14.14,0,0,1-.08.17H65Z"/><path class="cls-3" d="M58.18,17.28l-.49.37a.13.13,0,0,1-.18,0,.11.11,0,0,1,0-.08l0-.63L57,16.52a.13.13,0,0,1,0-.19.13.13,0,0,1,.07,0l.58-.17.18-.6a.13.13,0,0,1,.17-.08s.05,0,.06.05l.35.52H59a.13.13,0,0,1,.13.14.19.19,0,0,1,0,.08l-.37.5.19.6a.14.14,0,0,1-.09.17.11.11,0,0,1-.08,0Z"/><path class="cls-3" d="M62.21,17.22l-.49.36a.12.12,0,0,1-.18,0,.11.11,0,0,1,0-.08l0-.63L61,16.46a.14.14,0,0,1,0-.19.18.18,0,0,1,.07-.05l.58-.17.18-.6a.14.14,0,0,1,.17-.09.12.12,0,0,1,.06.06l.35.52H63a.13.13,0,0,1,.13.14.24.24,0,0,1,0,.08l-.37.49.19.61a.14.14,0,0,1-.09.17.08.08,0,0,1-.08,0Z"/><path class="cls-3" d="M66.1,16.17l-.49.36a.12.12,0,0,1-.18,0,.08.08,0,0,1,0-.08v-.63l-.49-.38a.14.14,0,0,1,0-.19.12.12,0,0,1,.07-.05l.58-.17.18-.6a.14.14,0,0,1,.17-.09.13.13,0,0,1,.07.06l.34.52h.6a.15.15,0,0,1,.14.14.16.16,0,0,1,0,.09l-.37.49.19.6a.13.13,0,0,1-.17.17Z"/><path class="cls-5" d="M56.51,8.69l-.62.08c-.17,0-.22.09-.23.21,0,.31.38.23.19,1.07l-.42,1.82-.88-1.64c-.38-.71.07-.77,0-1.09,0-.11-.15-.15-.31-.13L53,9.18c-.17,0-.24.09-.23.21,0,.29.28.17.72,1s1.07,2,1.12,2c.22.41.36.42.72.37s.43-.16.52-.53c0-.12.3-1.35.51-2.3s.5-.84.46-1.15C56.81,8.7,56.68,8.66,56.51,8.69Z"/><path class="cls-5" d="M59,8.29a1.89,1.89,0,0,0-1.69,2.25A2,2,0,1,0,61.29,10,1.88,1.88,0,0,0,59,8.29Zm.49,3.46c-.51.07-.9-.49-1-1.37s.09-1.52.6-1.6.9.5,1,1.37S60,11.68,59.53,11.75Z"/><path class="cls-5" d="M65.28,8.58c-.07-.24-.17-.54-.24-.76s-.18-.31-.41-.27L62,7.91c-.23,0-.31.13-.32.38s0,.55,0,.79a.21.21,0,0,0,.24.25c.25,0,.33-.33.41-.55a.64.64,0,0,1,.56-.45l.29,2.1c.06.38.08.57,0,.72s-.15.3-.12.39.1.16.27.13l1.08-.15c.17,0,.24-.09.24-.2s-.06-.17-.23-.35-.15-.3-.21-.69l-.29-2.1a.65.65,0,0,1,.66.29c.14.19.3.44.55.4S65.33,8.74,65.28,8.58Z"/><path class="cls-5" d="M69,9.49c-.25,0-.33.31-.41.53a.64.64,0,0,1-.56.46H68c-.38.06-.5,0-.59-.65l-.07-.47a.72.72,0,0,1,.41,0c.16.11.2.22.32.21s.12-.17.1-.34L68,8.71c0-.17,0-.32-.19-.3s-.13.14-.25.29a.71.71,0,0,1-.38.15l-.06-.39c-.08-.6,0-.73.36-.79a.63.63,0,0,1,.65.29c.14.19.3.44.55.41s.21-.13.16-.3l-.24-.76A.32.32,0,0,0,68.23,7l-2.3.32c-.16,0-.24.09-.23.21s.06.16.23.34.15.31.2.69L66.32,10c.06.39.08.57,0,.73s-.14.29-.12.39.11.15.27.13l2.42-.34c.22,0,.31-.12.32-.36s0-.56,0-.81S69.13,9.47,69,9.49Z"/><path class="cls-6" d="M62.54,19.54a9.63,9.63,0,1,0-10.88-8.2A9.63,9.63,0,0,0,62.54,19.54Zm.05.37a10,10,0,1,0-11.3-8.51A10,10,0,0,0,62.59,19.91Z"/></svg>