<svg id="Layer_1" data-name="Layer 1" xmlns="http://www.w3.org/2000/svg" viewBox="0 0 40.08 70.52"><defs><style>.cls-1{fill:#ffad43;}.cls-2{fill:#dd0031;}.cls-3{fill:#fff;}.cls-4{fill:#007ae5;}.cls-5,.cls-6{fill:#0e1e25;}.cls-6{fill-opacity:0.12;fill-rule:evenodd;}</style></defs><path class="cls-1" d="M39.68,48,37.6,45.64l-.8,1,.32.88L32,47.4l-.88,1L28.88,48l-.72,1.12-.88-.88-1-2.88-1.2-.08-.72-.72V43.24L22.72,40.6,22.16,38l-1-.88L19.12,39l-1.6-.88.4-1.2-.4-.64,1-.88-.64-2.56.4-.24.88-4.4-1.6.16L17,27.48l-.72.32L13.2,22.68,10.8,21l.4-.4L10.8,20,11,18.6,9,15.72l.48-8.8-5.92-.4L2.08,30l1.2,4.32L4.8,35.88l.72,1.44L2.64,42.44l-.16,1.28L0,47.16v1.68l1.36.4L2,50l-1.2,3L0,69.64l20,.8,20.08.08Z"/><path class="cls-2" d="M23.76,5.23,5.2,7.84A10,10,0,0,1,23.76,5.23Z"/><path class="cls-3" d="M24.73,12.17a9.86,9.86,0,0,0,.14-3.56,10,10,0,0,0-1.11-3.38L5.2,7.84a10,10,0,0,0,1,6.93Z"/><path class="cls-4" d="M24.73,12.17a10,10,0,0,1-18.56,2.6Z"/><path class="cls-3" d="M10.28,5.39l-.49.37a.13.13,0,0,1-.18,0,.16.16,0,0,1,0-.09L9.6,5l-.49-.37a.13.13,0,0,1,0-.19.08.08,0,0,1,.07,0l.57-.18.19-.59a.13.13,0,0,1,.17-.09.15.15,0,0,1,.06,0l.35.53h.6a.14.14,0,0,1,.13.14.11.11,0,0,1,0,.08l-.36.5.19.6a.14.14,0,0,1-.09.17h-.08Z"/><path class="cls-3" d="M14.13,4.09l-.48.37a.14.14,0,0,1-.19,0,.29.29,0,0,1,0-.09V3.71L13,3.34a.14.14,0,0,1,0-.19.1.1,0,0,1,.07,0l.58-.18.19-.59a.12.12,0,0,1,.16-.09.18.18,0,0,1,.07,0l.34.53H15a.14.14,0,0,1,.13.14.11.11,0,0,1,0,.08l-.36.5.18.6a.13.13,0,0,1-.08.17.14.14,0,0,1-.09,0Z"/><path class="cls-3" d="M18.2,4.28l-.49.37a.12.12,0,0,1-.18,0,.11.11,0,0,1,0-.08l0-.63L17,3.52a.14.14,0,0,1,0-.19.18.18,0,0,1,.07-.05l.58-.17.18-.6A.13.13,0,0,1,18,2.43a.12.12,0,0,1,.07,0l.34.52H19a.14.14,0,0,1,.14.14.11.11,0,0,1,0,.08l-.37.5.19.6a.14.14,0,0,1-.08.17h-.09Z"/><path class="cls-3" d="M12,17.28l-.49.37a.13.13,0,0,1-.18,0,.11.11,0,0,1,0-.08l0-.63-.49-.38a.13.13,0,0,1,0-.19.13.13,0,0,1,.07,0l.57-.17.19-.6a.13.13,0,0,1,.17-.08s.05,0,.06.05l.35.52h.6a.13.13,0,0,1,.13.14.11.11,0,0,1,0,.08l-.36.5.19.6a.14.14,0,0,1-.09.17.11.11,0,0,1-.08,0Z"/><path class="cls-3" d="M16,17.22l-.49.36a.12.12,0,0,1-.18,0,.11.11,0,0,1,0-.08l0-.63-.49-.38a.14.14,0,0,1,0-.19.18.18,0,0,1,.07-.05l.58-.17.18-.6a.14.14,0,0,1,.17-.09.12.12,0,0,1,.06.06l.35.52h.6a.13.13,0,0,1,.13.14.24.24,0,0,1,0,.08l-.37.49.19.61a.14.14,0,0,1-.09.17.08.08,0,0,1-.08,0Z"/><path class="cls-3" d="M19.87,16.17l-.49.36a.12.12,0,0,1-.18,0,.08.08,0,0,1,0-.08v-.63l-.49-.38a.14.14,0,0,1,0-.19.12.12,0,0,1,.07-.05l.58-.17.18-.6a.14.14,0,0,1,.17-.09.13.13,0,0,1,.07.06l.34.52h.6a.15.15,0,0,1,.14.14.16.16,0,0,1,0,.09l-.37.49.19.6a.13.13,0,0,1-.17.17Z"/><path class="cls-5" d="M10.28,8.69l-.62.08c-.17,0-.22.09-.23.21,0,.31.38.23.19,1.07L9.2,11.87l-.88-1.64c-.38-.71.07-.77,0-1.09C8.27,9,8.15,9,8,9l-1.21.17c-.17,0-.24.09-.23.21,0,.29.28.17.72,1s1.07,2,1.12,2c.22.41.36.42.72.37s.43-.16.52-.53c0-.12.3-1.35.51-2.3s.5-.84.46-1.15C10.58,8.7,10.45,8.66,10.28,8.69Z"/><path class="cls-5" d="M12.81,8.29a1.89,1.89,0,0,0-1.69,2.25,1.9,1.9,0,0,0,2.25,1.71A1.9,1.9,0,0,0,15.06,10,1.88,1.88,0,0,0,12.81,8.29Zm.49,3.46c-.51.07-.9-.49-1-1.37s.09-1.52.6-1.6.9.5,1,1.37S13.81,11.68,13.3,11.75Z"/><path class="cls-5" d="M19.05,8.58c-.07-.24-.17-.54-.24-.76s-.18-.31-.41-.27l-2.62.36c-.23,0-.31.13-.32.38s0,.55,0,.79a.21.21,0,0,0,.24.25c.25,0,.33-.33.41-.55a.64.64,0,0,1,.56-.45l.29,2.1c.06.38.08.57,0,.72s-.15.3-.12.39.1.16.27.13l1.08-.15c.17,0,.24-.09.24-.2s-.06-.17-.23-.35-.15-.3-.21-.69l-.29-2.1a.65.65,0,0,1,.66.29c.14.19.3.44.55.4S19.1,8.74,19.05,8.58Z"/><path class="cls-5" d="M22.76,9.49c-.25,0-.34.31-.42.53a.62.62,0,0,1-.55.46h-.07c-.38.06-.5,0-.59-.65l-.07-.47a.72.72,0,0,1,.41,0c.16.11.2.22.32.21s.12-.17.1-.34l-.08-.57c0-.17,0-.32-.19-.3s-.13.14-.25.29a.71.71,0,0,1-.38.15l-.06-.39c-.08-.6,0-.73.36-.79a.63.63,0,0,1,.65.29c.14.19.3.44.55.41s.21-.13.16-.3l-.24-.76A.32.32,0,0,0,22,7l-2.3.32c-.16,0-.24.09-.23.21s.06.16.23.34.15.31.2.69L20.09,10c.06.39.08.57,0,.73S20,11,20,11.1s.11.15.27.13l2.42-.34c.22,0,.31-.12.32-.36s0-.56,0-.81S22.9,9.47,22.76,9.49Z"/><path class="cls-6" d="M16.3,19.54a9.63,9.63,0,1,0-10.87-8.2A9.63,9.63,0,0,0,16.3,19.54Zm.06.37A10,10,0,1,0,5.06,11.4,10,10,0,0,0,16.36,19.91Z"/></svg>