<svg id="Layer_1" data-name="Layer 1" xmlns="http://www.w3.org/2000/svg" viewBox="0 0 44.74 71.62"><defs><style>.cls-1{fill:#ffad43;}.cls-2{fill:#dd0031;}.cls-3{fill:#fff;}.cls-4{fill:#007ae5;}.cls-5,.cls-6{fill:#0e1e25;}.cls-6{fill-opacity:0.12;fill-rule:evenodd;}</style></defs><path class="cls-1" d="M33,7.22l-24.4-.4,1.68,1.76.16,1.36,2.08,1.68-.32,3.12L9.92,18.18,7.68,19.3l-3,.16-.64,2.08,1,1.36.24,1.68L3.36,28,1.2,29.14l.08,2.16-1,.4L0,32.82l.16,3,1,3.36,5.2,5.28,1,4.32.64.4,1.44-.88,2.56,1.28-.4,2.56L9.76,55.62,9.84,57,12,59.38l1.76.72,3.76,3.36v1.68l.48,1.6-.48,1.44,1,2.48,1.12.64-.32-.72.4-.16,1,1.2H21l-.48-1,1.68-1.84,4.4,1.84.72-.24L27,66.82l3.6-1.2L30,63.94l1-1.52-.48-.72H31l-.48-.8H31V59.06l.88-.32-.64-.16.88-.88L31.44,57,32,56.1l.72.32,1-2.08,1-.48-.16-.72L36,50.74l-.24-2.16L34.4,46.66l.8-1-.32-1.36.88-.32-.08-27.76L33,10.26Z"/><path class="cls-2" d="M43.53,5.23,25,7.84A10,10,0,0,1,43.53,5.23Z"/><path class="cls-3" d="M44.5,12.17a10,10,0,0,0-1-6.94L25,7.84a9.86,9.86,0,0,0-.14,3.56,10.06,10.06,0,0,0,1.11,3.37Z"/><path class="cls-4" d="M44.5,12.17a10,10,0,0,1-18.56,2.6Z"/><path class="cls-3" d="M30.05,5.39l-.49.37a.14.14,0,0,1-.19,0,.29.29,0,0,1,0-.09V5l-.49-.37a.14.14,0,0,1,0-.19.07.07,0,0,1,.06,0l.58-.18.19-.59a.12.12,0,0,1,.16-.09.13.13,0,0,1,.07,0l.34.53h.61a.14.14,0,0,1,.13.14.11.11,0,0,1,0,.08l-.36.5.18.6a.13.13,0,0,1-.08.17h-.08Z"/><path class="cls-3" d="M33.9,4.09l-.48.37a.14.14,0,0,1-.19,0,.29.29,0,0,1,0-.09V3.71l-.49-.37a.14.14,0,0,1,0-.19s0,0,.07,0l.58-.18.19-.59a.12.12,0,0,1,.16-.09.18.18,0,0,1,.07,0l.34.53h.61a.14.14,0,0,1,.13.14.11.11,0,0,1,0,.08l-.37.5.19.6a.13.13,0,0,1-.08.17.14.14,0,0,1-.09,0Z"/><path class="cls-3" d="M38,4.28l-.49.37a.12.12,0,0,1-.18,0,.11.11,0,0,1,0-.08l0-.63-.49-.38a.14.14,0,0,1,0-.19.18.18,0,0,1,.07-.05l.58-.17.18-.6a.13.13,0,0,1,.17-.08.12.12,0,0,1,.07,0l.34.52h.6a.13.13,0,0,1,.13.14.19.19,0,0,1,0,.08l-.37.5.19.6a.14.14,0,0,1-.09.17h-.08Z"/><path class="cls-3" d="M31.72,17.28l-.49.37a.13.13,0,0,1-.18,0,.11.11,0,0,1,0-.08V16.9l-.48-.38a.13.13,0,0,1,0-.19.15.15,0,0,1,.06,0l.58-.17.19-.6a.12.12,0,0,1,.16-.08s.06,0,.07.05l.35.52h.6a.13.13,0,0,1,.13.14.11.11,0,0,1,0,.08l-.36.5.18.6a.13.13,0,0,1-.08.17.11.11,0,0,1-.08,0Z"/><path class="cls-3" d="M35.75,17.22l-.49.36a.12.12,0,0,1-.18,0,.11.11,0,0,1,0-.08l0-.63-.49-.38a.14.14,0,0,1,0-.19.13.13,0,0,1,.07-.05l.58-.17.18-.6a.14.14,0,0,1,.17-.09.12.12,0,0,1,.06.06l.35.52h.6a.13.13,0,0,1,.13.14.24.24,0,0,1,0,.08l-.37.49.19.61a.14.14,0,0,1-.09.17.08.08,0,0,1-.08,0Z"/><path class="cls-3" d="M39.64,16.17l-.49.36a.12.12,0,0,1-.18,0,.13.13,0,0,1,0-.08l0-.63-.49-.38a.14.14,0,0,1,0-.19.12.12,0,0,1,.07-.05l.58-.17.18-.6a.14.14,0,0,1,.17-.09.13.13,0,0,1,.07.06l.34.52h.6a.14.14,0,0,1,.13.14.15.15,0,0,1,0,.09l-.37.49.19.6a.13.13,0,0,1-.09.17.11.11,0,0,1-.08,0Z"/><path class="cls-5" d="M30.05,8.69l-.62.08c-.17,0-.22.09-.23.21,0,.31.38.23.19,1.07L29,11.87l-.88-1.64c-.39-.71.07-.77,0-1.09C28,9,27.92,9,27.75,9l-1.2.17c-.17,0-.24.09-.23.21,0,.29.28.17.72,1s1.07,2,1.12,2c.22.41.36.42.71.37s.44-.16.53-.53c0-.12.3-1.35.51-2.3s.5-.84.46-1.15C30.35,8.7,30.22,8.66,30.05,8.69Z"/><path class="cls-5" d="M32.58,8.29a1.89,1.89,0,0,0-1.7,2.25A2,2,0,1,0,34.83,10,1.88,1.88,0,0,0,32.58,8.29Zm.49,3.46c-.51.07-.9-.49-1-1.37s.09-1.52.6-1.6.89.5,1,1.37S33.58,11.68,33.07,11.75Z"/><path class="cls-5" d="M38.82,8.58c-.07-.24-.17-.54-.25-.76s-.17-.31-.4-.27l-2.62.36c-.23,0-.31.13-.32.38s0,.55,0,.79a.21.21,0,0,0,.24.25c.25,0,.33-.33.41-.55a.64.64,0,0,1,.56-.45l.29,2.1c.06.38.08.57,0,.72s-.15.3-.12.39.1.16.27.13l1.08-.15c.17,0,.24-.09.23-.2s-.05-.17-.22-.35-.15-.3-.21-.69l-.29-2.1a.65.65,0,0,1,.66.29c.13.19.3.44.55.4S38.87,8.74,38.82,8.58Z"/><path class="cls-5" d="M42.53,9.49c-.25,0-.34.31-.42.53a.62.62,0,0,1-.55.46h-.07c-.38.06-.51,0-.59-.65l-.07-.47a.67.67,0,0,1,.4,0c.16.11.21.22.33.21s.12-.17.1-.34l-.08-.57c0-.17,0-.32-.19-.3s-.13.14-.25.29a.71.71,0,0,1-.38.15l-.06-.39c-.08-.6,0-.73.36-.79a.63.63,0,0,1,.65.29c.14.19.3.44.55.41s.21-.13.16-.3l-.24-.76A.32.32,0,0,0,41.77,7l-2.3.32c-.17,0-.24.09-.23.21s.06.16.23.34a1.31,1.31,0,0,1,.2.69L39.86,10c.06.39.08.57,0,.73s-.14.29-.12.39.11.15.27.13l2.42-.34c.22,0,.31-.12.31-.36s0-.56,0-.81S42.67,9.47,42.53,9.49Z"/><path class="cls-6" d="M36.07,19.54a9.63,9.63,0,1,0-10.87-8.2A9.63,9.63,0,0,0,36.07,19.54Zm.06.37a10,10,0,1,0-11.3-8.51A10,10,0,0,0,36.13,19.91Z"/></svg>