<svg id="Layer_1" data-name="Layer 1" xmlns="http://www.w3.org/2000/svg" viewBox="0 0 52.18 71.89"><defs><style>.cls-1{fill:#ffad43;}.cls-2{fill:#dd0031;}.cls-3{fill:#fff;}.cls-4{fill:#007ae5;}.cls-5,.cls-6{fill:#0e1e25;}.cls-6{fill-opacity:0.12;fill-rule:evenodd;}</style></defs><path class="cls-1" d="M42.24,8v-.8l-25-.08L14.8,8.37l-3,.8-1.6-.32L10.16,8l-.4.4-.88-.88L8,46.13l-1.12.56L7,48.61l-.8,1.44,1.6,2.64L7.6,54.05l.48,2L6,59l.08,1.28-1.52.48.08.56L3.52,63.41l-.24-.32-.48.64-.48-.32L1.6,64.53l.72,1-1.2,1,.8.32-.88.4v2.4L0,70l1,1-.88.32L2,71.81l.56-.72L2.32,70l.24-.4L4,70.13,5.6,70v1.12h.64l.48-1-.08-1.28.48.88L9,69.33l3.36,1.76.48.8,1.36-2.16,2.56-1.2.48,1.2,1.6.4-.08.48.4.4.48-1,.88-.32.08-1.84.8-.4-.08-1.28.48.72,1.28-.8-.88-.64L23.6,66l.32,1.52,2.72,1.76,1.52-1.12.32-2.48,1-1.76.8.32,1.44-.72.8-2.4,1-.16,1.28-1.52-.48-2.64,2.48-.24,1,.64,3-1.68h1.76L42.8,54l-1.12-.32.72-1.12-.72-1.36.72-.56Z"/><path class="cls-2" d="M51,5.23,32.41,7.84A10,10,0,0,1,51,5.23Z"/><path class="cls-3" d="M52,12.17a10.09,10.09,0,0,0,.13-3.56A9.82,9.82,0,0,0,51,5.23L32.41,7.84a10,10,0,0,0,1,6.93Z"/><path class="cls-4" d="M52,12.17a10,10,0,0,1-18.57,2.6Z"/><path class="cls-3" d="M37.49,5.39,37,5.76a.13.13,0,0,1-.18,0,.16.16,0,0,1,0-.09l0-.63-.49-.37a.14.14,0,0,1,0-.19s0,0,.07,0l.58-.18.18-.59a.13.13,0,0,1,.17-.09.15.15,0,0,1,.06,0l.35.53h.6a.14.14,0,0,1,.13.14.19.19,0,0,1,0,.08l-.37.5.19.6a.14.14,0,0,1-.09.17h-.08Z"/><path class="cls-3" d="M41.35,4.09l-.49.37a.13.13,0,0,1-.18,0,.16.16,0,0,1,0-.09l0-.63-.49-.37a.13.13,0,0,1,0-.19.08.08,0,0,1,.07,0l.57-.18L41,2.33a.12.12,0,0,1,.16-.09.13.13,0,0,1,.07,0l.35.53h.6a.14.14,0,0,1,.13.14.11.11,0,0,1,0,.08l-.36.5.19.6a.14.14,0,0,1-.09.17.11.11,0,0,1-.08,0Z"/><path class="cls-3" d="M45.41,4.28l-.48.37a.13.13,0,0,1-.19,0,.19.19,0,0,1,0-.08V3.9l-.49-.38a.14.14,0,0,1,0-.19.18.18,0,0,1,.07-.05l.58-.17.19-.6a.13.13,0,0,1,.23,0l.34.52h.61a.13.13,0,0,1,.13.14.11.11,0,0,1,0,.08l-.37.5.19.6a.13.13,0,0,1-.08.17H46Z"/><path class="cls-3" d="M39.16,17.28l-.49.37a.13.13,0,0,1-.18,0,.11.11,0,0,1,0-.08l0-.63L38,16.52a.14.14,0,0,1,0-.19.18.18,0,0,1,.07,0l.58-.17.18-.6a.13.13,0,0,1,.17-.08.12.12,0,0,1,.07.05l.34.52H40a.13.13,0,0,1,.13.14.19.19,0,0,1,0,.08l-.37.5.19.6a.14.14,0,0,1-.09.17.11.11,0,0,1-.08,0Z"/><path class="cls-3" d="M43.19,17.22l-.49.36a.12.12,0,0,1-.18,0,.08.08,0,0,1,0-.08v-.63L42,16.46a.14.14,0,0,1,0-.19.18.18,0,0,1,.07-.05l.58-.17.18-.6a.14.14,0,0,1,.17-.09.13.13,0,0,1,.07.06l.34.52H44a.14.14,0,0,1,.14.14.13.13,0,0,1,0,.08l-.37.49.19.61a.15.15,0,0,1-.08.17.1.1,0,0,1-.09,0Z"/><path class="cls-3" d="M47.08,16.17l-.48.36a.13.13,0,0,1-.19,0,.24.24,0,0,1,0-.08v-.63l-.49-.38a.14.14,0,0,1,0-.19.12.12,0,0,1,.07-.05l.58-.17.19-.6a.13.13,0,0,1,.16-.09.13.13,0,0,1,.07.06l.34.52h.61A.15.15,0,0,1,48,15a.16.16,0,0,1,0,.09l-.37.49.19.6a.13.13,0,0,1-.08.17.14.14,0,0,1-.09,0Z"/><path class="cls-5" d="M37.5,8.69l-.63.08c-.17,0-.22.09-.23.21,0,.31.38.23.19,1.07l-.42,1.82-.88-1.64c-.38-.71.08-.77,0-1.09,0-.11-.14-.15-.31-.13L34,9.18c-.17,0-.24.09-.23.21,0,.29.28.17.73,1l1.12,2c.21.41.35.42.71.37s.44-.16.52-.53c0-.12.3-1.35.51-2.3s.5-.84.46-1.15C37.79,8.7,37.67,8.66,37.5,8.69Z"/><path class="cls-5" d="M40,8.29a1.89,1.89,0,0,0-1.69,2.25A2,2,0,1,0,42.27,10,1.88,1.88,0,0,0,40,8.29Zm.49,3.46c-.51.07-.9-.49-1-1.37s.09-1.52.6-1.6.9.5,1,1.37S41,11.68,40.51,11.75Z"/><path class="cls-5" d="M46.26,8.58c-.07-.24-.17-.54-.24-.76s-.18-.31-.41-.27L43,7.91c-.22,0-.31.13-.31.38s0,.55,0,.79.1.26.24.25.34-.33.42-.55a.62.62,0,0,1,.55-.45l.3,2.1c.05.38.07.57,0,.72s-.14.3-.12.39.11.16.27.13l1.09-.15c.16,0,.23-.09.23-.2s-.06-.17-.23-.35-.15-.3-.21-.69l-.29-2.1a.68.68,0,0,1,.67.29c.13.19.29.44.54.4S46.31,8.74,46.26,8.58Z"/><path class="cls-5" d="M50,9.49c-.26,0-.34.31-.42.53a.63.63,0,0,1-.56.46h-.07c-.37.06-.5,0-.59-.65l-.07-.47a.72.72,0,0,1,.41,0c.16.11.2.22.32.21s.13-.17.1-.34L49,8.71c0-.17,0-.32-.19-.3s-.13.14-.25.29a.71.71,0,0,1-.38.15l-.05-.39c-.09-.6,0-.73.35-.79a.66.66,0,0,1,.66.29c.13.19.29.44.54.41s.22-.13.16-.3-.16-.53-.24-.76-.18-.3-.4-.27l-2.31.32c-.16,0-.24.09-.22.21s.05.16.22.34.15.31.2.69l.2,1.38a1.29,1.29,0,0,1,0,.73c-.11.21-.14.29-.12.39s.11.15.27.13l2.42-.34c.23,0,.31-.12.32-.36s0-.56,0-.81S50.11,9.47,50,9.49Z"/><path class="cls-6" d="M43.52,19.54a9.63,9.63,0,1,0-10.88-8.2A9.63,9.63,0,0,0,43.52,19.54Zm0,.37a10,10,0,1,0-11.3-8.51A10,10,0,0,0,43.57,19.91Z"/></svg>