<svg id="Layer_1" data-name="Layer 1" xmlns="http://www.w3.org/2000/svg" viewBox="0 0 89.76 57.6"><defs><style>.cls-1{fill:#ffad43;}.cls-2{fill:#dd0031;}.cls-3{fill:#fff;}.cls-4{fill:#007ae5;}.cls-5,.cls-6{fill:#0e1e25;}.cls-6{fill-opacity:0.12;fill-rule:evenodd;}</style></defs><path class="cls-1" d="M89.76,56.88l-1-32.32L86,23.44,85,21l-2.32-2.24,1.44-3,1.12-.08L84.16,13.2l-1.44.64-2.56-2.08-39,.48L2,11.2,0,56.64l45,1Z"/><path class="cls-2" d="M81.9,5.23,63.34,7.84A10,10,0,0,1,81.9,5.23Z"/><path class="cls-3" d="M82.88,12.17A10.09,10.09,0,0,0,83,8.61,9.82,9.82,0,0,0,81.9,5.23L63.34,7.84a10,10,0,0,0,1,6.93Z"/><path class="cls-4" d="M82.88,12.17a10,10,0,0,1-18.57,2.6Z"/><path class="cls-3" d="M68.42,5.39l-.49.37a.13.13,0,0,1-.18,0,.16.16,0,0,1,0-.09l0-.63-.49-.37a.14.14,0,0,1,0-.19s0,0,.07,0l.58-.18.18-.59a.13.13,0,0,1,.17-.09.15.15,0,0,1,.06,0l.35.53h.6a.14.14,0,0,1,.13.14.19.19,0,0,1,0,.08l-.37.5.19.6a.14.14,0,0,1-.09.17H69Z"/><path class="cls-3" d="M72.28,4.09l-.49.37a.13.13,0,0,1-.18,0,.16.16,0,0,1,0-.09V3.71l-.48-.37a.13.13,0,0,1,0-.19.07.07,0,0,1,.06,0l.58-.18.19-.59a.12.12,0,0,1,.16-.09.13.13,0,0,1,.07,0l.35.53h.6a.14.14,0,0,1,.13.14.11.11,0,0,1,0,.08l-.36.5.18.6a.13.13,0,0,1-.08.17.11.11,0,0,1-.08,0Z"/><path class="cls-3" d="M76.34,4.28l-.49.37a.12.12,0,0,1-.18,0,.11.11,0,0,1,0-.08V3.9l-.49-.38a.14.14,0,0,1,0-.19.18.18,0,0,1,.07-.05l.58-.17.19-.6a.13.13,0,0,1,.23,0l.34.52h.61a.13.13,0,0,1,.13.14.11.11,0,0,1,0,.08l-.37.5.19.6A.13.13,0,0,1,77,4.5h-.09Z"/><path class="cls-3" d="M70.09,17.28l-.49.37a.13.13,0,0,1-.18,0,.11.11,0,0,1,0-.08l0-.63-.49-.38a.14.14,0,0,1,0-.19.18.18,0,0,1,.07,0l.58-.17.18-.6a.13.13,0,0,1,.17-.08s0,0,.06.05l.35.52h.6a.13.13,0,0,1,.13.14.19.19,0,0,1,0,.08l-.37.5.19.6a.14.14,0,0,1-.09.17.11.11,0,0,1-.08,0Z"/><path class="cls-3" d="M74.12,17.22l-.49.36a.12.12,0,0,1-.18,0,.11.11,0,0,1,0-.08l0-.63L73,16.46a.14.14,0,0,1,0-.19.18.18,0,0,1,.07-.05l.58-.17.18-.6a.14.14,0,0,1,.17-.09.13.13,0,0,1,.07.06l.34.52h.6a.14.14,0,0,1,.14.14.13.13,0,0,1,0,.08l-.37.49.19.61a.15.15,0,0,1-.08.17.1.1,0,0,1-.09,0Z"/><path class="cls-3" d="M78,16.17l-.48.36a.13.13,0,0,1-.19,0,.24.24,0,0,1,0-.08v-.63l-.49-.38a.14.14,0,0,1,0-.19.12.12,0,0,1,.07-.05l.58-.17.19-.6a.13.13,0,0,1,.16-.09.13.13,0,0,1,.07.06l.34.52h.61A.15.15,0,0,1,79,15a.16.16,0,0,1,0,.09l-.37.49.19.6a.13.13,0,0,1-.08.17.14.14,0,0,1-.09,0Z"/><path class="cls-5" d="M68.43,8.69l-.63.08c-.17,0-.22.09-.23.21,0,.31.38.23.19,1.07l-.42,1.82-.88-1.64c-.38-.71.08-.77,0-1.09,0-.11-.14-.15-.31-.13l-1.21.17c-.17,0-.24.09-.23.21,0,.29.28.17.73,1s1.06,2,1.12,2c.21.41.35.42.71.37s.44-.16.52-.53c0-.12.3-1.35.51-2.3s.5-.84.46-1.15C68.72,8.7,68.6,8.66,68.43,8.69Z"/><path class="cls-5" d="M71,8.29a1.89,1.89,0,0,0-1.69,2.25A2,2,0,1,0,73.2,10,1.88,1.88,0,0,0,71,8.29Zm.49,3.46c-.51.07-.9-.49-1-1.37s.09-1.52.6-1.6.9.5,1,1.37S72,11.68,71.44,11.75Z"/><path class="cls-5" d="M77.19,8.58C77.12,8.34,77,8,77,7.82s-.18-.31-.41-.27l-2.62.36c-.22,0-.31.13-.31.38s0,.55,0,.79.1.26.24.25.33-.33.41-.55a.65.65,0,0,1,.56-.45l.3,2.1c0,.38.07.57,0,.72s-.14.3-.12.39.11.16.27.13l1.09-.15c.16,0,.23-.09.23-.2s-.06-.17-.23-.35-.15-.3-.21-.69l-.29-2.1a.68.68,0,0,1,.67.29c.13.19.29.44.54.4S77.24,8.74,77.19,8.58Z"/><path class="cls-5" d="M80.9,9.49c-.25,0-.33.31-.41.53a.63.63,0,0,1-.56.46h-.07c-.37.06-.5,0-.59-.65l-.07-.47a.72.72,0,0,1,.41,0c.16.11.2.22.32.21s.13-.17.1-.34L80,8.71c0-.17,0-.32-.19-.3s-.13.14-.25.29a.71.71,0,0,1-.38.15l0-.39c-.09-.6,0-.73.35-.79a.66.66,0,0,1,.66.29c.13.19.29.44.54.41s.22-.13.16-.3-.16-.53-.24-.76-.18-.3-.4-.27l-2.31.32c-.16,0-.24.09-.23.21s.06.16.23.34.15.31.2.69l.2,1.38a1.29,1.29,0,0,1,0,.73c-.11.21-.14.29-.12.39s.11.15.27.13l2.42-.34c.23,0,.31-.12.32-.36s0-.56,0-.81A.2.2,0,0,0,80.9,9.49Z"/><path class="cls-6" d="M74.45,19.54a9.63,9.63,0,1,0-10.88-8.2A9.63,9.63,0,0,0,74.45,19.54Zm0,.37A10,10,0,1,0,63.2,11.4,10,10,0,0,0,74.5,19.91Z"/></svg>