<svg id="Layer_1" data-name="Layer 1" xmlns="http://www.w3.org/2000/svg" viewBox="0 0 86.35 44.77"><defs><style>.cls-1{fill:#ffad43;}.cls-2{fill:#dd0031;}.cls-3{fill:#fff;}.cls-4{fill:#007ae5;}.cls-5,.cls-6{fill:#0e1e25;}.cls-6{fill-opacity:0.12;fill-rule:evenodd;}</style></defs><path class="cls-1" d="M1,44V43H0v1ZM55.36,9.81l-1-1-1.52,1.28.56,1.12-.56.8,1,.32-.48,1.6-1.28-.24L49.44,15l-.72-.72-2.08.32L47,16.93l-1.84,1.28-.88,2.08-2,.48-1.12,3.44-1.36.72L37.6,23.65l-.32-1.28-1-.56.4.72h-1.2l.08,1-.88.4v1.28l-1.12,1.28-2-2-2.32,1-1.12,1.68-3-2.16-1.76.48-.56-1v1.6l-.56.4-.32-1-1.28.4-1.36-.88.16,1.28-.48.72-1-.32-1.44,1.92.72,2.4-4.64,1.2-.16,1.2.64,2.4-.64.88L8.08,34.29,6,34.77,4.72,36.21l.48,1.6-.24,3L4,43l-1.68-.88L1.6,44l15.6.8-.32-2.72,2.64.88,45.92,1.52,6.8-2.4L73,40.61l2.08-.8,2.08-3.2,3.52-2.08L85,30.93,83,30.45l-3-3.36-2.8-4.72.72-1.2-.16-2.48-2.48-2.08-.72-2.32-1.6.4-1.28,1.36-1.76.24-2.4-1.44-2.08,1-1.6-1.6-3.92-.88-1-2.8-1.36-1Z"/><path class="cls-2" d="M85.14,5.23,66.58,7.84A10,10,0,0,1,85.14,5.23Z"/><path class="cls-3" d="M86.12,12.17a10,10,0,0,0-1-6.94L66.58,7.84a10.08,10.08,0,0,0,1,6.93Z"/><path class="cls-4" d="M86.12,12.17a10,10,0,0,1-18.56,2.6Z"/><path class="cls-3" d="M71.66,5.39l-.49.37a.13.13,0,0,1-.18,0,.15.15,0,0,1,0-.09V5l-.49-.37a.14.14,0,0,1,0-.19s0,0,.07,0l.58-.18.19-.59a.12.12,0,0,1,.16-.09.18.18,0,0,1,.07,0l.34.53h.61a.14.14,0,0,1,.13.14.11.11,0,0,1,0,.08l-.37.5.19.6a.13.13,0,0,1-.08.17h-.09Z"/><path class="cls-3" d="M75.52,4.09,75,4.46a.13.13,0,0,1-.18,0,.16.16,0,0,1,0-.09l0-.63-.49-.37a.14.14,0,0,1,0-.19s0,0,.07,0L75,2.92l.18-.59a.14.14,0,0,1,.17-.09.18.18,0,0,1,.07,0l.34.53h.6a.13.13,0,0,1,.13.14.19.19,0,0,1,0,.08l-.37.5.19.6a.14.14,0,0,1-.09.17.11.11,0,0,1-.08,0Z"/><path class="cls-3" d="M79.59,4.28l-.49.37a.13.13,0,0,1-.19,0,.19.19,0,0,1,0-.08V3.9l-.49-.38a.14.14,0,0,1,0-.19.15.15,0,0,1,.06-.05L79,3.11l.19-.6a.12.12,0,0,1,.16-.08s.06,0,.07,0l.34.52h.61a.13.13,0,0,1,.13.14.11.11,0,0,1,0,.08l-.36.5.18.6a.13.13,0,0,1-.08.17h-.08Z"/><path class="cls-3" d="M73.33,17.28l-.49.37a.13.13,0,0,1-.18,0,.11.11,0,0,1,0-.08V16.9l-.49-.38a.14.14,0,0,1,0-.19.18.18,0,0,1,.07,0l.58-.17.19-.6a.13.13,0,0,1,.23,0l.34.52h.61a.13.13,0,0,1,.13.14.11.11,0,0,1,0,.08l-.37.5.19.6a.13.13,0,0,1-.08.17.14.14,0,0,1-.09,0Z"/><path class="cls-3" d="M77.36,17.22l-.48.36a.13.13,0,0,1-.19,0,.19.19,0,0,1,0-.08v-.63l-.49-.38a.14.14,0,0,1,0-.19.18.18,0,0,1,.07-.05l.58-.17.19-.6a.13.13,0,0,1,.16-.09.13.13,0,0,1,.07.06l.34.52h.61a.13.13,0,0,1,.13.14.13.13,0,0,1,0,.08l-.37.49.19.61a.14.14,0,0,1-.08.17.1.1,0,0,1-.09,0Z"/><path class="cls-3" d="M81.26,16.17l-.49.36a.12.12,0,0,1-.18,0,.13.13,0,0,1,0-.08v-.63l-.48-.38a.13.13,0,0,1,0-.19s0,0,.06-.05L80.7,15l.19-.6a.13.13,0,0,1,.16-.09.11.11,0,0,1,.07.06l.35.52h.6a.15.15,0,0,1,.13.14.16.16,0,0,1,0,.09l-.36.49.18.6a.12.12,0,0,1-.08.17.11.11,0,0,1-.08,0Z"/><path class="cls-5" d="M71.67,8.69,71,8.77c-.16,0-.22.09-.23.21,0,.31.38.23.19,1.07l-.42,1.82-.88-1.64c-.38-.71.08-.77,0-1.09,0-.11-.14-.15-.31-.13l-1.21.17c-.16,0-.23.09-.23.21,0,.29.29.17.73,1l1.12,2c.22.41.35.42.71.37s.44-.16.52-.53c0-.12.3-1.35.51-2.3S72,9.13,72,8.82C72,8.7,71.84,8.66,71.67,8.69Z"/><path class="cls-5" d="M74.2,8.29a1.89,1.89,0,0,0-1.7,2.25,2,2,0,1,0,4-.55A1.89,1.89,0,0,0,74.2,8.29Zm.48,3.46c-.51.07-.89-.49-1-1.37s.09-1.52.61-1.6.89.5,1,1.37S75.19,11.68,74.68,11.75Z"/><path class="cls-5" d="M80.44,8.58l-.25-.76c-.06-.24-.17-.31-.4-.27l-2.62.36c-.23,0-.32.13-.32.38s0,.55,0,.79a.22.22,0,0,0,.25.25c.25,0,.33-.33.41-.55A.62.62,0,0,1,78,8.33l.3,2.1a1.38,1.38,0,0,1,0,.72c-.12.22-.15.3-.13.39s.11.16.28.13l1.08-.15c.17,0,.24-.09.23-.2s-.06-.17-.22-.35-.16-.3-.21-.69l-.3-2.1a.66.66,0,0,1,.67.29c.13.19.29.44.54.4A.2.2,0,0,0,80.44,8.58Z"/><path class="cls-5" d="M84.15,9.49c-.26,0-.34.31-.42.53a.62.62,0,0,1-.56.46H83.1c-.37.06-.5,0-.59-.65l-.06-.47a.67.67,0,0,1,.4,0c.16.11.2.22.32.21s.13-.17.11-.34l-.08-.57c0-.17,0-.32-.2-.3s-.12.14-.25.29a.71.71,0,0,1-.38.15l-.05-.39c-.09-.6,0-.73.35-.79a.65.65,0,0,1,.66.29c.13.19.29.44.54.41s.22-.13.17-.3l-.24-.76A.32.32,0,0,0,83.39,7l-2.31.32c-.16,0-.23.09-.22.21s0,.16.22.34.15.31.21.69L81.48,10a1.42,1.42,0,0,1,0,.73c-.12.21-.15.29-.13.39s.11.15.28.13l2.42-.34c.22,0,.31-.12.31-.36s0-.56,0-.81S84.28,9.47,84.15,9.49Z"/><path class="cls-6" d="M77.69,19.54a9.63,9.63,0,1,0-10.87-8.2A9.62,9.62,0,0,0,77.69,19.54Zm0,.37A10,10,0,1,0,66.45,11.4,10,10,0,0,0,77.74,19.91Z"/></svg>