<svg id="Layer_1" data-name="Layer 1" xmlns="http://www.w3.org/2000/svg" viewBox="0 0 71.52 73.33"><defs><style>.cls-1{fill:#ffad43;}.cls-2{fill:#dd0031;}.cls-3{fill:#fff;}.cls-4{fill:#007ae5;}.cls-5,.cls-6{fill:#0e1e25;}.cls-6{fill-opacity:0.12;fill-rule:evenodd;}</style></defs><path class="cls-1" d="M42.32,71.57l.48.16h.48l-.4-.16Zm4.08-.24-1.68.56H45l1.12-.32Zm3.36.24-.64-.24-.8-.08.72.32Zm1.68-.32L51,71l-.4.56Zm-2.32-2.56.24-.32h-.24l-.08.56Zm6,.24,1-.56-.32-.32-.72.56Zm1.52-1.2h-.08l-.32.16.08.16Zm9.84-3.28h.32v-.4l-.72.56Zm-12.64-.08v.4l1.44.48-.16-.48Zm13.92-.56.24-.16.32-.64ZM30.48,65.09l1.12-1.68-2.88-1-1.52.88,2.72,1.76Zm39.6-3.92.4-.72.08-.32-.8,1.2ZM63,60l-.56-.56-.24,1,.4-.48.4.48Zm1.28-.64-.08.08.88.56v-.88Zm.8-1.84h.56v-.32l-.56.08Zm-.72.16.4-.48.32-.56-.8,1Zm7,1.44.08-1.6-.08-1.2-.88-1,.88,1.92-.56,2.64ZM63,54.29v-.24l-.16.16Zm2.8.56-.4-.24,1-1L64,55.33l1.36-.08.4.48.56-.4Zm-60,5.6,5.2-.08,6.88,2.8,5.44,1,3.52-.8.48-.64-1,.24-.48-1.12.56-.48-1,.4-.4-1,.88-.16v.56l2.16-1.52h1.76l-.08,1.68,3-.48v1.6h1.12v1.76l1.92-.4v.64l1.84.64.4-2.08h.32l-.32,2.24,2,2v1.12l-.4.24-.24-1.36-.72-.08-.08-.56-1,1-.64-.32.24.8.48.56,2.88,1,.88-.56.16.8,1.76.72.56-1,.8.32-.4.72.64.24,1.44-1,.08.48.32-1.68.56.24L47,67.57l1.6.32.48-1.12L50,68.61l.64-1,.72,1.12.48-.48.24,2.8,1.76-1,.88-1.28h-.48l-.16-.8,1.12-.32-.48-.8.16.32V65.57L52.4,64.21l.4-1,.64.88.4-.24,2.4,1.28,1,.16.08-.48h.64l-.32.64,1,.16.24,1-1,.72h1.92l.88-.4.32,1.36H63l-.48.16L64,70.85l.8-.64v-1l.32.8.32-.4-1.76,3.76,1.44-2,.64-.32v-.64L67.52,72l-.16-.64.4-.8.32.32L68,70l.32.64.72-1-1-.08,1.12-.32-.4-.56-1.52-.24.48-.64-1.2-1.2-.72.56-.4-.56-1.44-.24.48-.48H61.84l.08-1-2.24-.88-1-1.68,1.92.16L59.36,61l3,1.2-.48-.88H61l-.08-.72.72-.48L62.24,59l1,1,1-.4-.48-.72.56-.8h-.88l.32-.48-.48.32L63,57.49l.8-.32-1.12-.48,1.12-1.12-.72.16-.8-.48-1.2,1-.4,1.84-1,.32-.72-.8.24-.48-1.6.08-.32-1,.64-.64,1,.24,1-1.68-.32-.32H59l.48.32-.88.64v-1l-.72,1-1.28-.64L55.2,55.73,53,56.21l-3.28-.88-.72-1,.4-1,3-2.8,1.84.4,1,1.44,3.28.48.48,1,1.6-.32v.4l.88-.56-.64-.4-1.52-3.52L57.6,47.49l-.72-1.76,1.44-5-26.08.32,1.12-1-1-3.2,1.6-.32.4-1.92-.4-1.44,1.28-1.12,1-4.08,3.44-3V22.93l.88-.08L42,20.45l-2.48-2.56V16.21l-1-1.36L39.92,14l-1.36-.8,1.2-2.4-1.2-.8-.08-.64H.32L0,25.25l2.8,3.36.08,3.2,1.28,1.12-.32.64,1.36,1.6-.32.88,1,1.92.72.24L6.4,39.57l.72.88-1,.48.56,1-.56,2.16L3.84,47.89l.48,1.52L3.68,51l.48,1.6-.16,3L2.88,57l.48,1.44-.56,1-1.2.24-.16.48.64,1.28,1.76-.8Z"/><path class="cls-2" d="M48.47,5.23,29.91,7.84A10,10,0,0,1,48.47,5.23Z"/><path class="cls-3" d="M49.45,12.17a10,10,0,0,0-1-6.94L29.91,7.84a10.08,10.08,0,0,0,1,6.93Z"/><path class="cls-4" d="M49.45,12.17a10,10,0,0,1-18.56,2.6Z"/><path class="cls-3" d="M35,5.39l-.49.37a.13.13,0,0,1-.18,0,.15.15,0,0,1,0-.09V5l-.49-.37a.14.14,0,0,1,0-.19s0,0,.07,0l.58-.18.19-.59a.12.12,0,0,1,.16-.09.18.18,0,0,1,.07,0l.34.53h.61a.14.14,0,0,1,.13.14.11.11,0,0,1,0,.08l-.37.5.19.6a.13.13,0,0,1-.08.17h-.09Z"/><path class="cls-3" d="M38.85,4.09l-.49.37a.13.13,0,0,1-.18,0,.16.16,0,0,1,0-.09l0-.63-.49-.37a.14.14,0,0,1,0-.19s0,0,.07,0l.58-.18.18-.59a.14.14,0,0,1,.17-.09.18.18,0,0,1,.07,0l.34.53h.6a.13.13,0,0,1,.13.14.11.11,0,0,1,0,.08l-.37.5.19.6a.14.14,0,0,1-.09.17.11.11,0,0,1-.08,0Z"/><path class="cls-3" d="M42.92,4.28l-.49.37a.12.12,0,0,1-.18,0,.11.11,0,0,1,0-.08l0-.63-.49-.38a.13.13,0,0,1,0-.19.15.15,0,0,1,.06-.05l.58-.17.19-.6a.12.12,0,0,1,.16-.08s.06,0,.07,0l.35.52h.6a.13.13,0,0,1,.13.14.11.11,0,0,1,0,.08l-.36.5.18.6a.13.13,0,0,1-.08.17h-.08Z"/><path class="cls-3" d="M36.66,17.28l-.48.37a.14.14,0,0,1-.19,0,.19.19,0,0,1,0-.08V16.9l-.49-.38a.14.14,0,0,1,0-.19.18.18,0,0,1,.07,0l.58-.17.19-.6a.13.13,0,0,1,.23,0l.34.52h.61a.13.13,0,0,1,.13.14.11.11,0,0,1,0,.08l-.37.5.19.6a.13.13,0,0,1-.08.17.14.14,0,0,1-.09,0Z"/><path class="cls-3" d="M40.69,17.22l-.48.36a.13.13,0,0,1-.19,0,.19.19,0,0,1,0-.08v-.63l-.49-.38a.15.15,0,0,1,0-.19l.07-.05.58-.17.19-.6a.13.13,0,0,1,.16-.09.13.13,0,0,1,.07.06l.34.52h.61a.13.13,0,0,1,.13.14.13.13,0,0,1,0,.08l-.36.49.18.61a.13.13,0,0,1-.08.17.08.08,0,0,1-.08,0Z"/><path class="cls-3" d="M44.59,16.17l-.49.36a.12.12,0,0,1-.18,0,.13.13,0,0,1,0-.08l0-.63-.49-.38a.13.13,0,0,1,0-.19s0,0,.07-.05L44,15l.19-.6a.14.14,0,0,1,.17-.09.12.12,0,0,1,.06.06l.35.52h.6a.15.15,0,0,1,.13.14.16.16,0,0,1,0,.09l-.36.49.19.6a.13.13,0,0,1-.09.17.11.11,0,0,1-.08,0Z"/><path class="cls-5" d="M35,8.69l-.62.08c-.17,0-.23.09-.24.21,0,.31.39.23.19,1.07l-.42,1.82L33,10.23c-.38-.71.08-.77,0-1.09C33,9,32.87,9,32.7,9l-1.21.17c-.16,0-.23.09-.23.21,0,.29.29.17.73,1l1.12,2c.22.41.35.42.71.37s.44-.16.53-.53c0-.12.29-1.35.5-2.3s.51-.84.46-1.15C35.3,8.7,35.17,8.66,35,8.69Z"/><path class="cls-5" d="M37.53,8.29a1.89,1.89,0,0,0-1.7,2.25,2,2,0,1,0,4-.55A1.89,1.89,0,0,0,37.53,8.29ZM38,11.75c-.51.07-.89-.49-1-1.37s.1-1.52.61-1.6.89.5,1,1.37S38.52,11.68,38,11.75Z"/><path class="cls-5" d="M43.77,8.58c-.07-.24-.18-.54-.25-.76s-.17-.31-.4-.27l-2.62.36c-.23,0-.32.13-.32.38s0,.55,0,.79a.22.22,0,0,0,.25.25c.25,0,.33-.33.41-.55a.62.62,0,0,1,.56-.45l.29,2.1c.05.38.08.57,0,.72s-.15.3-.13.39.11.16.28.13l1.08-.15c.17,0,.24-.09.23-.2s0-.17-.22-.35-.16-.3-.21-.69l-.3-2.1a.66.66,0,0,1,.67.29c.13.19.29.44.54.4A.2.2,0,0,0,43.77,8.58Z"/><path class="cls-5" d="M47.48,9.49c-.26,0-.34.31-.42.53a.62.62,0,0,1-.56.46h-.07c-.37.06-.5,0-.59-.65l-.06-.47a.67.67,0,0,1,.4,0c.16.11.21.22.32.21s.13-.17.11-.34l-.08-.57c0-.17-.05-.32-.19-.3s-.13.14-.26.29-.2.11-.38.15l-.05-.39c-.09-.6,0-.73.35-.79a.65.65,0,0,1,.66.29c.13.19.3.44.55.41s.21-.13.16-.3l-.24-.76A.32.32,0,0,0,46.72,7l-2.31.32c-.16,0-.23.09-.22.21s.05.16.22.34.15.31.21.69L44.81,10c0,.39.08.57,0,.73s-.14.29-.13.39.11.15.28.13l2.42-.34c.22,0,.31-.12.31-.36s0-.56,0-.81S47.61,9.47,47.48,9.49Z"/><path class="cls-6" d="M41,19.54a9.63,9.63,0,1,0-10.87-8.2A9.62,9.62,0,0,0,41,19.54Zm0,.37A10,10,0,1,0,29.78,11.4,10,10,0,0,0,41.07,19.91Z"/></svg>