<svg id="Layer_1" data-name="Layer 1" xmlns="http://www.w3.org/2000/svg" viewBox="0 0 104 70.07"><defs><style>.cls-1{fill:#ffad43;}.cls-2{fill:#dd0031;}.cls-3{fill:#fff;}.cls-4{fill:#007ae5;}.cls-5,.cls-6{fill:#0e1e25;}.cls-6{fill-opacity:0.12;fill-rule:evenodd;}</style></defs><path class="cls-1" d="M101.52,64.87l-.88-.56.48,1-1.28,2.48,1.76-1.52-.72,1.52-5.68,1,5,1.2,2.88-.72ZM89,65.75l-.24-2.56-1.36,1.6L88.72,66Zm-4.24-4.24-1.92.72-2.72,3.28-2.48.72,1.92,1.6,3-1.6L87.12,66l-.24-2.08-1.76-.56,1-.64-.48-1-1.2,1ZM102,58.23l1.12-3.12-.48-.88-1.28,4.16ZM76.24,7.35l-1.76-.48L70.32,9.43l-1.92.16-1.76,2.48-3,2L7.92,11.59,0,37.59l.88,1,19.6,1.2v1l1.2-.16.24-.8,39.44.8.48,4.56.88.4.48,4.32,2.64,2.8.48-.88h1.36L69.44,49l-2.24,4.8,1.68.56.32,5.84.64-.56-.4-.72,1.12.4L71,58.23l.56,1.12-1,.8,1,.08,2.64-.88,1.36-3.92L77.36,57l-.16-1.44,1.28-1.12,1,.48.8-1.68H81V51l1.76,1.2.24-1,.64.56-.88,1.84L83,57.51l-1.12,1.92,5.28-1.2,2.48-3.12.8.88,3.76-1.28L94,56.23l2.64-2,6.88-.64.24-4.72h-1.52l.4-2.4,1.36.64-1.92-5.36L99.84,39l-3-1.84H95l-.72,1.12L96.32,40l.48-1.44,1.92.56,1.12,6,.8-1.84,1.44,1-1,.24.88,3.6-.88,1-6.4,2.72-2.56.4,1.52-.64L90,51l-2.88-1.84-.8-.8-.48-4.72-2.16-.72-2.32-2.16h1l.48-2.08,1,1.92-.72.16,1.44-.16-4.4-8.48-4.48-3.2,1,2.24-2.8.72-.08-1.36-1.12-.32.4-1-1.36.24-.24-1,.88-.32-1.12-.72.48-.48,1.44.48-.48-.88,1.2.88-.08-3,2.08.24L75,23.11,77.2,22l-.4-1-1,.56.48-1,5.12-1.92,3.12-2.08-.8-2.24-1.6,1v1.44l-.56-.8-1.68-.24L79.52,15l.8-.16-2.48-1.44V12.07l1.68,1.28-1-2.48L76.32,9.11h1.52L77.76,7Z"/><path class="cls-2" d="M90.3,5.23,71.74,7.84A10,10,0,0,1,90.3,5.23Z"/><path class="cls-3" d="M91.28,12.17a10.09,10.09,0,0,0,.13-3.56A9.82,9.82,0,0,0,90.3,5.23L71.74,7.84a10,10,0,0,0,1,6.93Z"/><path class="cls-4" d="M91.28,12.17a10,10,0,0,1-18.57,2.6Z"/><path class="cls-3" d="M76.82,5.39l-.49.37a.13.13,0,0,1-.18,0,.16.16,0,0,1,0-.09l0-.63-.49-.37a.14.14,0,0,1,0-.19s0,0,.07,0l.58-.18.18-.59a.14.14,0,0,1,.17-.09.18.18,0,0,1,.07,0l.34.53h.6a.13.13,0,0,1,.13.14.19.19,0,0,1,0,.08l-.37.5.19.6a.14.14,0,0,1-.09.17h-.08Z"/><path class="cls-3" d="M80.68,4.09l-.49.37a.13.13,0,0,1-.18,0,.16.16,0,0,1,0-.09l0-.63-.49-.37a.13.13,0,0,1,0-.19.08.08,0,0,1,.07,0l.57-.18.19-.59a.13.13,0,0,1,.17-.09.15.15,0,0,1,.06,0l.35.53h.6a.14.14,0,0,1,.13.14.11.11,0,0,1,0,.08l-.36.5.19.6a.14.14,0,0,1-.09.17.11.11,0,0,1-.08,0Z"/><path class="cls-3" d="M84.74,4.28l-.48.37a.13.13,0,0,1-.19,0,.19.19,0,0,1,0-.08V3.9l-.49-.38a.14.14,0,0,1,0-.19.18.18,0,0,1,.07-.05l.58-.17.19-.6a.13.13,0,0,1,.23,0L85,3h.61a.13.13,0,0,1,.13.14.11.11,0,0,1,0,.08l-.37.5.19.6a.13.13,0,0,1-.08.17h-.09Z"/><path class="cls-3" d="M78.49,17.28l-.49.37a.13.13,0,0,1-.18,0,.11.11,0,0,1,0-.08l0-.63-.49-.38a.14.14,0,0,1,0-.19.18.18,0,0,1,.07,0l.58-.17.18-.6a.13.13,0,0,1,.17-.08.12.12,0,0,1,.07.05l.34.52h.6a.13.13,0,0,1,.13.14.11.11,0,0,1,0,.08l-.37.5.19.6a.14.14,0,0,1-.09.17.11.11,0,0,1-.08,0Z"/><path class="cls-3" d="M82.52,17.22l-.49.36a.12.12,0,0,1-.18,0,.11.11,0,0,1,0-.08v-.63l-.49-.38a.14.14,0,0,1,0-.19.18.18,0,0,1,.07-.05l.58-.17.19-.6a.13.13,0,0,1,.16-.09.13.13,0,0,1,.07.06l.34.52h.6a.14.14,0,0,1,.14.14.13.13,0,0,1,0,.08l-.37.49.19.61a.15.15,0,0,1-.08.17.1.1,0,0,1-.09,0Z"/><path class="cls-3" d="M86.41,16.17l-.48.36a.13.13,0,0,1-.19,0,.24.24,0,0,1,0-.08v-.63l-.49-.38a.14.14,0,0,1,0-.19.12.12,0,0,1,.07-.05l.58-.17.19-.6a.13.13,0,0,1,.16-.09.13.13,0,0,1,.07.06l.34.52h.61a.15.15,0,0,1,.13.14.16.16,0,0,1,0,.09l-.37.49.19.6a.13.13,0,0,1-.08.17.14.14,0,0,1-.09,0Z"/><path class="cls-5" d="M76.83,8.69l-.63.08C76,8.8,76,8.86,76,9c0,.31.38.23.19,1.07l-.42,1.82-.88-1.64c-.38-.71.08-.77,0-1.09,0-.11-.14-.15-.31-.13l-1.21.17c-.17,0-.24.09-.23.21,0,.29.29.17.73,1l1.12,2c.22.41.35.42.71.37s.44-.16.52-.53c0-.12.3-1.35.51-2.3s.5-.84.46-1.15C77.12,8.7,77,8.66,76.83,8.69Z"/><path class="cls-5" d="M79.35,8.29a1.89,1.89,0,0,0-1.69,2.25A2,2,0,1,0,81.6,10,1.88,1.88,0,0,0,79.35,8.29Zm.49,3.46c-.51.07-.9-.49-1-1.37s.09-1.52.6-1.6.9.5,1,1.37S80.35,11.68,79.84,11.75Z"/><path class="cls-5" d="M85.59,8.58c-.07-.24-.17-.54-.24-.76s-.18-.31-.4-.27l-2.62.36C82.1,8,82,8,82,8.29s0,.55,0,.79.1.26.24.25.34-.33.42-.55a.62.62,0,0,1,.55-.45l.3,2.1c.05.38.07.57,0,.72s-.14.3-.12.39.11.16.28.13l1.08-.15c.17,0,.23-.09.23-.2s-.06-.17-.23-.35-.15-.3-.21-.69l-.29-2.1a.68.68,0,0,1,.67.29c.13.19.29.44.54.4A.2.2,0,0,0,85.59,8.58Z"/><path class="cls-5" d="M89.31,9.49c-.26,0-.34.31-.42.53a.63.63,0,0,1-.56.46h-.07c-.37.06-.5,0-.59-.65l-.07-.47a.71.71,0,0,1,.41,0c.16.11.2.22.32.21s.13-.17.1-.34l-.08-.57c0-.17,0-.32-.19-.3s-.13.14-.25.29a.71.71,0,0,1-.38.15l0-.39c-.09-.6,0-.73.35-.79a.66.66,0,0,1,.66.29c.13.19.29.44.54.41a.21.21,0,0,0,.17-.3c-.08-.23-.17-.53-.24-.76S88.77,7,88.55,7l-2.31.32c-.16,0-.24.09-.22.21s0,.16.22.34.15.31.2.69l.2,1.38a1.29,1.29,0,0,1,0,.73c-.11.21-.14.29-.12.39s.11.15.28.13l2.41-.34c.23,0,.31-.12.32-.36s0-.56,0-.81S89.44,9.47,89.31,9.49Z"/><path class="cls-6" d="M82.85,19.54A9.63,9.63,0,1,0,72,11.34,9.63,9.63,0,0,0,82.85,19.54Zm.05.37A10,10,0,1,0,71.6,11.4,10,10,0,0,0,82.9,19.91Z"/></svg>