<svg id="Layer_1" data-name="Layer 1" xmlns="http://www.w3.org/2000/svg" viewBox="0 0 92.48 58"><defs><style>.cls-1{fill:#ffad43;}.cls-2{fill:#dd0031;}.cls-3{fill:#fff;}.cls-4{fill:#007ae5;}.cls-5,.cls-6{fill:#0e1e25;}.cls-6{fill-opacity:0.12;fill-rule:evenodd;}</style></defs><path class="cls-1" d="M72.64,56.24l-.8-1.36.56,1.36-1,.56.88.48Zm-.32-4.64-.48-.88-1,.4.48.48Zm16,3.28,1.2-1,2-6-1.84,3.6ZM92,46.64l.48-2.72h-.24l-.64,3ZM5.44,10H.56L0,23.68l4.16-2.56,4.08-4.24,1.12-.4L11,17.2l3.28-3,.8-1.92.64.8-.32,1L19,15.36H21.2l.8-.8-.48-.48,1-.4L22,13.12l3.28-.4L27.2,11l.88.08,3.52,2.64L34,13.6l.32.64-.88.48.48,1.2.4-.56.32,1.12h1L35,17.84l1.2.72L36,20.24l3.84,1.6,1.92,1.44.24.88L40.88,25.6l1.28,1.92,3.68,1,.8,1.68,2.72,1.28,1.36-1.6,2.8,3L51.12,35l.16,2.24-1.84,1-.56,1.52-1.12.48L48,41l-1.28.48-.64,2.4.64,2.24L48.48,46l.88-2.08.56,1.36.88-1.76,3,5,1,.32.08-.64-.8-2.48,1.12,1,1.12,3.2h3.12l2.24,3,.16-.88.88.64.08-1.92,1,2.72,2.16,1.44-.32-2.8-1.36-2.16.16-1.68H62.8l-1-1.6L59.52,45.2,58.24,42l-.16-3.68,1,5,4,3.92,1.44-.32-.24-1.6-2.48-3.36V37.28l-.88-1.12,1.44-2.24H61.2L61,32.8l1.36-.4L61,30.72l2.08.8L60.4,28.16l.56-.48,1.76,2.16,1.2-.64-2.24-1.76,2,.56-.88-2.88-.56.4-2.8-2.72.88-.48,3.12,1.84.8-.8L63,22.8l-.8-1.44,1.52,1.44-.56-1.52,1.28.08.8-1.12-1.52-1,1.84-.08.8,2.24.72-.8-.48-1L67.2,17l.56,3,3-2.56-1.12-1,.8-1.76,1.84-.16,1-1-1.44,3.6,3.6-3.12L74.4,16l1,1.36L73.52,17l-1.68,2.16,3.6.64L69.68,20l-1.12,1.28L66.64,25.6l1.12,3.2.8-2.32L70.8,26l-2.16,2.24v1.44l-1.44.16L65.6,29,65,32.88l.64.4-.16-1.36L67.2,30.4l1.36.8v1.12l.56-.48v.56l.88.48-1.44,1.68.64.64.8-.64-.08,1-1.36.08-2.08-1.76L65,38.08l.88-.32.56-2.56V37l1.2-1.36.4,2.16.56-.8.4,1.28,1-.24-.88.88,1.36-.16.32,1,1.12.56,1.36-1.52L73,40l-1.6,1L69,40.32v-.88l-2.56.32.64.72-.72,1,1.76-.64.48.32L67.2,42.48,67,43.92,66.4,43l-.8.8,2.16,4.08.32-2.16,3.76,4.32V48l.8-1.28.64-.32.08.48L72.4,48l.88,1.6,2.24-4.32-1,3.84,1.68,1-2.24,1-.16,1.52,3-.56.48.08-1.76,1.6,2.24-.64-2.88,3.36.88-.16L75.52,58l1.68-1,2.88.08.48-.8,5-.88.56-1.6,1.6-.88.64-3.28,1.12-.48-.32.8.8-.32,1.12-2.16.4-.72-1-.32.08-1.12-1-.48h1.44L91,44.16l.56-.24-13,.24L76.56,10.48Z"/><path class="cls-2" d="M87.11,5.23,68.55,7.84A10,10,0,0,1,87.11,5.23Z"/><path class="cls-3" d="M88.08,12.17a10,10,0,0,0-1-6.94L68.55,7.84a10,10,0,0,0,1,6.93Z"/><path class="cls-4" d="M88.08,12.17a10,10,0,0,1-18.56,2.6Z"/><path class="cls-3" d="M73.63,5.39l-.49.37a.13.13,0,0,1-.18,0,.16.16,0,0,1,0-.09L73,5l-.49-.37a.14.14,0,0,1,0-.19s0,0,.07,0l.58-.18.18-.59a.13.13,0,0,1,.17-.09.15.15,0,0,1,.06,0l.35.53h.6a.14.14,0,0,1,.13.14.19.19,0,0,1,0,.08l-.37.5.19.6a.14.14,0,0,1-.09.17H74.2Z"/><path class="cls-3" d="M77.49,4.09,77,4.46a.14.14,0,0,1-.19,0,.29.29,0,0,1,0-.09V3.71l-.49-.37a.14.14,0,0,1,0-.19.07.07,0,0,1,.06,0l.58-.18.19-.59a.12.12,0,0,1,.16-.09.13.13,0,0,1,.07,0l.34.53h.61a.14.14,0,0,1,.13.14.11.11,0,0,1,0,.08l-.36.5.18.6a.13.13,0,0,1-.08.17.11.11,0,0,1-.08,0Z"/><path class="cls-3" d="M81.55,4.28l-.49.37a.12.12,0,0,1-.18,0,.11.11,0,0,1,0-.08V3.9l-.49-.38a.14.14,0,0,1,0-.19.18.18,0,0,1,.07-.05L81,3.11l.19-.6a.13.13,0,0,1,.23,0l.34.52h.61a.13.13,0,0,1,.13.14.11.11,0,0,1,0,.08l-.37.5.19.6a.13.13,0,0,1-.08.17h-.09Z"/><path class="cls-3" d="M75.3,17.28l-.49.37a.13.13,0,0,1-.18,0,.11.11,0,0,1,0-.08l0-.63-.49-.38a.14.14,0,0,1,0-.19.18.18,0,0,1,.07,0l.58-.17.18-.6a.13.13,0,0,1,.17-.08s.05,0,.06.05l.35.52h.6a.13.13,0,0,1,.13.14.19.19,0,0,1,0,.08l-.37.5.19.6a.14.14,0,0,1-.09.17.11.11,0,0,1-.08,0Z"/><path class="cls-3" d="M79.33,17.22l-.49.36a.12.12,0,0,1-.18,0,.11.11,0,0,1,0-.08l0-.63-.49-.38a.14.14,0,0,1,0-.19.18.18,0,0,1,.07-.05l.58-.17.18-.6a.14.14,0,0,1,.17-.09.13.13,0,0,1,.07.06l.34.52h.6a.13.13,0,0,1,.13.14.12.12,0,0,1,0,.08l-.37.49.19.61a.14.14,0,0,1-.09.17.08.08,0,0,1-.08,0Z"/><path class="cls-3" d="M83.22,16.17l-.49.36a.12.12,0,0,1-.2-.11v-.63l-.49-.38a.14.14,0,0,1,0-.19.12.12,0,0,1,.07-.05l.58-.17.19-.6a.13.13,0,0,1,.16-.09.13.13,0,0,1,.07.06l.34.52H84a.15.15,0,0,1,.13.14.16.16,0,0,1,0,.09l-.37.49.19.6a.13.13,0,0,1-.08.17.14.14,0,0,1-.09,0Z"/><path class="cls-5" d="M73.64,8.69,73,8.77c-.17,0-.22.09-.23.21,0,.31.38.23.19,1.07l-.42,1.82-.88-1.64c-.38-.71.07-.77,0-1.09,0-.11-.14-.15-.31-.13l-1.21.17c-.17,0-.24.09-.23.21,0,.29.28.17.73,1s1.06,2,1.12,2c.21.41.35.42.71.37s.44-.16.52-.53c0-.12.3-1.35.51-2.3s.5-.84.46-1.15C73.93,8.7,73.8,8.66,73.64,8.69Z"/><path class="cls-5" d="M76.16,8.29a1.89,1.89,0,0,0-1.69,2.25A2,2,0,1,0,78.41,10,1.88,1.88,0,0,0,76.16,8.29Zm.49,3.46c-.51.07-.9-.49-1-1.37s.09-1.52.6-1.6.9.5,1,1.37S77.16,11.68,76.65,11.75Z"/><path class="cls-5" d="M82.4,8.58c-.07-.24-.17-.54-.24-.76s-.18-.31-.41-.27l-2.62.36c-.22,0-.31.13-.32.38s0,.55,0,.79.1.26.24.25.33-.33.41-.55A.65.65,0,0,1,80,8.33l.3,2.1c0,.38.07.57,0,.72s-.14.3-.12.39.11.16.27.13l1.09-.15c.16,0,.23-.09.23-.2s-.06-.17-.23-.35-.15-.3-.21-.69L81,8.18a.65.65,0,0,1,.66.29c.14.19.3.44.55.4S82.45,8.74,82.4,8.58Z"/><path class="cls-5" d="M86.11,9.49c-.25,0-.33.31-.41.53a.63.63,0,0,1-.56.46h-.07c-.38.06-.5,0-.59-.65l-.07-.47a.72.72,0,0,1,.41,0c.16.11.2.22.32.21s.13-.17.1-.34l-.08-.57c0-.17,0-.32-.19-.3s-.13.14-.25.29a.71.71,0,0,1-.38.15l-.06-.39c-.08-.6,0-.73.36-.79A.66.66,0,0,1,85.3,8c.13.19.29.44.54.41s.22-.13.16-.3l-.24-.76A.32.32,0,0,0,85.35,7l-2.3.32c-.16,0-.24.09-.23.21s.06.16.23.34.15.31.2.69l.2,1.38a1.29,1.29,0,0,1,0,.73c-.11.21-.14.29-.12.39s.11.15.27.13L86,10.89c.23,0,.31-.12.32-.36s0-.56,0-.81A.2.2,0,0,0,86.11,9.49Z"/><path class="cls-6" d="M79.66,19.54a9.63,9.63,0,1,0-10.88-8.2A9.63,9.63,0,0,0,79.66,19.54Zm0,.37a10,10,0,1,0-11.3-8.51A10,10,0,0,0,79.71,19.91Z"/></svg>