<svg id="Layer_1" data-name="Layer 1" xmlns="http://www.w3.org/2000/svg" viewBox="0 0 45.69 72.59"><defs><style>.cls-1{fill:#ffad43;}.cls-2{fill:#dd0031;}.cls-3{fill:#fff;}.cls-4{fill:#007ae5;}.cls-5,.cls-6{fill:#0e1e25;}.cls-6{fill-opacity:0.12;fill-rule:evenodd;}</style></defs><path class="cls-1" d="M24.4,58.35l.24-.72-1.2-.48.16.88Zm2-3-.48-.64-.4,1.76h.88l-.4-.8ZM31,54.11l.24-.64-1.12-1.36-1,.32-.72,1.68,1.12,1.2L30,55l-.32-.88Zm-8.08-44L22,9.39,21.76,7l-1.84-.4L11.76,17.87l-.56,4.24-1.2,1L8.88,25.23l.32,1.12-.64,1-.08,1.44.48.8-1.6,1.92v1.2l-2,.88L3.92,35.79l.88,1.52-.8.24L3,37,2,39.87,1,38.11l-1,.64.48,29L2,70l-.16,1.2.72,1.36.4-.4.64.32,1.6-3.84,2.32-1.76L7,66.67l.4-1,1.44-.48v-.8L8,63.87l.56-.16.64-1.52,2.24-1.36-.32.4.64-.32-.88,1.52,1-1.2-.56,1.52,1.28-1v-.88l.56,2.56.48-.64L13.2,59l-.48.4-.08-.32,1.12-1.2.08,4.48L14.48,61l-.4.32-.24-.88,1.44-2.08-.24,1,.24.48-.24,1,.64.16v.56l.08-2,.72-1.12-.16,2.8v-1l.4,1,1.44-3.36v1.2H19l-.32.48,1-1-.4,1.2.8-.24v-.8l1.52-.88-.08-1.2L23,53.87l-.56-1.44,2-.88V50.19l.56.48-.72,2,.88-.56.48.48-1.2.64-.16.8.88-.16,2.24,1.28L27,52.59l.88-.16.24.32-.24-1.44h.56l.16,1.36.56-1,1,.32-.16-1.2.88.88.16-.88.24,1,.24-.56.48.32.64,2.32.88-1.2-.64-1,.64-.4.4,1.36.32-1.28.08,1.36L35,50l.4-.24v1l.72-1,.08,1.52.56-1,.8.56L37.84,49l1.28.56.08-.8.4,1,.56-.56L39.6,48l.88-.24.4,1.36.16-.4,1,.08,2.16-2.64-1-1,.24,1-.32-.88-1,1.12-.48-1.52.88.32v-.88l.64.16.24-.48-1.36-3-1.2-.32-.64.64L38.8,39.79,39.12,38l-.8-1.68.8-.72v-.8l-1.84-.4L35,33l.4-3-.48-17.84L32.8,10.11,29.68,8,28.4,9.15l-1-.4-3.92,2Z"/><path class="cls-2" d="M44.48,5.23,25.92,7.84A10,10,0,0,1,44.48,5.23Z"/><path class="cls-3" d="M45.45,12.17a10,10,0,0,0-1-6.94L25.92,7.84a9.86,9.86,0,0,0-.14,3.56,10.06,10.06,0,0,0,1.11,3.37Z"/><path class="cls-4" d="M45.45,12.17a10,10,0,0,1-18.56,2.6Z"/><path class="cls-3" d="M31,5.39l-.49.37a.13.13,0,0,1-.18,0,.16.16,0,0,1,0-.09V5l-.48-.37a.13.13,0,0,1,0-.19.07.07,0,0,1,.06,0l.58-.18.19-.59a.12.12,0,0,1,.16-.09.13.13,0,0,1,.07,0l.35.53h.6a.14.14,0,0,1,.13.14.11.11,0,0,1,0,.08l-.36.5.18.6a.13.13,0,0,1-.08.17h-.08Z"/><path class="cls-3" d="M34.85,4.09l-.48.37a.14.14,0,0,1-.19,0,.29.29,0,0,1,0-.09V3.71l-.49-.37a.14.14,0,0,1,0-.19s0,0,.07,0l.58-.18.19-.59a.12.12,0,0,1,.16-.09.18.18,0,0,1,.07,0l.34.53h.61A.14.14,0,0,1,35.8,3a.11.11,0,0,1,0,.08l-.37.5.19.6a.13.13,0,0,1-.08.17.14.14,0,0,1-.09,0Z"/><path class="cls-3" d="M38.92,4.28l-.49.37a.12.12,0,0,1-.18,0,.11.11,0,0,1,0-.08l0-.63-.49-.38a.14.14,0,0,1,0-.19.18.18,0,0,1,.07-.05l.58-.17.18-.6a.13.13,0,0,1,.17-.08.12.12,0,0,1,.07,0l.34.52h.6a.13.13,0,0,1,.13.14.19.19,0,0,1,0,.08l-.37.5.19.6a.14.14,0,0,1-.09.17h-.08Z"/><path class="cls-3" d="M32.67,17.28l-.49.37a.13.13,0,0,1-.18,0,.11.11,0,0,1,0-.08V16.9l-.48-.38a.13.13,0,0,1,0-.19.15.15,0,0,1,.06,0l.58-.17.19-.6a.12.12,0,0,1,.16-.08s.06,0,.07.05l.35.52h.6a.13.13,0,0,1,.13.14.11.11,0,0,1,0,.08l-.36.5.18.6a.13.13,0,0,1-.08.17.11.11,0,0,1-.08,0Z"/><path class="cls-3" d="M36.7,17.22l-.49.36a.12.12,0,0,1-.18,0,.11.11,0,0,1,0-.08l0-.63-.49-.38a.14.14,0,0,1,0-.19.13.13,0,0,1,.07-.05l.58-.17.18-.6a.14.14,0,0,1,.17-.09.12.12,0,0,1,.06.06l.35.52h.6a.13.13,0,0,1,.13.14.24.24,0,0,1,0,.08l-.37.49.19.61a.14.14,0,0,1-.09.17.08.08,0,0,1-.08,0Z"/><path class="cls-3" d="M40.59,16.17l-.49.36a.12.12,0,0,1-.18,0,.13.13,0,0,1,0-.08l0-.63-.49-.38a.14.14,0,0,1,0-.19.12.12,0,0,1,.07-.05L40,15l.18-.6a.14.14,0,0,1,.17-.09.13.13,0,0,1,.07.06l.34.52h.6a.14.14,0,0,1,.13.14.15.15,0,0,1,0,.09l-.37.49.19.6a.13.13,0,0,1-.09.17.11.11,0,0,1-.08,0Z"/><path class="cls-5" d="M31,8.69l-.62.08c-.17,0-.22.09-.23.21,0,.31.38.23.19,1.07l-.42,1.82L29,10.23c-.39-.71.07-.77,0-1.09C29,9,28.87,9,28.7,9l-1.2.17c-.17,0-.24.09-.23.21,0,.29.28.17.72,1s1.07,2,1.12,2c.22.41.36.42.71.37s.44-.16.53-.53c0-.12.3-1.35.51-2.3s.5-.84.46-1.15C31.3,8.7,31.17,8.66,31,8.69Z"/><path class="cls-5" d="M33.53,8.29a1.9,1.9,0,0,0-1.7,2.25,2,2,0,1,0,4-.55A1.88,1.88,0,0,0,33.53,8.29ZM34,11.75c-.51.07-.9-.49-1-1.37s.09-1.52.6-1.6.89.5,1,1.37S34.53,11.68,34,11.75Z"/><path class="cls-5" d="M39.77,8.58c-.07-.24-.17-.54-.24-.76s-.18-.31-.41-.27l-2.62.36c-.23,0-.31.13-.32.38s0,.55,0,.79a.21.21,0,0,0,.24.25c.25,0,.33-.33.41-.55a.64.64,0,0,1,.56-.45l.29,2.1c.06.38.08.57,0,.72s-.15.3-.12.39.1.16.27.13l1.08-.15c.17,0,.24-.09.24-.2s-.06-.17-.23-.35-.15-.3-.21-.69l-.29-2.1a.65.65,0,0,1,.66.29c.13.19.3.44.55.4S39.82,8.74,39.77,8.58Z"/><path class="cls-5" d="M43.48,9.49c-.25,0-.34.31-.42.53a.62.62,0,0,1-.55.46h-.07c-.38.06-.51,0-.59-.65l-.07-.47a.72.72,0,0,1,.41,0c.15.11.2.22.32.21s.12-.17.1-.34l-.08-.57c0-.17,0-.32-.19-.3s-.13.14-.25.29a.71.71,0,0,1-.38.15l-.06-.39c-.08-.6,0-.73.36-.79a.63.63,0,0,1,.65.29c.14.19.3.44.55.41s.21-.13.16-.3l-.24-.76A.32.32,0,0,0,42.72,7l-2.3.32c-.17,0-.24.09-.23.21s.06.16.23.34.15.31.2.69L40.81,10c.06.39.08.57,0,.73s-.14.29-.12.39.11.15.27.13l2.42-.34c.22,0,.31-.12.31-.36s0-.56,0-.81S43.62,9.47,43.48,9.49Z"/><path class="cls-6" d="M37,19.54a9.63,9.63,0,1,0-10.87-8.2A9.63,9.63,0,0,0,37,19.54Zm.06.37a10,10,0,1,0-11.3-8.51A10,10,0,0,0,37.08,19.91Z"/></svg>