<svg id="Layer_1" data-name="Layer 1" xmlns="http://www.w3.org/2000/svg" viewBox="0 0 63.68 68.09"><defs><style>.cls-1{fill:#ffad43;}.cls-2{fill:#dd0031;}.cls-3{fill:#fff;}.cls-4{fill:#007ae5;}.cls-5,.cls-6{fill:#0e1e25;}.cls-6{fill-opacity:0.12;fill-rule:evenodd;}</style></defs><path class="cls-1" d="M58,63.29v-1.2l-.32,1.2ZM33.28,31.13l.32-.24-.32-.32-.32.32Zm1.12-.88v-.56l-.56-.32v.88Zm1.12-3.68-.32-.24L35,26l.56.88Zm2.32-2,.32-1.92h-.64L37,24.25Zm6.48-2.24-2.24.32.32.24-1.2,1.2v1.36l.64.88.8.24L39.2,28l-.32,3.12-1,2.8.32-2.8-.88,2.56-.32-.8.56-4.08-2,2.88-.88-.24-1,.88-.32,1.6-1.44.88.32,3.44-2.32,3.12.88,3.12-.88,2,1.44,4.32.88-.32-.64.56.64,2.56L32.4,57,31,61.85l-2.24,4.24L27,67.53H44.32v.56l11.12-.56,2.24-3.36-.32-.88L58,61.21l2-1.36V58.17l.88-.64L60.56,57l1.36-.24v1.44l.88-.88.88-4.56-2.24-8.8-.88-1.68-1.68-1.12-2.56,1.12-1.12.8h.56l-1.2,2.32L54,45.05l-1.12,1.44-2-1.12.64-3.12,1.92-.88L54,39.05l1.44-.8.32-5.12-1.44-2.24.24-.88,1.2.56-.88-2.8-4.56-2.32H48.88l-.8-1.36-2.32-.56ZM46.64,22H45.2l1.12.88H47ZM38.4,22l-.24-.24h-.32l.32.56ZM47,20l-.64.32h.88L46.64,20Zm6.72-.32-1.6-1,.24.56-1.68.8,2.48.56Zm-4.8-2.48-.32-.56L48.32,16l-.24.64ZM48.56,16l-.24-1.12.24-.8-.48-.24-.56.8.8,1.36Zm-19-1.36-.8-.8.32.8ZM14.8,8.09l.32-.88L14.24,7h-.32V5.77L11.36,8.09l-1.12.32L7.92,9.85l-2.8.32L0,13l1.44.56.8,1.92L10,18.09l1.92,1.12,2.56.24,3.12,1.12V22l2.32,1.52-.56,3.36H21l-.64,1.92.88,1.2v-.88l4.24-5.6.88-2.64v2.64l.88-.64.88-1.44h1.68v1.2l-.56-.32-.8,1.44.8.48.8-1.6,1.2-.64.88-1.44,2.48.32.32-.56L37,20l.88-1,4,.72L44,21.45l.64-2,.88.56.56-.32,4.56.32v-.32l-1.44-1,.24-.56-1.6-.56.48-.32L47,14.41l-1.76.8-.56-.8-1.36.48-1.76-.48.56-3.2-4.24,1.12H33L29,15.21l-.88-.8-.88.48-.88-1-1.6.56-1.2-.32-2-3.44-1.2-.8-2.48-.32-1.44.8L17.6,9l-1.92,1.2-.56,1,.24-2.56ZM21,3.85l-.8-.56-3.52.56L14.24,5.77v.88l1.44.56-.56.64.56.8,1.68-2.56,2-1.36-.56-.56Z"/><path class="cls-2" d="M57.27,5.23,38.71,7.84A10,10,0,0,1,57.27,5.23Z"/><path class="cls-3" d="M58.25,12.17a9.86,9.86,0,0,0,.13-3.56,9.82,9.82,0,0,0-1.11-3.38L38.71,7.84a10.08,10.08,0,0,0,1,6.93Z"/><path class="cls-4" d="M58.25,12.17a10,10,0,0,1-18.56,2.6Z"/><path class="cls-3" d="M43.79,5.39l-.49.37a.13.13,0,0,1-.18,0,.15.15,0,0,1,0-.09V5l-.49-.37a.14.14,0,0,1,0-.19s0,0,.07,0l.58-.18.19-.59a.12.12,0,0,1,.16-.09.18.18,0,0,1,.07,0l.34.53h.6a.14.14,0,0,1,.14.14.11.11,0,0,1,0,.08l-.37.5.19.6a.14.14,0,0,1-.08.17h-.09Z"/><path class="cls-3" d="M47.65,4.09l-.49.37a.13.13,0,0,1-.18,0,.16.16,0,0,1,0-.09l0-.63-.49-.37a.14.14,0,0,1,0-.19s0,0,.07,0l.58-.18.18-.59a.13.13,0,0,1,.17-.09.15.15,0,0,1,.06,0l.35.53h.6a.14.14,0,0,1,.13.14.19.19,0,0,1,0,.08l-.37.5.19.6a.14.14,0,0,1-.09.17.11.11,0,0,1-.08,0Z"/><path class="cls-3" d="M51.72,4.28l-.49.37a.13.13,0,0,1-.19,0,.19.19,0,0,1,0-.08V3.9l-.49-.38a.14.14,0,0,1,0-.19.15.15,0,0,1,.06-.05l.58-.17.19-.6a.13.13,0,0,1,.23,0l.34.52h.61a.13.13,0,0,1,.13.14.11.11,0,0,1,0,.08l-.36.5.18.6a.13.13,0,0,1-.08.17h-.08Z"/><path class="cls-3" d="M45.46,17.28l-.49.37a.13.13,0,0,1-.18,0,.11.11,0,0,1,0-.08V16.9l-.49-.38a.14.14,0,0,1,0-.19.18.18,0,0,1,.07,0l.58-.17.19-.6a.13.13,0,0,1,.23,0l.34.52h.61a.13.13,0,0,1,.13.14.11.11,0,0,1,0,.08l-.37.5.19.6a.13.13,0,0,1-.08.17.14.14,0,0,1-.09,0Z"/><path class="cls-3" d="M49.49,17.22l-.48.36a.13.13,0,0,1-.19,0,.19.19,0,0,1,0-.08v-.63l-.49-.38a.14.14,0,0,1,0-.19.18.18,0,0,1,.07-.05l.58-.17.19-.6a.13.13,0,0,1,.16-.09.13.13,0,0,1,.07.06l.34.52h.61a.13.13,0,0,1,.13.14.13.13,0,0,1,0,.08l-.37.49.19.61a.14.14,0,0,1-.08.17.1.1,0,0,1-.09,0Z"/><path class="cls-3" d="M53.39,16.17l-.49.36a.12.12,0,0,1-.18,0,.13.13,0,0,1,0-.08v-.63l-.48-.38a.13.13,0,0,1,0-.19s0,0,.06-.05l.58-.17.19-.6a.13.13,0,0,1,.16-.09.11.11,0,0,1,.07.06l.34.52h.61a.15.15,0,0,1,.13.14.16.16,0,0,1,0,.09l-.36.49.18.6a.12.12,0,0,1-.08.17.11.11,0,0,1-.08,0Z"/><path class="cls-5" d="M43.8,8.69l-.63.08c-.16,0-.22.09-.23.21,0,.31.38.23.19,1.07l-.42,1.82-.88-1.64c-.38-.71.08-.77,0-1.09,0-.11-.14-.15-.31-.13l-1.21.17c-.16,0-.23.09-.23.21,0,.29.29.17.73,1l1.12,2c.22.41.35.42.71.37s.44-.16.52-.53c0-.12.3-1.35.51-2.3s.51-.84.46-1.15C44.1,8.7,44,8.66,43.8,8.69Z"/><path class="cls-5" d="M46.33,8.29a1.89,1.89,0,0,0-1.7,2.25A2,2,0,1,0,48.58,10,1.89,1.89,0,0,0,46.33,8.29Zm.48,3.46c-.51.07-.89-.49-1-1.37s.09-1.52.61-1.6.89.5,1,1.37S47.32,11.68,46.81,11.75Z"/><path class="cls-5" d="M52.57,8.58l-.25-.76c-.07-.24-.17-.31-.4-.27l-2.62.36C49.07,8,49,8,49,8.29s0,.55,0,.79.1.26.25.25.33-.33.41-.55a.62.62,0,0,1,.55-.45l.3,2.1a1.38,1.38,0,0,1,0,.72c-.12.22-.15.3-.13.39s.11.16.28.13l1.08-.15c.17,0,.24-.09.23-.2s-.06-.17-.23-.35-.15-.3-.2-.69l-.3-2.1a.66.66,0,0,1,.67.29c.13.19.29.44.54.4A.2.2,0,0,0,52.57,8.58Z"/><path class="cls-5" d="M56.28,9.49c-.26,0-.34.31-.42.53a.62.62,0,0,1-.56.46h-.07c-.37.06-.5,0-.59-.65l-.06-.47a.67.67,0,0,1,.4,0c.16.11.2.22.32.21s.13-.17.11-.34l-.08-.57c0-.17,0-.32-.2-.3s-.13.14-.25.29a.71.71,0,0,1-.38.15l0-.39c-.09-.6,0-.73.35-.79a.65.65,0,0,1,.66.29c.13.19.29.44.54.41s.22-.13.17-.3l-.24-.76A.32.32,0,0,0,55.52,7l-2.31.32c-.16,0-.23.09-.22.21s0,.16.22.34.15.31.21.69L53.61,10a1.42,1.42,0,0,1,0,.73c-.12.21-.15.29-.13.39s.11.15.28.13l2.42-.34c.22,0,.31-.12.31-.36s0-.56,0-.81S56.41,9.47,56.28,9.49Z"/><path class="cls-6" d="M49.82,19.54A9.63,9.63,0,1,0,39,11.34,9.63,9.63,0,0,0,49.82,19.54Zm0,.37A10,10,0,1,0,38.58,11.4,10,10,0,0,0,49.87,19.91Z"/></svg>