<svg id="Layer_1" data-name="Layer 1" xmlns="http://www.w3.org/2000/svg" viewBox="0 0 56.24 64.8"><defs><style>.cls-1{fill:#ffad43;}.cls-2{fill:#dd0031;}.cls-3{fill:#fff;}.cls-4{fill:#007ae5;}.cls-5,.cls-6{fill:#0e1e25;}.cls-6{fill-opacity:0.12;fill-rule:evenodd;}</style></defs><path class="cls-1" d="M14.24,5.28,14,3.84,0,3.36l.8,4L.4,8.64V13l1.76,5.92L2,25.6l.4.8-.24,3.12L3.6,35,3.28,38.4,1,41,2.16,42.8l1.12.56.64,1-.8,20,20.8.48,21-.08-.48-4.4L43.68,59l-2.16-.64L38,54.48l-1.6-.4L35.68,53l-1.52-.4L32.32,50.8,32.8,49l-.4-1.52.4-.72V45.28l.64-1.68-.64-1.52-1-.08-.24-1.36,1.68-2.32,3.12-2.08v-6.4h.48l1-1.6,4.4-3.52,5-5.6,9.12-4.48-1.68-.24-1,.32L52,13.44l-4.48.64-1-1.68-2.8,2h-2.4l-.8-.4-.32-1-1.84-.56-.64-1.2-1.52.24L36,12.4l-.48.24-1-2.32L33,10.16l.4-.88-2.24-.8L29,8.24l-1.44.4-.4.64-1.92.08-.88-1.2L19,7l-.72-.64v-1h-1l-1-1.2ZM15.6,0V2.24l1-.48.32-1L16.72.08Z"/><path class="cls-2" d="M53.07,5.23,34.51,7.84A10,10,0,0,1,53.07,5.23Z"/><path class="cls-3" d="M54,12.17a10,10,0,0,0-1-6.94L34.51,7.84a9.86,9.86,0,0,0-.14,3.56,10.06,10.06,0,0,0,1.11,3.37Z"/><path class="cls-4" d="M54,12.17a10,10,0,0,1-18.56,2.6Z"/><path class="cls-3" d="M39.59,5.39l-.49.37a.13.13,0,0,1-.18,0,.16.16,0,0,1,0-.09V5l-.48-.37a.13.13,0,0,1,0-.19.07.07,0,0,1,.06,0L39,4.22l.19-.59a.12.12,0,0,1,.16-.09.13.13,0,0,1,.07,0l.35.53h.6a.14.14,0,0,1,.13.14.11.11,0,0,1,0,.08l-.36.5.18.6a.13.13,0,0,1-.08.17h-.08Z"/><path class="cls-3" d="M43.44,4.09,43,4.46a.14.14,0,0,1-.19,0,.29.29,0,0,1,0-.09V3.71l-.49-.37a.14.14,0,0,1,0-.19s0,0,.07,0l.58-.18.19-.59a.12.12,0,0,1,.16-.09.18.18,0,0,1,.07,0l.34.53h.61a.14.14,0,0,1,.13.14.11.11,0,0,1,0,.08l-.37.5.19.6a.13.13,0,0,1-.08.17.14.14,0,0,1-.09,0Z"/><path class="cls-3" d="M47.51,4.28,47,4.65a.12.12,0,0,1-.18,0,.11.11,0,0,1,0-.08l0-.63-.49-.38a.14.14,0,0,1,0-.19.18.18,0,0,1,.07-.05L47,3.11l.18-.6a.13.13,0,0,1,.17-.08.12.12,0,0,1,.07,0l.34.52h.6a.13.13,0,0,1,.13.14.11.11,0,0,1,0,.08l-.37.5.19.6a.14.14,0,0,1-.09.17h-.08Z"/><path class="cls-3" d="M41.26,17.28l-.49.37a.13.13,0,0,1-.18,0,.11.11,0,0,1,0-.08l0-.63-.49-.38a.13.13,0,0,1,0-.19.13.13,0,0,1,.07,0l.57-.17.19-.6a.12.12,0,0,1,.16-.08s.06,0,.07.05l.35.52h.6a.13.13,0,0,1,.13.14.11.11,0,0,1,0,.08l-.36.5.19.6a.14.14,0,0,1-.09.17.11.11,0,0,1-.08,0Z"/><path class="cls-3" d="M45.29,17.22l-.49.36a.12.12,0,0,1-.18,0,.11.11,0,0,1,0-.08l0-.63-.49-.38a.14.14,0,0,1,0-.19.18.18,0,0,1,.07-.05l.58-.17.18-.6a.14.14,0,0,1,.17-.09.12.12,0,0,1,.06.06l.35.52h.6a.13.13,0,0,1,.13.14.24.24,0,0,1,0,.08l-.37.49.19.61a.14.14,0,0,1-.09.17.08.08,0,0,1-.08,0Z"/><path class="cls-3" d="M49.18,16.17l-.49.36a.12.12,0,0,1-.18,0,.13.13,0,0,1,0-.08l0-.63L48,15.41a.14.14,0,0,1,0-.19.12.12,0,0,1,.07-.05l.58-.17.18-.6a.14.14,0,0,1,.17-.09.13.13,0,0,1,.07.06l.34.52H50a.14.14,0,0,1,.13.14.1.1,0,0,1,0,.09l-.37.49.19.6a.13.13,0,0,1-.17.17Z"/><path class="cls-5" d="M39.59,8.69,39,8.77c-.17,0-.22.09-.23.21,0,.31.38.23.19,1.07l-.42,1.82-.88-1.64c-.38-.71.07-.77,0-1.09,0-.11-.15-.15-.32-.13l-1.2.17c-.17,0-.24.09-.23.21,0,.29.28.17.72,1s1.07,2,1.12,2c.22.41.36.42.71.37s.44-.16.53-.53c0-.12.3-1.35.51-2.3s.5-.84.46-1.15C39.89,8.7,39.76,8.66,39.59,8.69Z"/><path class="cls-5" d="M42.12,8.29a1.9,1.9,0,0,0-1.7,2.25A2,2,0,1,0,44.37,10,1.88,1.88,0,0,0,42.12,8.29Zm.49,3.46c-.51.07-.9-.49-1-1.37s.09-1.52.6-1.6.9.5,1,1.37S43.12,11.68,42.61,11.75Z"/><path class="cls-5" d="M48.36,8.58c-.07-.24-.17-.54-.24-.76s-.18-.31-.41-.27l-2.62.36c-.23,0-.31.13-.32.38s0,.55,0,.79a.21.21,0,0,0,.24.25c.25,0,.33-.33.41-.55A.64.64,0,0,1,46,8.33l.29,2.1c.06.38.08.57,0,.72s-.15.3-.12.39.1.16.27.13l1.08-.15c.17,0,.24-.09.24-.2s-.06-.17-.23-.35-.15-.3-.21-.69L47,8.18a.65.65,0,0,1,.66.29c.13.19.3.44.55.4S48.41,8.74,48.36,8.58Z"/><path class="cls-5" d="M52.07,9.49c-.25,0-.34.31-.42.53a.62.62,0,0,1-.55.46H51c-.38.06-.51,0-.59-.65l-.07-.47a.72.72,0,0,1,.41,0c.15.11.2.22.32.21s.12-.17.1-.34l-.08-.57c0-.17,0-.32-.19-.3s-.13.14-.25.29a.71.71,0,0,1-.38.15l-.06-.39c-.08-.6,0-.73.36-.79a.63.63,0,0,1,.65.29c.14.19.3.44.55.41s.21-.13.16-.3l-.24-.76A.32.32,0,0,0,51.31,7L49,7.36c-.16,0-.24.09-.23.21s.06.16.23.34.15.31.2.69L49.4,10c.06.39.08.57,0,.73s-.14.29-.12.39.11.15.27.13L52,10.89c.22,0,.31-.12.31-.36s0-.56,0-.81S52.21,9.47,52.07,9.49Z"/><path class="cls-6" d="M45.61,19.54a9.63,9.63,0,1,0-10.87-8.2A9.63,9.63,0,0,0,45.61,19.54Zm.06.37a10,10,0,1,0-11.3-8.51A10,10,0,0,0,45.67,19.91Z"/></svg>