<svg id="Layer_1" data-name="Layer 1" xmlns="http://www.w3.org/2000/svg" viewBox="0 0 72.64 74.75"><defs><style>.cls-1{fill:#ffad43;}.cls-2{fill:#dd0031;}.cls-3{fill:#fff;}.cls-4{fill:#007ae5;}.cls-5,.cls-6{fill:#0e1e25;}.cls-6{fill-opacity:0.12;fill-rule:evenodd;}</style></defs><path class="cls-1" d="M46.88,12.35l-3.2-3.44H19L.08,7.55,0,8.27l.64.64L1,11.79,2.88,13l.56,3L6.8,18.51l1.6-.4.8,1v1.28H8L6.4,23l2.24,2.32.56,2.48,2.48,1L9.76,66.51l51.12,1L62,69.31l-.08,1.2-2.72,2.4-.72,1.84,7.44-.08,1.28-2.08-1-1.68,1.6-.16-.88-1,1.2-.8-.48-2.4h.72L68.72,68l1.12-2.48,1.84.72.88-2.56.08-3.12H72l-.88-1.52-.64.24.32,1-1-.64-1.84-3,1.2-1.92-1.2-2.16V50.83l-4.48-4L61.28,46l-2.64-2.8-.16-1.76,2.64-6.88-3.36-2-1.2,1-.88.08-1-1.6-.88-3.92L47.6,21.79l-1-2.16-.72-4.4Z"/><path class="cls-2" d="M57.08,5.23,38.52,7.84A10,10,0,0,1,57.08,5.23Z"/><path class="cls-3" d="M58.06,12.17a10,10,0,0,0-1-6.94L38.52,7.84a10.08,10.08,0,0,0,1,6.93Z"/><path class="cls-4" d="M58.06,12.17a10,10,0,0,1-18.56,2.6Z"/><path class="cls-3" d="M43.6,5.39l-.49.37a.13.13,0,0,1-.18,0,.15.15,0,0,1,0-.09V5l-.49-.37a.14.14,0,0,1,0-.19s0,0,.07,0l.58-.18.19-.59a.12.12,0,0,1,.16-.09.18.18,0,0,1,.07,0l.34.53h.61a.14.14,0,0,1,.13.14.11.11,0,0,1,0,.08l-.37.5.19.6a.13.13,0,0,1-.08.17h-.09Z"/><path class="cls-3" d="M47.46,4.09,47,4.46a.13.13,0,0,1-.18,0,.16.16,0,0,1,0-.09l0-.63-.49-.37a.14.14,0,0,1,0-.19s0,0,.07,0l.58-.18.18-.59a.14.14,0,0,1,.17-.09.18.18,0,0,1,.07,0l.34.53h.6A.13.13,0,0,1,48.4,3a.19.19,0,0,1,0,.08l-.37.5.19.6a.14.14,0,0,1-.09.17.11.11,0,0,1-.08,0Z"/><path class="cls-3" d="M51.53,4.28,51,4.65a.12.12,0,0,1-.18,0,.11.11,0,0,1,0-.08V3.9l-.48-.38a.13.13,0,0,1,0-.19.15.15,0,0,1,.06-.05L51,3.11l.19-.6a.12.12,0,0,1,.16-.08s.06,0,.07,0l.34.52h.61a.13.13,0,0,1,.13.14.11.11,0,0,1,0,.08l-.36.5.18.6a.13.13,0,0,1-.08.17H52.1Z"/><path class="cls-3" d="M45.27,17.28l-.49.37a.13.13,0,0,1-.18,0,.11.11,0,0,1,0-.08V16.9l-.49-.38a.14.14,0,0,1,0-.19.18.18,0,0,1,.07,0l.58-.17.19-.6a.13.13,0,0,1,.23,0l.34.52h.61a.13.13,0,0,1,.13.14.11.11,0,0,1,0,.08l-.37.5.19.6a.13.13,0,0,1-.08.17.14.14,0,0,1-.09,0Z"/><path class="cls-3" d="M49.3,17.22l-.48.36a.13.13,0,0,1-.19,0,.19.19,0,0,1,0-.08v-.63l-.49-.38a.14.14,0,0,1,0-.19.18.18,0,0,1,.07-.05l.58-.17.19-.6a.13.13,0,0,1,.16-.09.13.13,0,0,1,.07.06l.34.52h.61a.13.13,0,0,1,.13.14.13.13,0,0,1,0,.08l-.37.49.19.61a.14.14,0,0,1-.08.17.1.1,0,0,1-.09,0Z"/><path class="cls-3" d="M53.2,16.17l-.49.36a.12.12,0,0,1-.18,0,.13.13,0,0,1,0-.08v-.63L52,15.41a.13.13,0,0,1,0-.19s0,0,.06-.05l.58-.17.19-.6a.13.13,0,0,1,.16-.09.11.11,0,0,1,.07.06l.35.52H54a.15.15,0,0,1,.13.14.16.16,0,0,1,0,.09l-.36.49.18.6a.12.12,0,0,1-.08.17.11.11,0,0,1-.08,0Z"/><path class="cls-5" d="M43.61,8.69,43,8.77c-.16,0-.22.09-.23.21,0,.31.38.23.19,1.07l-.42,1.82-.88-1.64c-.38-.71.08-.77,0-1.09,0-.11-.14-.15-.31-.13l-1.21.17c-.16,0-.23.09-.23.21,0,.29.29.17.73,1l1.12,2c.22.41.35.42.71.37s.44-.16.52-.53c0-.12.3-1.35.51-2.3s.51-.84.46-1.15C43.91,8.7,43.78,8.66,43.61,8.69Z"/><path class="cls-5" d="M46.14,8.29a1.89,1.89,0,0,0-1.7,2.25,2,2,0,1,0,4-.55A1.89,1.89,0,0,0,46.14,8.29Zm.48,3.46c-.51.07-.89-.49-1-1.37s.09-1.52.61-1.6.89.5,1,1.37S47.13,11.68,46.62,11.75Z"/><path class="cls-5" d="M52.38,8.58c-.07-.24-.18-.54-.25-.76s-.17-.31-.4-.27l-2.62.36c-.23,0-.32.13-.32.38s0,.55,0,.79a.22.22,0,0,0,.25.25c.25,0,.33-.33.41-.55A.62.62,0,0,1,50,8.33l.3,2.1a1.38,1.38,0,0,1,0,.72c-.12.22-.15.3-.13.39s.11.16.28.13l1.08-.15c.17,0,.24-.09.23-.2s-.06-.17-.22-.35-.16-.3-.21-.69L51,8.18a.66.66,0,0,1,.67.29c.13.19.29.44.54.4A.2.2,0,0,0,52.38,8.58Z"/><path class="cls-5" d="M56.09,9.49c-.26,0-.34.31-.42.53a.62.62,0,0,1-.56.46H55c-.37.06-.5,0-.59-.65l-.06-.47a.67.67,0,0,1,.4,0c.16.11.2.22.32.21s.13-.17.11-.34l-.08-.57c0-.17,0-.32-.2-.3s-.12.14-.25.29-.2.11-.38.15l-.05-.39c-.09-.6,0-.73.35-.79a.65.65,0,0,1,.66.29c.13.19.29.44.54.41s.22-.13.17-.3l-.24-.76A.32.32,0,0,0,55.33,7L53,7.36c-.16,0-.23.09-.22.21s.05.16.22.34.15.31.21.69L53.42,10a1.42,1.42,0,0,1,0,.73c-.12.21-.15.29-.13.39s.11.15.28.13L56,10.89c.22,0,.31-.12.31-.36s0-.56,0-.81S56.22,9.47,56.09,9.49Z"/><path class="cls-6" d="M49.63,19.54a9.63,9.63,0,1,0-10.87-8.2A9.62,9.62,0,0,0,49.63,19.54Zm0,.37A10,10,0,1,0,38.39,11.4,10,10,0,0,0,49.68,19.91Z"/></svg>