<svg id="Layer_1" data-name="Layer 1" xmlns="http://www.w3.org/2000/svg" viewBox="0 0 48.8 72.57"><defs><style>.cls-1{fill:#ffad43;}.cls-2{fill:#dd0031;}.cls-3{fill:#fff;}.cls-4{fill:#007ae5;}.cls-5,.cls-6{fill:#0e1e25;}.cls-6{fill-opacity:0.12;fill-rule:evenodd;}</style></defs><path class="cls-1" d="M31.12,72.49l.48-.24-.56.24Zm6.16-.24-.64-.08.16.32ZM30,72v-.16l-1,.32.72.4Zm6,.24-1.76-.4h-.72V72ZM38,8,16.32,7.77l.4,1.2-2,1.28-.4,1.28-.88.08-.32,4-1,.64h-1L11,17.37h-.4l-.72,1-.8.72.72,1.28-2.48.88.56.88-.24.64.16,1L5.68,25.53l.88.48-.24.8L5.68,27l1.2,1.36-.8,2,.8.56.32,1.52-1,.72v1.68l1,.72-1,2.08,1,1-1.12.8.8,1-.24,1.36,2.4,2L7.52,46.09l-.88.16.24,1.6-3.12,2.4L2.64,53.69l-1.12,1L2,55.77l-.48,1.68-1.44.4L1,60.73l-1,.56,22,.56-1.2,4.08.56,1.6,1.52,1.52,1.2,3.52h1.36l.24-.72,1.28-.8-.48-.48.4-.48,1,.88,4.32-1.28L31,69.53l.64-.4,2,1.28,1.76-.56L36.8,71l.8-.64-1-20.56L40.8,9.13,39.84,8Z"/><path class="cls-2" d="M47.59,5.23,29,7.84A10,10,0,0,1,47.59,5.23Z"/><path class="cls-3" d="M48.57,12.17a10.09,10.09,0,0,0,.13-3.56,9.82,9.82,0,0,0-1.11-3.38L29,7.84a10,10,0,0,0,1,6.93Z"/><path class="cls-4" d="M48.57,12.17A10,10,0,0,1,30,14.77Z"/><path class="cls-3" d="M34.11,5.39l-.49.37a.13.13,0,0,1-.18,0,.16.16,0,0,1,0-.09l0-.63-.49-.37a.14.14,0,0,1,0-.19s0,0,.07,0l.58-.18.18-.59a.13.13,0,0,1,.17-.09.15.15,0,0,1,.06,0l.35.53h.6a.14.14,0,0,1,.13.14.19.19,0,0,1,0,.08l-.37.5.19.6a.14.14,0,0,1-.09.17h-.08Z"/><path class="cls-3" d="M38,4.09l-.49.37a.13.13,0,0,1-.18,0,.16.16,0,0,1,0-.09l0-.63-.49-.37a.13.13,0,0,1,0-.19.07.07,0,0,1,.06,0l.58-.18.19-.59a.12.12,0,0,1,.16-.09.13.13,0,0,1,.07,0l.35.53h.6a.14.14,0,0,1,.13.14.11.11,0,0,1,0,.08l-.36.5.18.6a.13.13,0,0,1-.08.17.11.11,0,0,1-.08,0Z"/><path class="cls-3" d="M42,4.28l-.49.37a.12.12,0,0,1-.18,0,.11.11,0,0,1,0-.08V3.9l-.49-.38a.14.14,0,0,1,0-.19.18.18,0,0,1,.07-.05l.58-.17.19-.6a.13.13,0,0,1,.23,0l.34.52h.61a.13.13,0,0,1,.13.14.11.11,0,0,1,0,.08l-.37.5.19.6a.13.13,0,0,1-.08.17H42.6Z"/><path class="cls-3" d="M35.78,17.28l-.49.37a.13.13,0,0,1-.18,0,.11.11,0,0,1,0-.08l0-.63-.49-.38a.14.14,0,0,1,0-.19.18.18,0,0,1,.07,0l.58-.17.18-.6a.13.13,0,0,1,.17-.08.12.12,0,0,1,.07.05L36,16h.6a.13.13,0,0,1,.13.14.19.19,0,0,1,0,.08l-.37.5.19.6a.14.14,0,0,1-.09.17.11.11,0,0,1-.08,0Z"/><path class="cls-3" d="M39.81,17.22l-.49.36a.12.12,0,0,1-.18,0,.11.11,0,0,1,0-.08l0-.63-.49-.38a.14.14,0,0,1,0-.19.18.18,0,0,1,.07-.05l.58-.17.18-.6a.14.14,0,0,1,.17-.09.13.13,0,0,1,.07.06l.34.52h.6a.14.14,0,0,1,.14.14.13.13,0,0,1,0,.08l-.37.49.19.61a.15.15,0,0,1-.08.17.1.1,0,0,1-.09,0Z"/><path class="cls-3" d="M43.7,16.17l-.48.36a.13.13,0,0,1-.19,0,.24.24,0,0,1,0-.08v-.63l-.49-.38a.14.14,0,0,1,0-.19.12.12,0,0,1,.07-.05l.58-.17.19-.6a.13.13,0,0,1,.16-.09.13.13,0,0,1,.07.06l.34.52h.61a.15.15,0,0,1,.13.14.16.16,0,0,1,0,.09l-.37.49.19.6a.13.13,0,0,1-.08.17.14.14,0,0,1-.09,0Z"/><path class="cls-5" d="M34.12,8.69l-.63.08c-.17,0-.22.09-.23.21,0,.31.38.23.19,1.07L33,11.87l-.88-1.64c-.38-.71.08-.77,0-1.09C32.1,9,32,9,31.82,9l-1.21.17c-.17,0-.24.09-.23.21,0,.29.28.17.73,1s1.06,2,1.12,2c.21.41.35.42.71.37s.44-.16.52-.53c0-.12.3-1.35.51-2.3s.5-.84.46-1.15C34.41,8.7,34.29,8.66,34.12,8.69Z"/><path class="cls-5" d="M36.64,8.29A1.89,1.89,0,0,0,35,10.54,2,2,0,1,0,38.89,10,1.88,1.88,0,0,0,36.64,8.29Zm.49,3.46c-.51.07-.9-.49-1-1.37s.09-1.52.6-1.6.9.5,1,1.37S37.64,11.68,37.13,11.75Z"/><path class="cls-5" d="M42.88,8.58c-.07-.24-.17-.54-.24-.76s-.18-.31-.41-.27l-2.62.36c-.22,0-.31.13-.31.38s0,.55,0,.79.1.26.24.25.34-.33.42-.55a.62.62,0,0,1,.55-.45l.3,2.1c0,.38.07.57,0,.72s-.14.3-.12.39.11.16.27.13L42,11.52c.16,0,.23-.09.23-.2s-.06-.17-.23-.35-.15-.3-.21-.69l-.29-2.1a.68.68,0,0,1,.67.29c.13.19.29.44.54.4S42.93,8.74,42.88,8.58Z"/><path class="cls-5" d="M46.59,9.49c-.25,0-.33.31-.41.53a.63.63,0,0,1-.56.46h-.07c-.37.06-.5,0-.59-.65l-.07-.47a.72.72,0,0,1,.41,0c.16.11.2.22.32.21s.13-.17.1-.34l-.08-.57c0-.17,0-.32-.19-.3s-.13.14-.25.29a.71.71,0,0,1-.38.15l0-.39c-.09-.6,0-.73.35-.79a.66.66,0,0,1,.66.29c.13.19.29.44.54.41s.22-.13.16-.3-.16-.53-.24-.76-.18-.3-.4-.27l-2.31.32c-.16,0-.24.09-.23.21s.06.16.23.34.15.31.2.69l.2,1.38a1.29,1.29,0,0,1,0,.73c-.11.21-.14.29-.12.39s.11.15.27.13l2.42-.34c.23,0,.31-.12.32-.36s0-.56,0-.81A.2.2,0,0,0,46.59,9.49Z"/><path class="cls-6" d="M40.14,19.54a9.63,9.63,0,1,0-10.88-8.2A9.63,9.63,0,0,0,40.14,19.54Zm0,.37a10,10,0,1,0-11.3-8.51A10,10,0,0,0,40.19,19.91Z"/></svg>