<svg id="Layer_1" data-name="Layer 1" xmlns="http://www.w3.org/2000/svg" viewBox="0 0 87.96 55.31"><defs><style>.cls-1{fill:#ffad43;}.cls-2{fill:#dd0031;}.cls-3{fill:#fff;}.cls-4{fill:#007ae5;}.cls-5,.cls-6{fill:#0e1e25;}.cls-6{fill-opacity:0.12;fill-rule:evenodd;}</style></defs><path class="cls-1" d="M82.72,38.59,80.4,8,40.8,9.15.8,7.31l-.8,10,2,3.2L1.92,22l.4.8-.72.32,2.64,2.08,3.6,5.92.64-.48.64,1h1.76L9.12,36.67l.64,2.56L8.64,40.51l-.16,1.92,1.6,1,2.4-2,1.36,1,.32,3L16,48.51v1.6l1.92,1.12L19,54.35l1.12,1L20.64,54l2.72.4,1.28-1,5.52.32-.32-1,1-1.12L33,54.43l.08-5.12H58.56l24.8-1.12Z"/><path class="cls-2" d="M86.75,5.23,68.18,7.84A10,10,0,0,1,86.75,5.23Z"/><path class="cls-3" d="M87.72,12.17a10,10,0,0,0-1-6.94L68.18,7.84a10.09,10.09,0,0,0-.13,3.56,9.84,9.84,0,0,0,1.11,3.37Z"/><path class="cls-4" d="M87.72,12.17a10,10,0,0,1-18.56,2.6Z"/><path class="cls-3" d="M73.26,5.39l-.48.37a.14.14,0,0,1-.19,0,.29.29,0,0,1,0-.09V5l-.49-.37a.14.14,0,0,1,0-.19s0,0,.07,0l.58-.18.19-.59a.12.12,0,0,1,.16-.09.18.18,0,0,1,.07,0l.34.53h.61a.14.14,0,0,1,.13.14.11.11,0,0,1,0,.08l-.37.5.19.6a.13.13,0,0,1-.08.17h-.09Z"/><path class="cls-3" d="M77.12,4.09l-.49.37a.13.13,0,0,1-.18,0,.1.1,0,0,1,0-.09V3.71L76,3.34a.14.14,0,0,1,0-.19s0,0,.07,0l.58-.18.18-.59a.14.14,0,0,1,.17-.09.18.18,0,0,1,.07,0l.34.53h.6a.14.14,0,0,1,.14.14A.11.11,0,0,1,78,3l-.37.5.19.6a.14.14,0,0,1-.08.17.14.14,0,0,1-.09,0Z"/><path class="cls-3" d="M81.19,4.28l-.49.37a.12.12,0,0,1-.18,0,.11.11,0,0,1,0-.08l0-.63L80,3.52a.14.14,0,0,1,0-.19.13.13,0,0,1,.07-.05l.58-.17.18-.6A.13.13,0,0,1,81,2.43s.05,0,.06,0L81.4,3H82a.13.13,0,0,1,.13.14.19.19,0,0,1,0,.08l-.37.5.19.6a.14.14,0,0,1-.09.17h-.08Z"/><path class="cls-3" d="M74.93,17.28l-.48.37a.14.14,0,0,1-.19,0,.19.19,0,0,1,0-.08V16.9l-.49-.38a.15.15,0,0,1,0-.19l.07,0,.58-.17.19-.6a.13.13,0,0,1,.23,0l.34.52h.61a.13.13,0,0,1,.13.14.11.11,0,0,1,0,.08l-.36.5.18.6a.13.13,0,0,1-.08.17.14.14,0,0,1-.09,0Z"/><path class="cls-3" d="M79,17.22l-.49.36a.12.12,0,0,1-.18,0,.11.11,0,0,1,0-.08v-.63l-.48-.38a.13.13,0,0,1,0-.19.15.15,0,0,1,.06-.05l.58-.17.19-.6a.13.13,0,0,1,.16-.09.11.11,0,0,1,.07.06l.35.52h.6a.13.13,0,0,1,.13.14.13.13,0,0,1,0,.08l-.36.49.18.61a.13.13,0,0,1-.08.17.08.08,0,0,1-.08,0Z"/><path class="cls-3" d="M82.86,16.17l-.49.36a.12.12,0,0,1-.18,0,.13.13,0,0,1,0-.08l0-.63-.49-.38a.14.14,0,0,1,0-.19.12.12,0,0,1,.07-.05l.58-.17.18-.6a.14.14,0,0,1,.17-.09.12.12,0,0,1,.06.06l.35.52h.6a.15.15,0,0,1,.13.14.29.29,0,0,1,0,.09l-.37.49.19.6a.13.13,0,0,1-.09.17.11.11,0,0,1-.08,0Z"/><path class="cls-5" d="M73.27,8.69l-.62.08c-.17,0-.22.09-.23.21,0,.31.38.23.18,1.07l-.42,1.82-.87-1.64c-.39-.71.07-.77,0-1.09C71.25,9,71.14,9,71,9l-1.2.17c-.17,0-.24.09-.24.21,0,.29.29.17.73,1l1.12,2c.22.41.35.42.71.37s.44-.16.53-.53c0-.12.3-1.35.51-2.3s.5-.84.45-1.15C73.57,8.7,73.44,8.66,73.27,8.69Z"/><path class="cls-5" d="M75.8,8.29a1.89,1.89,0,0,0-1.7,2.25,2,2,0,1,0,4-.55A1.89,1.89,0,0,0,75.8,8.29Zm.48,3.46c-.51.07-.89-.49-1-1.37s.09-1.52.6-1.6.89.5,1,1.37S76.8,11.68,76.28,11.75Z"/><path class="cls-5" d="M82,8.58c-.07-.24-.18-.54-.25-.76s-.17-.31-.4-.27l-2.62.36c-.23,0-.31.13-.32.38s0,.55,0,.79a.22.22,0,0,0,.25.25c.25,0,.33-.33.41-.55a.64.64,0,0,1,.56-.45l.29,2.1c.06.38.08.57,0,.72s-.15.3-.12.39.1.16.27.13l1.08-.15c.17,0,.24-.09.23-.2s0-.17-.22-.35-.16-.3-.21-.69l-.3-2.1a.66.66,0,0,1,.67.29c.13.19.3.44.55.4S82.09,8.74,82,8.58Z"/><path class="cls-5" d="M85.75,9.49c-.26,0-.34.31-.42.53a.62.62,0,0,1-.55.46h-.07c-.38.06-.51,0-.6-.65l-.06-.47a.67.67,0,0,1,.4,0c.16.11.21.22.33.21s.12-.17.1-.34l-.08-.57c0-.17,0-.32-.19-.3s-.13.14-.26.29-.2.11-.37.15l-.06-.39c-.08-.6,0-.73.36-.79a.63.63,0,0,1,.65.29c.13.19.3.44.55.41s.21-.13.16-.3l-.24-.76A.32.32,0,0,0,85,7l-2.3.32c-.17,0-.24.09-.23.21s.06.16.23.34a1.41,1.41,0,0,1,.2.69L83.08,10c.06.39.08.57,0,.73s-.14.29-.12.39.11.15.27.13l2.42-.34c.22,0,.31-.12.31-.36s0-.56,0-.81S85.89,9.47,85.75,9.49Z"/><path class="cls-6" d="M79.29,19.54a9.63,9.63,0,1,0-10.87-8.2A9.63,9.63,0,0,0,79.29,19.54Zm0,.37A10,10,0,1,0,68.05,11.4,10,10,0,0,0,79.34,19.91Z"/></svg>