<svg id="Layer_1" data-name="Layer 1" xmlns="http://www.w3.org/2000/svg" viewBox="0 0 99.95 44.27"><defs><style>.cls-1{fill:#ffad43;}.cls-2{fill:#dd0031;}.cls-3{fill:#fff;}.cls-4{fill:#007ae5;}.cls-5,.cls-6{fill:#0e1e25;}.cls-6{fill-opacity:0.12;fill-rule:evenodd;}</style></defs><path class="cls-1" d="M69.52,43.23l-.8.48-.24.4.56.16Zm1.12-3.36L70.4,40l-.32,1,.16-.08Zm5.2-4.56-1.2.24-1.28,1-.64.72,1.2-1.12Zm8.8-1.76-.4-.48-.88-.24,1,.72Zm-1.76-.72-.56-.16-1.76.16-2.08.72,3-.72ZM84.8,34l1.36-2.32,1.92-2.4L86,31.47Zm4-5.12v-.32l1-.72h-.48Zm2.32-1.92,1.52-1-2.24,1.2-.4.56Zm4-1.44L95.6,24l.4-3.28-.88-2.48.56,2.8-.24,3.52L93,26Zm-1-7.84-.4-1.36-.8-.08.8,1.28Zm-2.16-6.48-1-3,.8,3.2L93.2,15l-.32.08,2.24,3-2.24-4.48Zm-1.36-3h-.88l.32.64h.72Zm-45.2.64L29.44,7.47l-.56,3.36L27,11.31,25,14l-1.6-.72L19.6,15.71l-.8-1.36L17,16.19l-.88-.48-1.2,2.08-1.92.4-3.68,2.4L5,21l-1.36,1.2L3,24.11l-2.4.4L0,27.79l13.28.4,7.92-2.48,14.24,1.2v1l1.36-.64,1.52,2.24.08,1.6,12.24.56,11.92,12.4,2.08-1.2,3.68.8,1-1.52L69,39.71l.64,1.2-.16,2.16L71.6,38l2-1.92,1.76-.72-.72-1.2.72-.48-.56-1.44L76,33.55l-.72.72.8.4L78,33.07V32l.48,1,2.08-.72h2.16L81.84,32l1-.56.56,1.2.16-1.52,1.2,1,2.48-3-1-.8.4.64-1.44.56.08-1.76L85,29.15,84.08,29l.32.72-1-.72-1.28,1.12-2.24-1-1.44-2.24L81.84,29l2.4-1.76-.16-.8-1.2.16L85,25.15l-5.28-1.92-1-1.36,5,1.68L83,21.87,85,21.63l-1.2.56,1,1.36.72-1,.64,1.52.16-.72,2.16.72,1.36-.88,1.44-3.12.48.88,1.12-.88V17.63L91.6,15.71l.16.56H91l.32.72-.72-.56-.56.48-.32,3.2-1.2-.56,1.2-.16-1-1.2h.72V15.71l-2.48.16.24.56-1.76-.72-3.2.56.32-.72-.8-1.6.16-2.56.64.48-.32,1.36L82.48,15l1.12.56,3-1.2-1.76-1.6,2.64,1.52-.72-1.68,1.36,1.2,1.12-.48-1.44-2,3,1.92-.64-1.84,1.92,3L90.56,9.79v.8L90,10.11V9.79l-.64-.56v-1Z"/><path class="cls-2" d="M98.74,5.23,80.18,7.84A10,10,0,0,1,98.74,5.23Z"/><path class="cls-3" d="M99.71,12.17a10,10,0,0,0-1-6.94L80.18,7.84A9.86,9.86,0,0,0,80,11.4a10.06,10.06,0,0,0,1.11,3.37Z"/><path class="cls-4" d="M99.71,12.17a10,10,0,0,1-18.56,2.6Z"/><path class="cls-3" d="M85.26,5.39l-.49.37a.13.13,0,0,1-.18,0,.16.16,0,0,1,0-.09V5l-.48-.37a.13.13,0,0,1,0-.19.07.07,0,0,1,.06,0l.58-.18.19-.59a.12.12,0,0,1,.16-.09.13.13,0,0,1,.07,0l.35.53h.6a.14.14,0,0,1,.13.14.11.11,0,0,1,0,.08l-.36.5.18.6a.13.13,0,0,1-.08.17h-.08Z"/><path class="cls-3" d="M89.11,4.09l-.48.37a.14.14,0,0,1-.19,0,.29.29,0,0,1,0-.09V3.71l-.49-.37a.14.14,0,0,1,0-.19s0,0,.07,0l.58-.18.19-.59a.12.12,0,0,1,.16-.09.18.18,0,0,1,.07,0l.34.53h.61a.14.14,0,0,1,.13.14A.11.11,0,0,1,90,3l-.37.5.19.6a.13.13,0,0,1-.08.17.14.14,0,0,1-.09,0Z"/><path class="cls-3" d="M93.18,4.28l-.49.37a.12.12,0,0,1-.18,0,.11.11,0,0,1,0-.08l0-.63L92,3.52a.14.14,0,0,1,0-.19.18.18,0,0,1,.07-.05l.58-.17.18-.6A.13.13,0,0,1,93,2.43a.12.12,0,0,1,.07,0l.34.52H94a.13.13,0,0,1,.13.14.19.19,0,0,1,0,.08l-.37.5.19.6a.14.14,0,0,1-.09.17h-.08Z"/><path class="cls-3" d="M86.93,17.28l-.49.37a.13.13,0,0,1-.18,0,.11.11,0,0,1,0-.08V16.9l-.48-.38a.13.13,0,0,1,0-.19.15.15,0,0,1,.06,0l.58-.17.19-.6a.12.12,0,0,1,.16-.08s.06,0,.07.05l.35.52h.6a.13.13,0,0,1,.13.14.11.11,0,0,1,0,.08l-.36.5.18.6a.13.13,0,0,1-.08.17.11.11,0,0,1-.08,0Z"/><path class="cls-3" d="M91,17.22l-.49.36a.12.12,0,0,1-.18,0,.11.11,0,0,1,0-.08l0-.63-.49-.38a.14.14,0,0,1,0-.19.13.13,0,0,1,.07-.05l.58-.17.18-.6a.14.14,0,0,1,.17-.09.12.12,0,0,1,.06.06l.35.52h.6a.13.13,0,0,1,.13.14.24.24,0,0,1,0,.08l-.37.49.19.61a.14.14,0,0,1-.09.17.08.08,0,0,1-.08,0Z"/><path class="cls-3" d="M94.85,16.17l-.49.36a.12.12,0,0,1-.18,0,.13.13,0,0,1,0-.08l0-.63-.49-.38a.14.14,0,0,1,0-.19.12.12,0,0,1,.07-.05L94.3,15l.18-.6a.14.14,0,0,1,.17-.09.13.13,0,0,1,.07.06l.34.52h.6a.14.14,0,0,1,.13.14.15.15,0,0,1,0,.09l-.37.49.19.6a.13.13,0,0,1-.09.17.11.11,0,0,1-.08,0Z"/><path class="cls-5" d="M85.26,8.69l-.62.08c-.17,0-.22.09-.23.21,0,.31.38.23.19,1.07l-.42,1.82-.88-1.64c-.39-.71.07-.77,0-1.09C83.24,9,83.13,9,83,9l-1.2.17c-.17,0-.24.09-.23.21,0,.29.28.17.72,1s1.07,2,1.12,2c.22.41.36.42.71.37s.44-.16.53-.53c0-.12.3-1.35.51-2.3s.5-.84.46-1.15C85.56,8.7,85.43,8.66,85.26,8.69Z"/><path class="cls-5" d="M87.79,8.29a1.9,1.9,0,0,0-1.7,2.25A2,2,0,1,0,90,10,1.88,1.88,0,0,0,87.79,8.29Zm.49,3.46c-.51.07-.9-.49-1-1.37s.09-1.52.6-1.6.89.5,1,1.37S88.79,11.68,88.28,11.75Z"/><path class="cls-5" d="M94,8.58c-.07-.24-.17-.54-.24-.76s-.18-.31-.41-.27l-2.62.36c-.23,0-.31.13-.32.38s0,.55,0,.79a.21.21,0,0,0,.24.25c.25,0,.33-.33.41-.55a.64.64,0,0,1,.56-.45l.29,2.1c.06.38.08.57,0,.72s-.15.3-.12.39.1.16.27.13l1.08-.15c.17,0,.24-.09.24-.2s-.06-.17-.23-.35-.15-.3-.21-.69l-.29-2.1a.65.65,0,0,1,.66.29c.13.19.3.44.55.4S94.08,8.74,94,8.58Z"/><path class="cls-5" d="M97.74,9.49c-.25,0-.34.31-.42.53a.62.62,0,0,1-.55.46H96.7c-.38.06-.51,0-.59-.65L96,9.37a.72.72,0,0,1,.41,0c.15.11.2.22.32.21s.12-.17.1-.34l-.08-.57c0-.17,0-.32-.19-.3s-.13.14-.25.29a.71.71,0,0,1-.38.15l-.06-.39c-.08-.6,0-.73.36-.79a.63.63,0,0,1,.65.29c.14.19.3.44.55.41s.21-.13.16-.3l-.24-.76A.32.32,0,0,0,97,7l-2.3.32c-.17,0-.24.09-.23.21s.06.16.23.34.15.31.2.69L95.07,10c.06.39.08.57,0,.73s-.14.29-.12.39.11.15.27.13l2.42-.34c.22,0,.31-.12.31-.36s0-.56,0-.81S97.88,9.47,97.74,9.49Z"/><path class="cls-6" d="M91.28,19.54a9.63,9.63,0,1,0-10.87-8.2A9.63,9.63,0,0,0,91.28,19.54Zm.06.37A10,10,0,1,0,80,11.4,10,10,0,0,0,91.34,19.91Z"/></svg>