<svg id="Layer_1" data-name="Layer 1" xmlns="http://www.w3.org/2000/svg" viewBox="0 0 81.76 42.81"><defs><style>.cls-1{fill:#ffad43;}.cls-2{fill:#dd0031;}.cls-3{fill:#fff;}.cls-4{fill:#007ae5;}.cls-5,.cls-6{fill:#0e1e25;}.cls-6{fill-opacity:0.12;fill-rule:evenodd;}</style></defs><path class="cls-1" d="M69.44,11.45l-1.2-.4-.64-1.6L63.68,8.33,62.16,7.05,57,7.45l-1.44,1-4.48-2.4H25.84L1.12,5.21,0,29.61l18.64.8-.32,12.16,32,.24,31.44-1.12-1-.56-.56-2.48L78.48,38l-.64-2.48-1.6-2.48L76,27.37l-.64-.48.48-1L75,25.61l.24-1.36-.8-.48.08-.64-.8-.16V20L71,15.45l-.64-3.84Z"/><path class="cls-2" d="M77.39,5.23,58.82,7.84A10,10,0,0,1,77.39,5.23Z"/><path class="cls-3" d="M78.36,12.17a10,10,0,0,0-1-6.94L58.82,7.84a10.09,10.09,0,0,0-.13,3.56,9.84,9.84,0,0,0,1.11,3.37Z"/><path class="cls-4" d="M78.36,12.17a10,10,0,0,1-18.56,2.6Z"/><path class="cls-3" d="M63.9,5.39l-.48.37a.14.14,0,0,1-.19,0,.29.29,0,0,1,0-.09V5l-.49-.37a.15.15,0,0,1,0-.19.1.1,0,0,1,.07,0l.58-.18.19-.59a.12.12,0,0,1,.16-.09.18.18,0,0,1,.07,0l.34.53h.61a.14.14,0,0,1,.13.14.11.11,0,0,1,0,.08l-.36.5.18.6a.13.13,0,0,1-.08.17h-.09Z"/><path class="cls-3" d="M67.76,4.09l-.49.37a.13.13,0,0,1-.18,0,.15.15,0,0,1,0-.09V3.71l-.49-.37a.14.14,0,0,1,0-.19s0,0,.07,0l.58-.18.19-.59a.12.12,0,0,1,.16-.09.18.18,0,0,1,.07,0l.34.53h.61a.14.14,0,0,1,.13.14.11.11,0,0,1,0,.08l-.37.5.19.6a.13.13,0,0,1-.08.17.14.14,0,0,1-.09,0Z"/><path class="cls-3" d="M71.83,4.28l-.49.37a.12.12,0,0,1-.18,0,.11.11,0,0,1,0-.08l0-.63-.49-.38a.14.14,0,0,1,0-.19.18.18,0,0,1,.07-.05l.58-.17.18-.6a.13.13,0,0,1,.17-.08s.05,0,.06,0L72,3h.6a.13.13,0,0,1,.13.14.19.19,0,0,1,0,.08l-.37.5.19.6a.14.14,0,0,1-.09.17H72.4Z"/><path class="cls-3" d="M65.58,17.28l-.49.37a.14.14,0,0,1-.19,0,.19.19,0,0,1,0-.08V16.9l-.49-.38a.15.15,0,0,1,0-.19l.07,0,.58-.17.19-.6a.13.13,0,0,1,.23,0l.34.52h.61a.13.13,0,0,1,.13.14.11.11,0,0,1,0,.08l-.36.5.18.6a.13.13,0,0,1-.08.17.11.11,0,0,1-.08,0Z"/><path class="cls-3" d="M69.61,17.22l-.49.36a.12.12,0,0,1-.18,0,.11.11,0,0,1,0-.08l0-.63-.49-.38a.13.13,0,0,1,0-.19.15.15,0,0,1,.06-.05l.58-.17.19-.6a.13.13,0,0,1,.16-.09.11.11,0,0,1,.07.06l.35.52h.6a.13.13,0,0,1,.13.14.13.13,0,0,1,0,.08l-.36.49.18.61a.13.13,0,0,1-.08.17.08.08,0,0,1-.08,0Z"/><path class="cls-3" d="M73.5,16.17l-.49.36a.12.12,0,0,1-.18,0,.13.13,0,0,1,0-.08l0-.63-.49-.38a.14.14,0,0,1,0-.19.12.12,0,0,1,.07-.05L73,15l.18-.6a.14.14,0,0,1,.17-.09.12.12,0,0,1,.06.06l.35.52h.6a.15.15,0,0,1,.13.14.29.29,0,0,1,0,.09l-.37.49.19.6a.13.13,0,0,1-.09.17.11.11,0,0,1-.08,0Z"/><path class="cls-5" d="M63.91,8.69l-.62.08c-.17,0-.22.09-.23.21,0,.31.38.23.18,1.07l-.42,1.82L62,10.23c-.39-.71.07-.77,0-1.09,0-.11-.15-.15-.32-.13l-1.2.17c-.17,0-.24.09-.23.21,0,.29.28.17.72,1l1.12,2c.22.41.35.42.71.37s.44-.16.53-.53c0-.12.3-1.35.51-2.3s.5-.84.45-1.15C64.21,8.7,64.08,8.66,63.91,8.69Z"/><path class="cls-5" d="M66.44,8.29a1.89,1.89,0,0,0-1.7,2.25,2,2,0,1,0,4-.55A1.89,1.89,0,0,0,66.44,8.29Zm.48,3.46c-.51.07-.89-.49-1-1.37s.09-1.52.6-1.6.89.5,1,1.37S67.44,11.68,66.92,11.75Z"/><path class="cls-5" d="M72.68,8.58c-.07-.24-.18-.54-.25-.76s-.17-.31-.4-.27l-2.62.36c-.23,0-.31.13-.32.38s0,.55,0,.79a.22.22,0,0,0,.25.25c.25,0,.33-.33.41-.55a.64.64,0,0,1,.56-.45l.29,2.1c.06.38.08.57,0,.72s-.15.3-.12.39.1.16.27.13l1.08-.15c.17,0,.24-.09.23-.2s0-.17-.22-.35-.16-.3-.21-.69l-.3-2.1a.66.66,0,0,1,.67.29c.13.19.3.44.55.4S72.73,8.74,72.68,8.58Z"/><path class="cls-5" d="M76.39,9.49c-.26,0-.34.31-.42.53a.62.62,0,0,1-.55.46h-.07c-.38.06-.51,0-.59-.65l-.07-.47a.67.67,0,0,1,.4,0c.16.11.21.22.33.21s.12-.17.1-.34l-.08-.57c0-.17,0-.32-.19-.3s-.13.14-.26.29-.2.11-.37.15l-.06-.39c-.08-.6,0-.73.36-.79a.63.63,0,0,1,.65.29c.13.19.3.44.55.41s.21-.13.16-.3L76,7.31A.32.32,0,0,0,75.63,7l-2.3.32c-.17,0-.24.09-.23.21s.06.16.23.34a1.41,1.41,0,0,1,.2.69L73.72,10c.06.39.08.57,0,.73s-.14.29-.12.39.11.15.27.13l2.42-.34c.22,0,.31-.12.31-.36s0-.56,0-.81S76.53,9.47,76.39,9.49Z"/><path class="cls-6" d="M69.93,19.54a9.63,9.63,0,1,0-10.87-8.2A9.63,9.63,0,0,0,69.93,19.54Zm0,.37A10,10,0,1,0,58.69,11.4,10,10,0,0,0,70,19.91Z"/></svg>