<svg id="Layer_1" data-name="Layer 1" xmlns="http://www.w3.org/2000/svg" viewBox="0 0 42.03 70.29"><defs><style>.cls-1{fill:#ffad43;}.cls-2{fill:#dd0031;}.cls-3{fill:#fff;}.cls-4{fill:#007ae5;}.cls-5,.cls-6{fill:#0e1e25;}.cls-6{fill-opacity:0.12;fill-rule:evenodd;}</style></defs><path class="cls-1" d="M26.32,7.57l-.24-1.28L24.8,7.73l-2.64-1.2-2.24,1.6.64.56L18.4,13.81l.4,2.56-2.16,3.84L18.16,24l-.8.4-.24,1.36-1.28,1.6-3,2.56-2.32.16-1,1.44-.24,4.4-1.12,2.4L8.4,39,6.88,41.25l-.48,2.4-1.68,1.6L4.24,48,3,49.25l-.24,6.4-.64,1-.64,6.16-.8.88L0,65.89.08,67l1.6,2.56,21,.72L24.56,69l1-1.52h1.28l2.64-1.76,2.08.16,1.76-4.16v-.4l-.88.16.24-.56L31.2,59V56.93l-2.8-3.68.48-4.16Z"/><path class="cls-2" d="M40.82,5.23,22.26,7.84A10,10,0,0,1,40.82,5.23Z"/><path class="cls-3" d="M41.8,12.17a9.86,9.86,0,0,0,.13-3.56,9.82,9.82,0,0,0-1.11-3.38L22.26,7.84a9.93,9.93,0,0,0,1,6.93Z"/><path class="cls-4" d="M41.8,12.17a10,10,0,0,1-18.56,2.6Z"/><path class="cls-3" d="M27.34,5.39l-.49.37a.13.13,0,0,1-.18,0,.1.1,0,0,1,0-.09V5l-.49-.37a.14.14,0,0,1,0-.19s0,0,.07,0l.58-.18L27,3.63a.14.14,0,0,1,.17-.09.18.18,0,0,1,.07,0l.34.53h.6a.14.14,0,0,1,.14.14.11.11,0,0,1,0,.08l-.37.5.19.6a.14.14,0,0,1-.08.17h-.09Z"/><path class="cls-3" d="M31.2,4.09l-.49.37a.13.13,0,0,1-.18,0,.16.16,0,0,1,0-.09l0-.63L30,3.34a.14.14,0,0,1,0-.19s0,0,.07,0l.58-.18.18-.59A.13.13,0,0,1,31,2.24a.15.15,0,0,1,.06,0l.35.53H32a.14.14,0,0,1,.13.14.19.19,0,0,1,0,.08l-.37.5.19.6a.14.14,0,0,1-.09.17.11.11,0,0,1-.08,0Z"/><path class="cls-3" d="M35.27,4.28l-.49.37a.13.13,0,0,1-.19,0,.19.19,0,0,1,0-.08V3.9l-.49-.38a.14.14,0,0,1,0-.19.15.15,0,0,1,.06-.05l.58-.17.19-.6a.13.13,0,0,1,.23,0l.34.52h.61a.13.13,0,0,1,.13.14.11.11,0,0,1,0,.08l-.36.5.18.6a.13.13,0,0,1-.08.17h-.08Z"/><path class="cls-3" d="M29,17.28l-.49.37a.13.13,0,0,1-.18,0,.11.11,0,0,1,0-.08V16.9l-.49-.38a.14.14,0,0,1,0-.19.18.18,0,0,1,.07,0l.58-.17.19-.6a.13.13,0,0,1,.23,0l.34.52h.6a.14.14,0,0,1,.14.14.11.11,0,0,1,0,.08l-.37.5.19.6a.14.14,0,0,1-.08.17.14.14,0,0,1-.09,0Z"/><path class="cls-3" d="M33,17.22l-.48.36a.13.13,0,0,1-.19,0,.19.19,0,0,1,0-.08v-.63l-.49-.38a.14.14,0,0,1,0-.19.18.18,0,0,1,.07-.05l.58-.17.19-.6a.13.13,0,0,1,.16-.09.13.13,0,0,1,.07.06l.34.52h.61a.13.13,0,0,1,.13.14.13.13,0,0,1,0,.08l-.37.49.19.61a.14.14,0,0,1-.08.17.1.1,0,0,1-.09,0Z"/><path class="cls-3" d="M36.94,16.17l-.49.36a.13.13,0,0,1-.19,0,.24.24,0,0,1,0-.08v-.63l-.49-.38a.14.14,0,0,1,0-.19s0,0,.06-.05l.58-.17.19-.6a.13.13,0,0,1,.16-.09.13.13,0,0,1,.07.06l.34.52h.61a.15.15,0,0,1,.13.14.16.16,0,0,1,0,.09l-.36.49.18.6a.12.12,0,0,1-.08.17.11.11,0,0,1-.08,0Z"/><path class="cls-5" d="M27.35,8.69l-.63.08c-.16,0-.22.09-.23.21,0,.31.38.23.19,1.07l-.42,1.82-.88-1.64c-.38-.71.08-.77,0-1.09,0-.11-.14-.15-.31-.13l-1.21.17c-.17,0-.23.09-.23.21,0,.29.29.17.73,1l1.12,2c.22.41.35.42.71.37s.44-.16.52-.53c0-.12.3-1.35.51-2.3s.5-.84.46-1.15C27.64,8.7,27.52,8.66,27.35,8.69Z"/><path class="cls-5" d="M29.87,8.29a1.89,1.89,0,0,0-1.69,2.25,2,2,0,1,0,4-.55A1.89,1.89,0,0,0,29.87,8.29Zm.49,3.46c-.51.07-.89-.49-1-1.37s.09-1.52.6-1.6.9.5,1,1.37S30.87,11.68,30.36,11.75Z"/><path class="cls-5" d="M36.12,8.58l-.25-.76c-.07-.24-.18-.31-.4-.27l-2.62.36c-.23,0-.32.13-.32.38s0,.55,0,.79.1.26.25.25.33-.33.41-.55a.62.62,0,0,1,.55-.45l.3,2.1a1.38,1.38,0,0,1,0,.72c-.12.22-.15.3-.13.39s.11.16.28.13l1.08-.15c.17,0,.24-.09.23-.2s-.06-.17-.23-.35-.15-.3-.2-.69l-.3-2.1a.66.66,0,0,1,.67.29c.13.19.29.44.54.4A.2.2,0,0,0,36.12,8.58Z"/><path class="cls-5" d="M39.83,9.49c-.26,0-.34.31-.42.53a.62.62,0,0,1-.56.46h-.07c-.37.06-.5,0-.59-.65l-.06-.47a.68.68,0,0,1,.4,0c.16.11.2.22.32.21s.13-.17.11-.34l-.08-.57c0-.17-.05-.32-.2-.3s-.13.14-.25.29a.71.71,0,0,1-.38.15l0-.39c-.09-.6,0-.73.35-.79A.65.65,0,0,1,39,8c.13.19.29.44.54.41s.22-.13.17-.3l-.24-.76A.32.32,0,0,0,39.07,7l-2.31.32c-.16,0-.23.09-.22.21s.05.16.22.34.15.31.2.69l.2,1.38a1.42,1.42,0,0,1,0,.73c-.12.21-.15.29-.13.39s.11.15.28.13l2.42-.34c.22,0,.31-.12.31-.36s0-.56,0-.81S40,9.47,39.83,9.49Z"/><path class="cls-6" d="M33.37,19.54a9.63,9.63,0,1,0-10.87-8.2A9.63,9.63,0,0,0,33.37,19.54Zm.05.37a10,10,0,1,0-11.3-8.51A10,10,0,0,0,33.42,19.91Z"/></svg>