<svg id="Layer_1" data-name="Layer 1" xmlns="http://www.w3.org/2000/svg" viewBox="0 0 45.36 68"><defs><style>.cls-1{fill:#ffad43;}.cls-2{fill:#dd0031;}.cls-3{fill:#fff;}.cls-4{fill:#007ae5;}.cls-5,.cls-6{fill:#0e1e25;}.cls-6{fill-opacity:0.12;fill-rule:evenodd;}</style></defs><path class="cls-1" d="M25.52,54.56,26.8,53H25.52l-.64,1.52-1.68-.64.88.64Zm2.88-4.24,2-2.88.72-3L27.6,51Zm5-34.72,1.28-3.52.72-2.24L18.32,0l-2,.64L14.8,2,13.36,6.32l-2,2.16-2.16,2,1.28,3L9.84,15.6H8.56L7.76,17v5l2.08.72,1.52,3.52h.72l.56,1.36,5,5.76L17,34l-3.68,2L9.84,39H9.2l.64,1.36L8.56,41.76l-3.76.72-2,.64L0,48.8l.56,1.52v1.36H0v.64l3.52,4.32.64-.72.64,1.36H6.24l1.52,2.16L8.56,61l1.92-.72.88.72h2l.72,2.16L12.64,65.2V68l1.44-.56,2.24-1.6V65.2l2-2.08L17,62.4h1.28L19,60.24l2.08-2.16H19l.8-.8h1.28l1.44-2v.64l-.64,1.36,3-1.36-.8-1.36H23.2V53h1.68V50.32h.64l1.28,1.36-.64-1.36,3.52-4.24V43.84l1.44-3.52-.72-.72.72-.64-.72-.72,1.28-.64V36l1,1.6-1.52,6.24h.56l1-7V35.36l1.28-5.6v-3.6l-.56.64-3-1.36H29L27.6,24.8V22.64L29,19.92l1.44-2.24V19l2.24-1.36Z"/><path class="cls-2" d="M44.15,6,25.59,8.56A10,10,0,0,1,44.15,6Z"/><path class="cls-3" d="M45.13,12.89a10.11,10.11,0,0,0-1-6.94L25.59,8.56a10.08,10.08,0,0,0,1,6.93Z"/><path class="cls-4" d="M45.13,12.89a10,10,0,0,1-18.56,2.6Z"/><path class="cls-3" d="M30.67,6.11l-.49.37a.13.13,0,0,1-.18,0,.15.15,0,0,1,0-.09V5.73l-.49-.37a.14.14,0,0,1,0-.19s0,0,.07,0l.58-.18.19-.59a.12.12,0,0,1,.16-.09.18.18,0,0,1,.07,0l.34.53h.6a.14.14,0,0,1,.14.14.11.11,0,0,1,0,.08l-.37.5.19.6a.14.14,0,0,1-.08.17h-.09Z"/><path class="cls-3" d="M34.53,4.81,34,5.18a.13.13,0,0,1-.18,0,.16.16,0,0,1,0-.09l0-.63-.49-.37a.14.14,0,0,1,0-.19s0-.05.07-.05L34,3.64l.18-.59A.13.13,0,0,1,34.33,3a.15.15,0,0,1,.06,0l.35.53h.6a.14.14,0,0,1,.13.14.19.19,0,0,1,0,.08l-.37.5.19.6a.14.14,0,0,1-.09.17H35.1Z"/><path class="cls-3" d="M38.6,5l-.49.37a.13.13,0,0,1-.19,0,.19.19,0,0,1,0-.08V4.62l-.49-.38a.14.14,0,0,1,0-.19.15.15,0,0,1,.06,0L38,3.83l.19-.6a.13.13,0,0,1,.23,0l.34.52h.61a.13.13,0,0,1,.13.14.11.11,0,0,1,0,.08l-.36.5.18.6a.13.13,0,0,1-.08.17.11.11,0,0,1-.08,0Z"/><path class="cls-3" d="M32.34,18l-.49.37a.13.13,0,0,1-.18,0,.11.11,0,0,1,0-.08v-.63l-.49-.38a.14.14,0,0,1,0-.19.18.18,0,0,1,.07-.05l.58-.17.19-.6a.13.13,0,0,1,.23,0l.34.52h.61a.13.13,0,0,1,.13.14.11.11,0,0,1,0,.08l-.37.5.19.6a.13.13,0,0,1-.08.17.14.14,0,0,1-.09,0Z"/><path class="cls-3" d="M36.37,17.94l-.48.36a.13.13,0,0,1-.19,0,.19.19,0,0,1,0-.08v-.63l-.49-.38a.14.14,0,0,1,0-.19.18.18,0,0,1,.07,0l.58-.17.19-.6a.13.13,0,0,1,.16-.09.13.13,0,0,1,.07.06l.34.52h.61a.13.13,0,0,1,.13.14.13.13,0,0,1,0,.08l-.37.49.19.61a.14.14,0,0,1-.08.17.1.1,0,0,1-.09,0Z"/><path class="cls-3" d="M40.27,16.89l-.49.36a.12.12,0,0,1-.18,0,.13.13,0,0,1,0-.08v-.63l-.48-.38a.13.13,0,0,1,0-.19s0,0,.06,0l.58-.17.19-.6a.13.13,0,0,1,.16-.09.11.11,0,0,1,.07.06l.34.52h.61a.15.15,0,0,1,.13.14.16.16,0,0,1,0,.09l-.36.49.18.6a.12.12,0,0,1-.08.17h-.08Z"/><path class="cls-5" d="M30.68,9.41l-.63.08c-.16,0-.22.09-.23.21,0,.31.38.23.19,1.07l-.42,1.82L28.71,11c-.38-.71.08-.77,0-1.09,0-.11-.14-.15-.31-.13l-1.21.17c-.16,0-.23.09-.23.21,0,.29.29.17.73,1l1.12,2.05c.22.41.35.42.71.37s.44-.16.52-.53c0-.12.3-1.35.51-2.3S31,9.85,31,9.54C31,9.42,30.85,9.38,30.68,9.41Z"/><path class="cls-5" d="M33.21,9a1.89,1.89,0,0,0-1.7,2.25,2,2,0,1,0,3.95-.55A1.89,1.89,0,0,0,33.21,9Zm.48,3.46c-.51.07-.89-.49-1-1.37s.09-1.52.61-1.6.89.5,1,1.37S34.2,12.4,33.69,12.47Z"/><path class="cls-5" d="M39.45,9.3l-.25-.76c-.07-.24-.17-.31-.4-.27l-2.62.36c-.23,0-.32.13-.32.38s0,.55,0,.79.1.26.25.25.33-.33.41-.55A.62.62,0,0,1,37,9.05l.3,2.1a1.38,1.38,0,0,1,0,.72c-.12.22-.15.3-.13.39s.11.16.28.13l1.08-.15c.17,0,.24-.09.23-.2s-.06-.17-.23-.35-.15-.3-.2-.69l-.3-2.1a.66.66,0,0,1,.67.29c.13.19.29.44.54.4A.2.2,0,0,0,39.45,9.3Z"/><path class="cls-5" d="M43.16,10.21c-.26,0-.34.31-.42.53a.62.62,0,0,1-.56.46h-.07c-.37.06-.5,0-.59-.65l-.06-.47a.67.67,0,0,1,.4,0c.16.11.2.22.32.21s.13-.17.11-.34l-.08-.57c0-.17-.05-.32-.2-.3s-.13.14-.25.29a.71.71,0,0,1-.38.15l-.05-.39c-.09-.6,0-.73.35-.79a.65.65,0,0,1,.66.29c.13.19.29.44.54.41s.22-.13.17-.3L42.81,8a.32.32,0,0,0-.41-.27l-2.31.32c-.16,0-.23.09-.22.21s.05.16.22.34.15.31.21.69l.19,1.38a1.42,1.42,0,0,1,0,.73c-.12.21-.15.29-.13.39s.11.15.28.13l2.42-.34c.22,0,.31-.12.31-.36s0-.56,0-.81S43.29,10.19,43.16,10.21Z"/><path class="cls-6" d="M36.7,20.26a9.63,9.63,0,1,0-10.87-8.2A9.63,9.63,0,0,0,36.7,20.26Zm0,.37a10,10,0,1,0-11.29-8.51A10,10,0,0,0,36.75,20.63Z"/></svg>