<svg id="Layer_1" data-name="Layer 1" xmlns="http://www.w3.org/2000/svg" viewBox="0 0 61.5 67.59"><defs><style>.cls-1{fill:#ffad43;}.cls-2{fill:#dd0031;}.cls-3{fill:#fff;}.cls-4{fill:#007ae5;}.cls-5,.cls-6{fill:#0e1e25;}.cls-6{fill-opacity:0.12;fill-rule:evenodd;}</style></defs><path class="cls-1" d="M22.48,62.79,21.68,61H53.76L53.6,8.55H28.24l-25.52-1L0,67.27l7.36.32.32-4.8,15.44.56Z"/><path class="cls-2" d="M60.29,5.23,41.73,7.84A10,10,0,0,1,60.29,5.23Z"/><path class="cls-3" d="M61.27,12.17a10,10,0,0,0-1-6.94L41.73,7.84a10.08,10.08,0,0,0,1,6.93Z"/><path class="cls-4" d="M61.27,12.17a10,10,0,0,1-18.56,2.6Z"/><path class="cls-3" d="M46.81,5.39l-.49.37a.13.13,0,0,1-.18,0,.15.15,0,0,1,0-.09V5l-.49-.37a.14.14,0,0,1,0-.19s0,0,.07,0l.58-.18.19-.59a.12.12,0,0,1,.16-.09.18.18,0,0,1,.07,0l.34.53h.61a.14.14,0,0,1,.13.14.11.11,0,0,1,0,.08l-.37.5.19.6a.13.13,0,0,1-.08.17h-.09Z"/><path class="cls-3" d="M50.67,4.09l-.49.37a.13.13,0,0,1-.18,0,.16.16,0,0,1,0-.09l0-.63-.49-.37a.14.14,0,0,1,0-.19s0,0,.07,0l.58-.18.18-.59a.14.14,0,0,1,.17-.09.18.18,0,0,1,.07,0l.34.53h.6a.13.13,0,0,1,.13.14.11.11,0,0,1,0,.08l-.37.5.19.6a.14.14,0,0,1-.09.17.11.11,0,0,1-.08,0Z"/><path class="cls-3" d="M54.74,4.28l-.49.37a.12.12,0,0,1-.18,0,.11.11,0,0,1,0-.08l0-.63-.49-.38a.13.13,0,0,1,0-.19.13.13,0,0,1,.07-.05l.57-.17.19-.6a.12.12,0,0,1,.16-.08s.06,0,.07,0L55,3h.6a.13.13,0,0,1,.13.14.11.11,0,0,1,0,.08l-.36.5.18.6a.13.13,0,0,1-.08.17h-.08Z"/><path class="cls-3" d="M48.48,17.28l-.48.37a.14.14,0,0,1-.19,0,.19.19,0,0,1,0-.08V16.9l-.49-.38a.14.14,0,0,1,0-.19.18.18,0,0,1,.07,0l.58-.17.19-.6a.13.13,0,0,1,.23,0l.34.52h.61a.13.13,0,0,1,.13.14.11.11,0,0,1,0,.08l-.37.5.19.6a.13.13,0,0,1-.08.17.14.14,0,0,1-.09,0Z"/><path class="cls-3" d="M52.52,17.22l-.49.36a.13.13,0,0,1-.19,0,.19.19,0,0,1,0-.08v-.63l-.49-.38a.15.15,0,0,1,0-.19l.07-.05.58-.17.19-.6a.13.13,0,0,1,.16-.09.13.13,0,0,1,.07.06l.34.52h.61a.13.13,0,0,1,.13.14.13.13,0,0,1,0,.08l-.36.49.18.61a.13.13,0,0,1-.08.17.08.08,0,0,1-.08,0Z"/><path class="cls-3" d="M56.41,16.17l-.49.36a.12.12,0,0,1-.18,0,.13.13,0,0,1,0-.08l0-.63-.49-.38a.13.13,0,0,1,0-.19s0,0,.07-.05l.57-.17.19-.6a.14.14,0,0,1,.17-.09.12.12,0,0,1,.06.06l.35.52h.6a.15.15,0,0,1,.13.14.16.16,0,0,1,0,.09l-.36.49.19.6a.13.13,0,0,1-.09.17.11.11,0,0,1-.08,0Z"/><path class="cls-5" d="M46.82,8.69l-.62.08C46,8.8,46,8.86,46,9c0,.31.39.23.19,1.07l-.42,1.82-.88-1.64c-.38-.71.08-.77,0-1.09,0-.11-.14-.15-.31-.13l-1.21.17c-.16,0-.23.09-.23.21,0,.29.29.17.73,1l1.12,2c.22.41.35.42.71.37s.44-.16.53-.53c0-.12.29-1.35.5-2.3s.51-.84.46-1.15C47.12,8.7,47,8.66,46.82,8.69Z"/><path class="cls-5" d="M49.35,8.29a1.89,1.89,0,0,0-1.7,2.25,2,2,0,1,0,4-.55A1.89,1.89,0,0,0,49.35,8.29Zm.48,3.46c-.51.07-.89-.49-1-1.37s.1-1.52.61-1.6.89.5,1,1.37S50.34,11.68,49.83,11.75Z"/><path class="cls-5" d="M55.59,8.58c-.07-.24-.18-.54-.25-.76s-.17-.31-.4-.27l-2.62.36C52.09,8,52,8,52,8.29s0,.55,0,.79a.22.22,0,0,0,.25.25c.25,0,.33-.33.41-.55a.62.62,0,0,1,.56-.45l.29,2.1c.06.38.08.57,0,.72s-.15.3-.13.39.11.16.28.13l1.08-.15c.17,0,.24-.09.23-.2s0-.17-.22-.35-.16-.3-.21-.69l-.3-2.1a.66.66,0,0,1,.67.29c.13.19.29.44.54.4A.2.2,0,0,0,55.59,8.58Z"/><path class="cls-5" d="M59.3,9.49c-.26,0-.34.31-.42.53a.62.62,0,0,1-.56.46h-.07c-.37.06-.5,0-.59-.65l-.06-.47a.67.67,0,0,1,.4,0c.16.11.21.22.32.21s.13-.17.11-.34l-.08-.57c0-.17-.05-.32-.19-.3s-.13.14-.26.29-.2.11-.38.15l-.05-.39c-.09-.6,0-.73.35-.79a.65.65,0,0,1,.66.29c.13.19.3.44.55.41s.21-.13.16-.3L59,7.31A.32.32,0,0,0,58.54,7l-2.31.32c-.16,0-.23.09-.22.21s.05.16.22.34.15.31.21.69L56.63,10c0,.39.08.57,0,.73s-.14.29-.13.39.12.15.28.13l2.42-.34c.22,0,.31-.12.31-.36s0-.56,0-.81S59.43,9.47,59.3,9.49Z"/><path class="cls-6" d="M52.84,19.54A9.63,9.63,0,1,0,42,11.34,9.62,9.62,0,0,0,52.84,19.54Zm0,.37A10,10,0,1,0,41.6,11.4,10,10,0,0,0,52.89,19.91Z"/></svg>