<svg id="Layer_1" data-name="Layer 1" xmlns="http://www.w3.org/2000/svg" viewBox="0 0 49.93 69.44"><defs><style>.cls-1{fill:#ffad43;}.cls-2{fill:#dd0031;}.cls-3{fill:#fff;}.cls-4{fill:#007ae5;}.cls-5,.cls-6{fill:#0e1e25;}.cls-6{fill-opacity:0.12;fill-rule:evenodd;}</style></defs><path class="cls-1" d="M41.84,58.8,41,7l-19.92.16L1.36,6.24,0,33.12,37.92,69.44l.32-1.84-.56-2.8L37,59.68l1.28-.48h1.44l1.28,1,.48-.16Z"/><path class="cls-2" d="M48.73,5.23,30.16,7.84A10,10,0,0,1,48.73,5.23Z"/><path class="cls-3" d="M49.7,12.17a10.08,10.08,0,0,0,.14-3.56,10.27,10.27,0,0,0-1.11-3.38L30.16,7.84A10.09,10.09,0,0,0,30,11.4a9.84,9.84,0,0,0,1.11,3.37Z"/><path class="cls-4" d="M49.7,12.17a10,10,0,0,1-18.56,2.6Z"/><path class="cls-3" d="M35.24,5.39l-.48.37a.14.14,0,0,1-.19,0,.29.29,0,0,1,0-.09V5l-.49-.37a.14.14,0,0,1,0-.19s0,0,.07,0l.58-.18.19-.59A.12.12,0,0,1,35,3.54a.18.18,0,0,1,.07,0l.34.53h.61a.14.14,0,0,1,.13.14.11.11,0,0,1,0,.08l-.37.5.19.6a.13.13,0,0,1-.08.17h-.09Z"/><path class="cls-3" d="M39.1,4.09l-.49.37a.13.13,0,0,1-.18,0,.16.16,0,0,1,0-.09l0-.63-.49-.37a.14.14,0,0,1,0-.19s0,0,.07,0l.58-.18.18-.59a.14.14,0,0,1,.17-.09.18.18,0,0,1,.07,0l.34.53h.6a.14.14,0,0,1,.14.14A.11.11,0,0,1,40,3l-.37.5.19.6a.14.14,0,0,1-.08.17.14.14,0,0,1-.09,0Z"/><path class="cls-3" d="M43.17,4.28l-.49.37a.12.12,0,0,1-.18,0,.11.11,0,0,1,0-.08l0-.63L42,3.52a.13.13,0,0,1,0-.19A.13.13,0,0,1,42,3.28l.57-.17.19-.6A.13.13,0,0,1,43,2.43s.05,0,.06,0l.35.52H44a.13.13,0,0,1,.13.14.11.11,0,0,1,0,.08l-.36.5.19.6a.14.14,0,0,1-.09.17h-.08Z"/><path class="cls-3" d="M36.91,17.28l-.48.37a.14.14,0,0,1-.19,0,.19.19,0,0,1,0-.08V16.9l-.49-.38a.14.14,0,0,1,0-.19.18.18,0,0,1,.07,0l.58-.17.19-.6a.13.13,0,0,1,.23,0l.34.52h.61a.13.13,0,0,1,.13.14.11.11,0,0,1,0,.08l-.37.5.19.6a.13.13,0,0,1-.08.17.14.14,0,0,1-.09,0Z"/><path class="cls-3" d="M41,17.22l-.49.36a.13.13,0,0,1-.19,0,.19.19,0,0,1,0-.08v-.63l-.49-.38a.14.14,0,0,1,0-.19.15.15,0,0,1,.06-.05l.58-.17.19-.6a.13.13,0,0,1,.16-.09.13.13,0,0,1,.07.06l.34.52h.61a.13.13,0,0,1,.13.14.13.13,0,0,1,0,.08l-.36.49.18.61a.13.13,0,0,1-.08.17.08.08,0,0,1-.08,0Z"/><path class="cls-3" d="M44.84,16.17l-.49.36a.12.12,0,0,1-.18,0,.13.13,0,0,1,0-.08l0-.63-.49-.38a.14.14,0,0,1,0-.19s0,0,.07-.05l.58-.17.18-.6a.14.14,0,0,1,.17-.09.12.12,0,0,1,.06.06l.35.52h.6a.15.15,0,0,1,.13.14.29.29,0,0,1,0,.09l-.37.49.19.6a.13.13,0,0,1-.09.17.11.11,0,0,1-.08,0Z"/><path class="cls-5" d="M35.25,8.69l-.62.08c-.17,0-.22.09-.24.21,0,.31.39.23.19,1.07l-.42,1.82-.88-1.64c-.38-.71.08-.77,0-1.09C33.23,9,33.12,9,33,9l-1.2.17c-.17,0-.24.09-.24.21,0,.29.29.17.73,1l1.12,2c.22.41.35.42.71.37s.44-.16.53-.53c0-.12.29-1.35.51-2.3s.5-.84.45-1.15C35.55,8.7,35.42,8.66,35.25,8.69Z"/><path class="cls-5" d="M37.78,8.29a1.89,1.89,0,0,0-1.7,2.25A2,2,0,1,0,40,10,1.89,1.89,0,0,0,37.78,8.29Zm.48,3.46c-.51.07-.89-.49-1-1.37s.1-1.52.61-1.6.89.5,1,1.37S38.77,11.68,38.26,11.75Z"/><path class="cls-5" d="M44,8.58c-.07-.24-.18-.54-.25-.76s-.17-.31-.4-.27l-2.62.36c-.23,0-.32.13-.32.38s0,.55,0,.79a.22.22,0,0,0,.25.25c.25,0,.33-.33.41-.55a.62.62,0,0,1,.56-.45l.29,2.1c.06.38.08.57,0,.72s-.15.3-.12.39.1.16.27.13l1.08-.15c.17,0,.24-.09.23-.2s0-.17-.22-.35-.16-.3-.21-.69l-.3-2.1a.66.66,0,0,1,.67.29c.13.19.29.44.54.4A.2.2,0,0,0,44,8.58Z"/><path class="cls-5" d="M47.73,9.49c-.26,0-.34.31-.42.53a.62.62,0,0,1-.55.46h-.08c-.37.06-.5,0-.59-.65L46,9.37a.67.67,0,0,1,.4,0c.16.11.21.22.33.21s.12-.17.1-.34l-.08-.57c0-.17-.05-.32-.19-.3s-.13.14-.26.29-.2.11-.38.15l-.05-.39c-.08-.6,0-.73.35-.79a.65.65,0,0,1,.66.29c.13.19.3.44.55.41s.21-.13.16-.3l-.24-.76A.32.32,0,0,0,47,7l-2.3.32c-.17,0-.24.09-.23.21s.06.16.22.34.15.31.21.69L45.06,10c.06.39.08.57,0,.73s-.14.29-.12.39.11.15.27.13l2.42-.34c.22,0,.31-.12.31-.36s0-.56,0-.81S47.87,9.47,47.73,9.49Z"/><path class="cls-6" d="M41.27,19.54a9.63,9.63,0,1,0-10.87-8.2A9.62,9.62,0,0,0,41.27,19.54Zm0,.37A10,10,0,1,0,30,11.4,10,10,0,0,0,41.32,19.91Z"/></svg>