<svg id="Layer_1" data-name="Layer 1" xmlns="http://www.w3.org/2000/svg" viewBox="0 0 84.16 72.18"><defs><style>.cls-1{fill:#ffad43;}.cls-2{fill:#dd0031;}.cls-3{fill:#fff;}.cls-4{fill:#007ae5;}.cls-5,.cls-6{fill:#0e1e25;}.cls-6{fill-opacity:0.12;fill-rule:evenodd;}</style></defs><path class="cls-1" d="M60.48,70.18l-1.2.16-.72,1.84L60.48,71Zm9-.4-1,.24-2.48.56,1.76-.16Zm1,.24,3.92-1.84-5.44,2v.16Zm9.52-7-1-.16-3,2.4-5.28.32-1.12.8-2-.56.4.72-.8-.72-.4.8-1.44-.08L65,67.62l-.72-.88-.16,1-.24-.24v.64L62,68.34l-1.28,1.84.4,1,1.36-.32-.24-.56L63,70l.8.56-1.84.8,3.68-.48-1.44-.32,11.6-3-1,.56,9.28-4.4-2.72,1-.72-.8-.08.56L79.2,64.5l-1.44,1.84H75.92Zm2.56-1.84h.16l.56-.56-1,.4ZM9.92,35l-1-.48-.08.88.48.4ZM38.08,22.26l.16-.08V21.7l-.72,1ZM39.68,18l-.56.16-.16.24,1-.24Zm1.68-.88-1.28.4.16.64.64-.64Zm11-9-4.08,2L43.68,14l-1.6,3-5.2,3.44.56,1.36,1-.64.88.4-.88,1,1.52-.32-1.68,2.16-.16-.72-.64.72.8,3,.24-.24-.08,1-.88,1L35.92,29l-3,2.64-2.32.4-.32.8-4.08-.88-2.32.56-1.68-1.44-6.48-1L8.32,31.38l-.08,2.56,1.84.8-.56,1,.4,2.8-1.68.88L7,41.38l-6.72,4L0,49.14,46.88,51l.88,1.76,1.92.8.08,3,.72,1.52,2.64,1,.48,1,8.48,5.12-.8-3.84.56-.72.64,4.16-1.36,4.4L62,67.78l1.28-.16L63.12,67,65,65.22l-.88-1.44,2.64-1.68-.8-1L66.4,49.7l2.48-9.36L68.64,29l-.4-1-1.12.72L67,28.1l.56-2.48-.8-3.92,1.12-2.56.4-3-.8-2.4L67.52,9v-.8Z" transform="translate(0 0)"/><path class="cls-2" d="M77.36,5.23,58.79,7.84A10,10,0,0,1,77.36,5.23Z" transform="translate(0 0)"/><path class="cls-3" d="M78.33,12.17a10,10,0,0,0-1-6.94L58.79,7.84a10.09,10.09,0,0,0-.13,3.56,9.84,9.84,0,0,0,1.11,3.37Z" transform="translate(0 0)"/><path class="cls-4" d="M78.33,12.17a10,10,0,0,1-18.56,2.6Z" transform="translate(0 0)"/><path class="cls-3" d="M63.88,5.39l-.49.37a.14.14,0,0,1-.19,0,.29.29,0,0,1,0-.09V5l-.49-.37a.15.15,0,0,1,0-.19.1.1,0,0,1,.07,0l.58-.18.19-.59a.12.12,0,0,1,.16-.09.18.18,0,0,1,.07,0l.34.53h.61a.14.14,0,0,1,.13.14.11.11,0,0,1,0,.08l-.36.5.18.6a.13.13,0,0,1-.08.17h-.08Z" transform="translate(0 0)"/><path class="cls-3" d="M67.73,4.09l-.49.37a.13.13,0,0,1-.18,0,.15.15,0,0,1,0-.09V3.71l-.49-.37a.14.14,0,0,1,0-.19s0,0,.07,0l.58-.18.19-.59a.12.12,0,0,1,.16-.09.18.18,0,0,1,.07,0l.34.53h.61a.14.14,0,0,1,.13.14.11.11,0,0,1,0,.08l-.37.5.19.6a.13.13,0,0,1-.08.17.14.14,0,0,1-.09,0Z" transform="translate(0 0)"/><path class="cls-3" d="M71.8,4.28l-.49.37a.12.12,0,0,1-.18,0,.11.11,0,0,1,0-.08l0-.63-.49-.38a.14.14,0,0,1,0-.19.18.18,0,0,1,.07-.05l.58-.17.18-.6a.13.13,0,0,1,.17-.08s.05,0,.06,0L72,3h.6a.13.13,0,0,1,.13.14.19.19,0,0,1,0,.08l-.37.5.19.6a.14.14,0,0,1-.09.17h-.08Z" transform="translate(0 0)"/><path class="cls-3" d="M65.55,17.28l-.49.37a.14.14,0,0,1-.19,0,.19.19,0,0,1,0-.08V16.9l-.49-.38a.14.14,0,0,1,0-.19.15.15,0,0,1,.06,0l.58-.17.19-.6a.13.13,0,0,1,.23,0l.34.52h.61a.13.13,0,0,1,.13.14.11.11,0,0,1,0,.08l-.36.5.18.6a.13.13,0,0,1-.08.17.11.11,0,0,1-.08,0Z" transform="translate(0 0)"/><path class="cls-3" d="M69.58,17.22l-.49.36a.12.12,0,0,1-.18,0,.11.11,0,0,1,0-.08l0-.63-.49-.38a.13.13,0,0,1,0-.19.13.13,0,0,1,.07-.05l.57-.17.19-.6a.14.14,0,0,1,.17-.09.12.12,0,0,1,.06.06l.35.52h.6a.13.13,0,0,1,.13.14.13.13,0,0,1,0,.08l-.36.49.19.61a.14.14,0,0,1-.09.17.08.08,0,0,1-.08,0Z" transform="translate(0 0)"/><path class="cls-3" d="M73.47,16.17l-.49.36a.12.12,0,0,1-.18,0,.13.13,0,0,1,0-.08l0-.63-.49-.38a.14.14,0,0,1,0-.19.12.12,0,0,1,.07-.05l.58-.17.18-.6a.14.14,0,0,1,.17-.09.19.19,0,0,1,.07.06l.34.52h.6a.15.15,0,0,1,.13.14.29.29,0,0,1,0,.09l-.37.49.19.6a.13.13,0,0,1-.09.17.11.11,0,0,1-.08,0Z" transform="translate(0 0)"/><path class="cls-5" d="M63.88,8.69l-.62.08c-.17,0-.22.09-.23.21,0,.31.38.23.19,1.07l-.42,1.82-.88-1.64c-.39-.71.07-.77,0-1.09,0-.11-.15-.15-.32-.13l-1.2.17c-.17,0-.24.09-.23.21,0,.29.28.17.72,1l1.12,2c.22.41.35.42.71.37s.44-.16.53-.53c0-.12.3-1.35.51-2.3s.5-.84.46-1.15C64.18,8.7,64.05,8.66,63.88,8.69Z" transform="translate(0 0)"/><path class="cls-5" d="M66.41,8.29a1.89,1.89,0,0,0-1.7,2.25,2,2,0,1,0,4-.55A1.88,1.88,0,0,0,66.41,8.29Zm.49,3.46c-.52.07-.9-.49-1-1.37s.09-1.52.6-1.6.89.5,1,1.37S67.41,11.68,66.9,11.75Z" transform="translate(0 0)"/><path class="cls-5" d="M72.65,8.58c-.07-.24-.18-.54-.25-.76s-.17-.31-.4-.27l-2.62.36c-.23,0-.31.13-.32.38s0,.55,0,.79a.22.22,0,0,0,.25.25c.25,0,.33-.33.41-.55a.64.64,0,0,1,.56-.45l.29,2.1c.06.38.08.57,0,.72s-.15.3-.12.39.1.16.27.13l1.08-.15c.17,0,.24-.09.23-.2s0-.17-.22-.35-.16-.3-.21-.69l-.29-2.1a.65.65,0,0,1,.66.29c.13.19.3.44.55.4S72.7,8.74,72.65,8.58Z" transform="translate(0 0)"/><path class="cls-5" d="M76.36,9.49c-.25,0-.34.31-.42.53a.62.62,0,0,1-.55.46h-.07c-.38.06-.51,0-.59-.65l-.07-.47a.67.67,0,0,1,.4,0c.16.11.21.22.33.21s.12-.17.1-.34l-.08-.57c0-.17,0-.32-.19-.3s-.13.14-.26.29-.2.11-.37.15l-.06-.39c-.08-.6,0-.73.36-.79a.63.63,0,0,1,.65.29c.13.19.3.44.55.41s.21-.13.16-.3L76,7.31A.32.32,0,0,0,75.6,7l-2.3.32c-.17,0-.24.09-.23.21s.06.16.23.34a1.31,1.31,0,0,1,.2.69L73.69,10c.06.39.08.57,0,.73s-.14.29-.12.39.11.15.27.13l2.42-.34c.22,0,.31-.12.31-.36s0-.56,0-.81S76.5,9.47,76.36,9.49Z" transform="translate(0 0)"/><path class="cls-6" d="M69.9,19.54A9.63,9.63,0,1,0,59,11.34,9.63,9.63,0,0,0,69.9,19.54Zm.06.37a10,10,0,1,0-11.3-8.51A10,10,0,0,0,70,19.91Z" transform="translate(0 0)"/></svg>