<svg id="Layer_1" data-name="Layer 1" xmlns="http://www.w3.org/2000/svg" viewBox="0 0 65.6 68.94"><defs><style>.cls-1{fill:#ffad43;}.cls-2{fill:#dd0031;}.cls-3{fill:#fff;}.cls-4{fill:#007ae5;}.cls-5,.cls-6{fill:#0e1e25;}.cls-6{fill-opacity:0.12;fill-rule:evenodd;}</style></defs><path class="cls-1" d="M55.6,31.26,55,8.94l-10.4,4.48-4.8,3.92-3.68-.16L30.88,19.1l-1.2-.24L28,17.5l1,1-2.32-.72-1.6.72-1.68-.64,4.48-.72-1.92-1.36-.48.88-1.28-.08L23,15.26l-4.72-1.84-16.8.16L0,57.1l1.36-.8,1.2,1.2,2.24-.4,1.92,1.52,1.2,3.28,1.68.88L11,62.62l1.36.32,2,2.24h.88l.32-.72L17,64l2.08.88.72,1,2-.16L23.36,64,25,63.42l1,2.64,1.68,1L29,68.94l3.52-.48.56-2.4,1.52-.4-.48-2.88,2-3.6.72-.32.72.48.64,1.92.88-1.36.88.16-.24-1.6-.64-.8.88-.24v-1.2l1-1.68h1.28l.32-1.2,1.2-1h.64l.72,1L47,52.46l4.48-3.92.4-1.68-.4-.88.88-1.68-.16-.88h.64L53,40.86l1.6-4-.32-1L54.56,34l-.88-1.68Z" transform="translate(0 0)"/><path class="cls-2" d="M64.39,5.23,45.83,7.84A10,10,0,0,1,64.39,5.23Z" transform="translate(0 0)"/><path class="cls-3" d="M65.37,12.17a9.86,9.86,0,0,0,.13-3.56,9.82,9.82,0,0,0-1.11-3.38L45.83,7.84a10.08,10.08,0,0,0,1,6.93Z" transform="translate(0 0)"/><path class="cls-4" d="M65.37,12.17a10,10,0,0,1-18.56,2.6Z" transform="translate(0 0)"/><path class="cls-3" d="M50.91,5.39l-.49.37a.13.13,0,0,1-.18,0,.15.15,0,0,1,0-.09V5l-.49-.37a.14.14,0,0,1,0-.19s0,0,.07,0l.58-.18.19-.59a.12.12,0,0,1,.16-.09.18.18,0,0,1,.07,0l.34.53h.6a.14.14,0,0,1,.14.14.11.11,0,0,1,0,.08l-.37.5.19.6a.14.14,0,0,1-.08.17h-.09Z" transform="translate(0 0)"/><path class="cls-3" d="M54.77,4.09l-.49.37a.13.13,0,0,1-.18,0,.16.16,0,0,1,0-.09l0-.63-.49-.37a.14.14,0,0,1,0-.19s0,0,.07,0l.58-.18.18-.59a.13.13,0,0,1,.17-.09.15.15,0,0,1,.06,0l.35.53h.6a.14.14,0,0,1,.13.14.19.19,0,0,1,0,.08l-.37.5.19.6a.14.14,0,0,1-.09.17.11.11,0,0,1-.08,0Z" transform="translate(0 0)"/><path class="cls-3" d="M58.84,4.28l-.49.37a.13.13,0,0,1-.19,0,.19.19,0,0,1,0-.08V3.9l-.49-.38a.14.14,0,0,1,0-.19.15.15,0,0,1,.06-.05l.58-.17.19-.6a.13.13,0,0,1,.23,0L59,3h.61a.13.13,0,0,1,.13.14.11.11,0,0,1,0,.08l-.36.5.18.6a.13.13,0,0,1-.08.17h-.08Z" transform="translate(0 0)"/><path class="cls-3" d="M52.58,17.28l-.49.37a.13.13,0,0,1-.18,0,.11.11,0,0,1,0-.08V16.9l-.49-.38a.14.14,0,0,1,0-.19.18.18,0,0,1,.07,0l.58-.17.19-.6a.13.13,0,0,1,.23,0l.34.52h.61a.13.13,0,0,1,.13.14.11.11,0,0,1,0,.08l-.37.5.19.6a.13.13,0,0,1-.08.17.14.14,0,0,1-.09,0Z" transform="translate(0 0)"/><path class="cls-3" d="M56.61,17.22l-.48.36a.13.13,0,0,1-.19,0,.19.19,0,0,1,0-.08v-.63l-.49-.38a.14.14,0,0,1,0-.19.18.18,0,0,1,.07-.05l.58-.17.19-.6a.13.13,0,0,1,.16-.09.13.13,0,0,1,.07.06l.34.52h.61a.13.13,0,0,1,.13.14.13.13,0,0,1,0,.08l-.37.49.19.61a.14.14,0,0,1-.08.17.1.1,0,0,1-.09,0Z" transform="translate(0 0)"/><path class="cls-3" d="M60.51,16.17l-.49.36a.12.12,0,0,1-.18,0,.13.13,0,0,1,0-.08v-.63l-.48-.38a.13.13,0,0,1,0-.19s0,0,.06-.05L60,15l.19-.6a.13.13,0,0,1,.16-.09.11.11,0,0,1,.07.06l.34.52h.61a.15.15,0,0,1,.13.14.16.16,0,0,1,0,.09l-.36.49.18.6a.12.12,0,0,1-.08.17.11.11,0,0,1-.08,0Z" transform="translate(0 0)"/><path class="cls-5" d="M50.92,8.69l-.63.08c-.16,0-.22.09-.23.21,0,.31.38.23.19,1.07l-.42,1.82L49,10.23c-.38-.71.08-.77,0-1.09,0-.11-.14-.15-.31-.13l-1.21.17c-.16,0-.23.09-.23.21,0,.29.29.17.73,1l1.12,2c.22.41.35.42.71.37s.44-.16.52-.53c0-.12.3-1.35.51-2.3s.51-.84.46-1.15C51.22,8.7,51.09,8.66,50.92,8.69Z" transform="translate(0 0)"/><path class="cls-5" d="M53.45,8.29a1.89,1.89,0,0,0-1.7,2.25,2,2,0,1,0,4-.55A1.89,1.89,0,0,0,53.45,8.29Zm.48,3.46c-.51.07-.89-.49-1-1.37s.09-1.52.61-1.6.89.5,1,1.37S54.44,11.68,53.93,11.75Z" transform="translate(0 0)"/><path class="cls-5" d="M59.69,8.58l-.25-.76c-.07-.24-.17-.31-.4-.27l-2.62.36c-.23,0-.32.13-.32.38s0,.55,0,.79.1.26.25.25.33-.33.41-.55a.62.62,0,0,1,.55-.45l.3,2.1a1.38,1.38,0,0,1,0,.72c-.12.22-.15.3-.13.39s.11.16.28.13l1.08-.15c.17,0,.24-.09.23-.2s-.06-.17-.23-.35-.15-.3-.2-.69l-.3-2.1a.66.66,0,0,1,.67.29c.13.19.29.44.54.4A.2.2,0,0,0,59.69,8.58Z" transform="translate(0 0)"/><path class="cls-5" d="M63.4,9.49c-.26,0-.34.31-.42.53a.62.62,0,0,1-.56.46h-.07c-.37.06-.5,0-.59-.65l-.06-.47a.67.67,0,0,1,.4,0c.16.11.2.22.32.21s.13-.17.11-.34l-.08-.57c0-.17-.05-.32-.2-.3s-.13.14-.25.29a.71.71,0,0,1-.38.15l0-.39c-.09-.6,0-.73.35-.79a.65.65,0,0,1,.66.29c.13.19.29.44.54.41s.22-.13.17-.3l-.24-.76A.32.32,0,0,0,62.64,7l-2.31.32c-.16,0-.23.09-.22.21s0,.16.22.34.15.31.21.69L60.73,10a1.42,1.42,0,0,1,0,.73c-.12.21-.15.29-.13.39s.11.15.28.13l2.42-.34c.22,0,.31-.12.31-.36s0-.56,0-.81S63.53,9.47,63.4,9.49Z" transform="translate(0 0)"/><path class="cls-6" d="M56.94,19.54a9.63,9.63,0,1,0-10.87-8.2A9.63,9.63,0,0,0,56.94,19.54Zm.05.37A10,10,0,1,0,45.7,11.4,10,10,0,0,0,57,19.91Z" transform="translate(0 0)"/></svg>