<svg id="Layer_1" data-name="Layer 1" xmlns="http://www.w3.org/2000/svg" viewBox="0 0 86 46.74"><defs><style>.cls-1{fill:#ffad43;}.cls-2{fill:#dd0031;}.cls-3{fill:#fff;}.cls-4{fill:#007ae5;}.cls-5,.cls-6{fill:#0e1e25;}.cls-6{fill-opacity:0.12;fill-rule:evenodd;}</style></defs><path class="cls-1" d="M79.52,13.3l-.16-5.92L40,7.94.32,6.74,0,12.58l28.32,1L28,36.18h1l2.16,2.4,2.48.16.48-1.12,1.68,1.76.08,1,4.48,1.2,1.28-.32,1,1,1.44-.8h2.4L46.56,43l1.28.24.32,1.52H49l2-1.52,2,2.08,2.16-1,.72,2.16.64-1.76,1.44-1,1.68,1.2,1.52-.56.08.56,2.56,1.68.56-.64,3.2-1.6,1.6.24,1.68-1.2,1,1H73.2l1.36-1.2,2.4,1.2,1.12,1.12,3.84,1.2L81.6,26.5Z" transform="translate(0 0)"/><path class="cls-2" d="M84.79,5.23,66.23,7.84A10,10,0,0,1,84.79,5.23Z" transform="translate(0 0)"/><path class="cls-3" d="M85.76,12.17a10,10,0,0,0-1-6.94L66.23,7.84a10,10,0,0,0,1,6.93Z" transform="translate(0 0)"/><path class="cls-4" d="M85.76,12.17a10,10,0,0,1-18.56,2.6Z" transform="translate(0 0)"/><path class="cls-3" d="M71.31,5.39l-.49.37a.13.13,0,0,1-.18,0,.16.16,0,0,1,0-.09l0-.63-.49-.37a.14.14,0,0,1,0-.19s0,0,.07,0l.58-.18.18-.59a.13.13,0,0,1,.17-.09.15.15,0,0,1,.06,0l.35.53h.6a.14.14,0,0,1,.13.14.19.19,0,0,1,0,.08l-.37.5.19.6a.14.14,0,0,1-.09.17h-.08Z" transform="translate(0 0)"/><path class="cls-3" d="M75.17,4.09l-.49.37a.14.14,0,0,1-.19,0,.29.29,0,0,1,0-.09V3.71L74,3.34a.14.14,0,0,1,0-.19.07.07,0,0,1,.06,0l.58-.18.19-.59A.12.12,0,0,1,75,2.24a.13.13,0,0,1,.07,0l.34.53H76a.14.14,0,0,1,.13.14.11.11,0,0,1,0,.08l-.36.5.18.6a.13.13,0,0,1-.08.17.11.11,0,0,1-.08,0Z" transform="translate(0 0)"/><path class="cls-3" d="M79.23,4.28l-.49.37a.12.12,0,0,1-.18,0,.11.11,0,0,1,0-.08V3.9l-.49-.38a.14.14,0,0,1,0-.19.18.18,0,0,1,.07-.05l.58-.17.19-.6a.13.13,0,0,1,.23,0l.34.52h.61a.13.13,0,0,1,.13.14.11.11,0,0,1,0,.08l-.37.5.19.6a.13.13,0,0,1-.08.17H79.8Z" transform="translate(0 0)"/><path class="cls-3" d="M73,17.28l-.49.37a.13.13,0,0,1-.18,0,.11.11,0,0,1,0-.08l0-.63-.49-.38a.14.14,0,0,1,0-.19.18.18,0,0,1,.07,0l.58-.17.18-.6a.13.13,0,0,1,.17-.08s0,0,.06.05l.35.52h.6a.13.13,0,0,1,.13.14.19.19,0,0,1,0,.08l-.37.5.19.6a.14.14,0,0,1-.09.17.11.11,0,0,1-.08,0Z" transform="translate(0 0)"/><path class="cls-3" d="M77,17.22l-.49.36a.12.12,0,0,1-.18,0,.11.11,0,0,1,0-.08l0-.63-.49-.38a.14.14,0,0,1,0-.19.18.18,0,0,1,.07-.05l.58-.17.18-.6a.14.14,0,0,1,.17-.09.13.13,0,0,1,.07.06l.34.52h.6a.13.13,0,0,1,.13.14.12.12,0,0,1,0,.08l-.37.49.19.61a.14.14,0,0,1-.09.17.08.08,0,0,1-.08,0Z" transform="translate(0 0)"/><path class="cls-3" d="M80.9,16.17l-.49.36a.12.12,0,0,1-.2-.11v-.63l-.49-.38a.14.14,0,0,1,0-.19.12.12,0,0,1,.07-.05l.58-.17.19-.6a.13.13,0,0,1,.16-.09.13.13,0,0,1,.07.06l.34.52h.61a.15.15,0,0,1,.13.14.16.16,0,0,1,0,.09l-.37.49.19.6a.13.13,0,0,1-.08.17.14.14,0,0,1-.09,0Z" transform="translate(0 0)"/><path class="cls-5" d="M71.32,8.69l-.63.08c-.17,0-.22.09-.23.21,0,.31.38.23.19,1.07l-.42,1.82-.88-1.64c-.38-.71.07-.77,0-1.09C69.3,9,69.19,9,69,9l-1.21.17c-.17,0-.24.09-.23.21,0,.29.28.17.73,1s1.06,2,1.12,2c.21.41.35.42.71.37s.44-.16.52-.53c0-.12.3-1.35.51-2.3s.5-.84.46-1.15C71.61,8.7,71.48,8.66,71.32,8.69Z" transform="translate(0 0)"/><path class="cls-5" d="M73.84,8.29a1.89,1.89,0,0,0-1.69,2.25A2,2,0,1,0,76.09,10,1.88,1.88,0,0,0,73.84,8.29Zm.49,3.46c-.51.07-.9-.49-1-1.37s.09-1.52.6-1.6.9.5,1,1.37S74.84,11.68,74.33,11.75Z" transform="translate(0 0)"/><path class="cls-5" d="M80.08,8.58c-.07-.24-.17-.54-.24-.76s-.18-.31-.41-.27l-2.62.36c-.22,0-.31.13-.32.38s0,.55,0,.79.1.26.24.25.33-.33.41-.55a.65.65,0,0,1,.56-.45l.3,2.1c0,.38.07.57,0,.72s-.14.3-.12.39.11.16.27.13l1.09-.15c.16,0,.23-.09.23-.2s-.06-.17-.23-.35-.15-.3-.21-.69l-.29-2.1a.65.65,0,0,1,.66.29c.14.19.3.44.55.4S80.13,8.74,80.08,8.58Z" transform="translate(0 0)"/><path class="cls-5" d="M83.79,9.49c-.25,0-.33.31-.41.53a.63.63,0,0,1-.56.46h-.07c-.38.06-.5,0-.59-.65l-.07-.47a.72.72,0,0,1,.41,0c.16.11.2.22.32.21s.13-.17.1-.34l-.08-.57c0-.17,0-.32-.19-.3s-.13.14-.25.29a.71.71,0,0,1-.38.15L82,8.46c-.08-.6,0-.73.36-.79A.66.66,0,0,1,83,8c.13.19.29.44.54.41s.22-.13.16-.3l-.24-.76A.32.32,0,0,0,83,7l-2.3.32c-.16,0-.24.09-.23.21s.06.16.23.34.15.31.2.69l.2,1.38a1.29,1.29,0,0,1,0,.73c-.11.21-.14.29-.12.39s.11.15.27.13l2.42-.34c.23,0,.31-.12.32-.36s0-.56,0-.81A.2.2,0,0,0,83.79,9.49Z" transform="translate(0 0)"/><path class="cls-6" d="M77.34,19.54a9.63,9.63,0,1,0-10.88-8.2A9.63,9.63,0,0,0,77.34,19.54Zm0,.37a10,10,0,1,0-11.3-8.51A10,10,0,0,0,77.39,19.91Z" transform="translate(0 0)"/></svg>