<svg id="Layer_1" data-name="Layer 1" xmlns="http://www.w3.org/2000/svg" viewBox="0 0 60.5 46.67"><defs><style>.cls-1{fill:#ffad43;}.cls-2{fill:#dd0031;}.cls-3{fill:#fff;}.cls-4{fill:#007ae5;}.cls-5,.cls-6{fill:#0e1e25;}.cls-6{fill-opacity:0.12;fill-rule:evenodd;}</style></defs><path class="cls-1" d="M10.64,7.23l-.8.32L9.2,7.47l-.64-.8-1.28.4L6.8,6.91,6.24,7l.48.48-.16.32-.08-.56L5.36,6.67l.32,1.76-.4.8L5.2,10.91l.32.88.4-.16-.56,1,.56.72-.4.16-.16-.64-.16,1,.32.32L5,14.91,5,16.59l-.72,3v1.76l.32.24H4.32L4,23.15l.4.48-.32-.16-.32,1.12L3,30.19l.48-.32.4.32L3.28,30l-.4.8L2,33.15l1-1,.24,1-.48-.4L2.08,34,2,33.31l-.32.24L1,36.27,0,38.19,1,40l-.32,2.8L1.12,45l1,1.12,25.84.56,24.56-.4-.88-17.2.56-1.84-.24-.8.56-.64-.64-.88-1.44-.08-.16-1,1-3.28,1.2-1.6v-1l2.24-5.36L54,10.83l-1.36-.64-.88-1.52-13.92.4-.56.56-3.2.24-4.24,1.84H27.28l-1.76.88-1.68.08L23,12l-3.36-.24-3,1.44-3-1-.88-3.84L11.2,7.23Z"/><path class="cls-2" d="M59.29,5.23,40.72,7.84A10,10,0,0,1,59.29,5.23Z"/><path class="cls-3" d="M60.26,12.17a10,10,0,0,0-1-6.94L40.72,7.84a10.09,10.09,0,0,0-.13,3.56,9.84,9.84,0,0,0,1.11,3.37Z"/><path class="cls-4" d="M60.26,12.17a10,10,0,0,1-18.56,2.6Z"/><path class="cls-3" d="M45.81,5.39l-.49.37a.14.14,0,0,1-.19,0,.29.29,0,0,1,0-.09V5l-.49-.37a.15.15,0,0,1,0-.19.1.1,0,0,1,.07,0l.58-.18.19-.59a.12.12,0,0,1,.16-.09.18.18,0,0,1,.07,0l.34.53h.61a.14.14,0,0,1,.13.14.11.11,0,0,1,0,.08l-.36.5.18.6a.13.13,0,0,1-.08.17h-.08Z"/><path class="cls-3" d="M49.66,4.09l-.49.37a.13.13,0,0,1-.18,0,.15.15,0,0,1,0-.09V3.71l-.49-.37a.14.14,0,0,1,0-.19s0,0,.07,0l.58-.18.19-.59a.12.12,0,0,1,.16-.09.18.18,0,0,1,.07,0l.34.53h.61a.14.14,0,0,1,.13.14.11.11,0,0,1,0,.08l-.37.5.19.6a.13.13,0,0,1-.08.17.14.14,0,0,1-.09,0Z"/><path class="cls-3" d="M53.73,4.28l-.49.37a.12.12,0,0,1-.18,0,.11.11,0,0,1,0-.08l0-.63-.49-.38a.14.14,0,0,1,0-.19.18.18,0,0,1,.07-.05l.58-.17.18-.6a.13.13,0,0,1,.17-.08s0,0,.06,0l.35.52h.6a.13.13,0,0,1,.13.14.19.19,0,0,1,0,.08l-.37.5.19.6a.14.14,0,0,1-.09.17H54.3Z"/><path class="cls-3" d="M47.48,17.28l-.49.37a.14.14,0,0,1-.19,0,.19.19,0,0,1,0-.08V16.9l-.49-.38a.14.14,0,0,1,0-.19.15.15,0,0,1,.06,0l.58-.17.19-.6a.13.13,0,0,1,.23,0l.34.52h.61a.13.13,0,0,1,.13.14.11.11,0,0,1,0,.08l-.36.5.18.6a.13.13,0,0,1-.08.17.11.11,0,0,1-.08,0Z"/><path class="cls-3" d="M51.51,17.22l-.49.36a.12.12,0,0,1-.18,0,.11.11,0,0,1,0-.08l0-.63-.49-.38a.13.13,0,0,1,0-.19.13.13,0,0,1,.07-.05l.57-.17.19-.6a.13.13,0,0,1,.16-.09.11.11,0,0,1,.07.06l.35.52h.6a.13.13,0,0,1,.13.14.13.13,0,0,1,0,.08l-.36.49.19.61a.14.14,0,0,1-.09.17.08.08,0,0,1-.08,0Z"/><path class="cls-3" d="M55.4,16.17l-.49.36a.12.12,0,0,1-.18,0,.13.13,0,0,1,0-.08l0-.63-.49-.38a.14.14,0,0,1,0-.19.12.12,0,0,1,.07-.05l.58-.17.18-.6a.14.14,0,0,1,.17-.09.12.12,0,0,1,.06.06l.35.52h.6a.15.15,0,0,1,.13.14.29.29,0,0,1,0,.09l-.37.49.19.6a.13.13,0,0,1-.09.17.11.11,0,0,1-.08,0Z"/><path class="cls-5" d="M45.81,8.69l-.62.08C45,8.8,45,8.86,45,9c0,.31.38.23.18,1.07l-.42,1.82-.87-1.64c-.39-.71.07-.77,0-1.09,0-.11-.15-.15-.32-.13l-1.2.17c-.17,0-.24.09-.23.21,0,.29.28.17.72,1l1.12,2c.22.41.35.42.71.37s.44-.16.53-.53c0-.12.3-1.35.51-2.3s.5-.84.45-1.15C46.11,8.7,46,8.66,45.81,8.69Z"/><path class="cls-5" d="M48.34,8.29a1.89,1.89,0,0,0-1.7,2.25,2,2,0,1,0,4-.55A1.88,1.88,0,0,0,48.34,8.29Zm.49,3.46c-.52.07-.9-.49-1-1.37s.09-1.52.6-1.6.89.5,1,1.37S49.34,11.68,48.83,11.75Z"/><path class="cls-5" d="M54.58,8.58c-.07-.24-.18-.54-.25-.76s-.17-.31-.4-.27l-2.62.36C51.08,8,51,8,51,8.29s0,.55,0,.79a.22.22,0,0,0,.25.25c.25,0,.33-.33.41-.55a.64.64,0,0,1,.56-.45l.29,2.1c.06.38.08.57,0,.72s-.15.3-.12.39.1.16.27.13l1.08-.15c.17,0,.24-.09.23-.2s0-.17-.22-.35-.16-.3-.21-.69l-.3-2.1a.66.66,0,0,1,.67.29c.13.19.3.44.55.4S54.63,8.74,54.58,8.58Z"/><path class="cls-5" d="M58.29,9.49c-.25,0-.34.31-.42.53a.62.62,0,0,1-.55.46h-.07c-.38.06-.51,0-.59-.65l-.07-.47a.67.67,0,0,1,.4,0c.16.11.21.22.33.21s.12-.17.1-.34l-.08-.57c0-.17-.05-.32-.19-.3s-.13.14-.26.29-.2.11-.37.15l-.06-.39c-.08-.6,0-.73.36-.79a.63.63,0,0,1,.65.29c.13.19.3.44.55.41s.21-.13.16-.3l-.24-.76A.32.32,0,0,0,57.53,7l-2.3.32c-.17,0-.24.09-.23.21s.06.16.23.34a1.41,1.41,0,0,1,.2.69L55.62,10c.06.39.08.57,0,.73s-.14.29-.12.39.11.15.27.13l2.42-.34c.22,0,.31-.12.31-.36s0-.56,0-.81S58.43,9.47,58.29,9.49Z"/><path class="cls-6" d="M51.83,19.54A9.63,9.63,0,1,0,41,11.34,9.63,9.63,0,0,0,51.83,19.54Zm.06.37a10,10,0,1,0-11.3-8.51A10,10,0,0,0,51.89,19.91Z"/></svg>