<svg id="Layer_1" data-name="Layer 1" xmlns="http://www.w3.org/2000/svg" viewBox="0 0 39.52 69.87"><defs><style>.cls-1{fill:#ffad43;}.cls-2{fill:#dd0031;}.cls-3{fill:#fff;}.cls-4{fill:#007ae5;}.cls-5,.cls-6{fill:#0e1e25;}.cls-6{fill-opacity:0.12;fill-rule:evenodd;}</style></defs><path class="cls-1" d="M14.88,69.71l1.28-.88-1-1.92V64.59l-1-.32v1.84l-1.36.72-.48,1.6.24.88.64.56Zm9.76-22.56,1.28-1.36.72-4.16V39.47l-1.12-.64-.88,3.68.64.64-1,1-.08,2.56Zm8.56-2.72.24-7.92.8-3.84L31.6,34.91,31,37.55l-1.6,1.92V41l-.88,1.84.88,1.92L27.12,46l-.32,1.52.48.32,1.36-1.2,1,.32,2-2.4,1.76.56Zm6.32-1-.32-5.84-.64-1,.64-3.84-3.52-1.28L35,33.71l-.16,3.12.88,6-.32,1.28.8,2.48ZM25.68,15.55,25,6.67l-22.48.4.08,36.08L2,50.43l-.64.32-.72,1.6L0,57.63l4.72-.88L14,53.47l2.48-.16,2.56.88L19.6,54,23,46.67l.08-1.36L23,41.63,21.84,39l1.84-2.72L24,34.91l-.88-2.8-1.36-.72,1.36-1.28,1.2.4,1,1,1.28-2.56L26.08,28l-1.2-1.36V21.15l1,1.92.88,3.36,1.12,1,1.44.8.48-2.4.8.4-1.28,4.72.48,1.84,1.76-.4L33,31.23,33.2,29l-1.6-2.8-3-2.32-1.12-1.2L27.84,16Z" transform="translate(0 0)"/><path class="cls-2" d="M38.13,5.23,19.57,7.84A10,10,0,0,1,38.13,5.23Z" transform="translate(0 0)"/><path class="cls-3" d="M39.11,12.17a9.86,9.86,0,0,0,.13-3.56,9.82,9.82,0,0,0-1.11-3.38L19.57,7.84a9.93,9.93,0,0,0,1,6.93Z" transform="translate(0 0)"/><path class="cls-4" d="M39.11,12.17a10,10,0,0,1-18.56,2.6Z" transform="translate(0 0)"/><path class="cls-3" d="M24.65,5.39l-.49.37a.13.13,0,0,1-.18,0,.1.1,0,0,1,0-.09V5l-.49-.37a.14.14,0,0,1,0-.19s0,0,.07,0l.58-.18.18-.59a.14.14,0,0,1,.17-.09.18.18,0,0,1,.07,0l.34.53h.6a.14.14,0,0,1,.14.14.11.11,0,0,1,0,.08l-.37.5.19.6a.14.14,0,0,1-.08.17h-.09Z" transform="translate(0 0)"/><path class="cls-3" d="M28.51,4.09,28,4.46a.13.13,0,0,1-.18,0,.16.16,0,0,1,0-.09l0-.63-.49-.37a.14.14,0,0,1,0-.19s0,0,.07,0L28,2.92l.18-.59a.13.13,0,0,1,.17-.09.15.15,0,0,1,.06,0l.35.53h.6a.14.14,0,0,1,.13.14.19.19,0,0,1,0,.08l-.37.5.19.6a.14.14,0,0,1-.09.17.11.11,0,0,1-.08,0Z" transform="translate(0 0)"/><path class="cls-3" d="M32.58,4.28l-.49.37a.13.13,0,0,1-.19,0,.19.19,0,0,1,0-.08V3.9l-.49-.38a.15.15,0,0,1,0-.19l.07-.05L32,3.11l.19-.6a.13.13,0,0,1,.23,0l.34.52h.61a.13.13,0,0,1,.13.14.11.11,0,0,1,0,.08l-.36.5.18.6a.13.13,0,0,1-.08.17h-.08Z" transform="translate(0 0)"/><path class="cls-3" d="M26.32,17.28l-.49.37a.13.13,0,0,1-.18,0,.08.08,0,0,1,0-.08V16.9l-.49-.38a.14.14,0,0,1,0-.19.18.18,0,0,1,.07,0l.58-.17.19-.6a.13.13,0,0,1,.23,0l.34.52h.6a.14.14,0,0,1,.14.14.11.11,0,0,1,0,.08l-.37.5.19.6a.14.14,0,0,1-.08.17.14.14,0,0,1-.09,0Z" transform="translate(0 0)"/><path class="cls-3" d="M30.35,17.22l-.48.36a.13.13,0,0,1-.19,0,.19.19,0,0,1,0-.08v-.63l-.49-.38a.14.14,0,0,1,0-.19.18.18,0,0,1,.07-.05l.58-.17.19-.6a.13.13,0,0,1,.16-.09.13.13,0,0,1,.07.06l.34.52h.61a.13.13,0,0,1,.13.14.13.13,0,0,1,0,.08l-.37.49.19.61a.14.14,0,0,1-.08.17.1.1,0,0,1-.09,0Z" transform="translate(0 0)"/><path class="cls-3" d="M34.25,16.17l-.49.36a.13.13,0,0,1-.19,0,.24.24,0,0,1,0-.08v-.63l-.49-.38a.14.14,0,0,1,0-.19s0,0,.06-.05l.58-.17.19-.6a.13.13,0,0,1,.16-.09.13.13,0,0,1,.07.06l.34.52h.61a.15.15,0,0,1,.13.14.16.16,0,0,1,0,.09l-.36.49.18.6a.12.12,0,0,1-.08.17.11.11,0,0,1-.08,0Z" transform="translate(0 0)"/><path class="cls-5" d="M24.66,8.69,24,8.77c-.16,0-.22.09-.23.21,0,.31.38.23.19,1.07l-.42,1.82-.88-1.64c-.38-.71.08-.77,0-1.09,0-.11-.14-.15-.31-.13l-1.21.17c-.17,0-.23.09-.23.21,0,.29.29.17.73,1l1.12,2c.22.41.35.42.71.37s.44-.16.52-.53c0-.12.3-1.35.51-2.3s.5-.84.46-1.15C25,8.7,24.83,8.66,24.66,8.69Z" transform="translate(0 0)"/><path class="cls-5" d="M27.18,8.29a1.89,1.89,0,0,0-1.69,2.25,2,2,0,1,0,4-.55A1.89,1.89,0,0,0,27.18,8.29Zm.49,3.46c-.51.07-.89-.49-1-1.37s.09-1.52.6-1.6.9.5,1,1.37S28.18,11.68,27.67,11.75Z" transform="translate(0 0)"/><path class="cls-5" d="M33.43,8.58l-.25-.76c-.07-.24-.18-.31-.4-.27l-2.62.36c-.23,0-.32.13-.32.38s0,.55,0,.79.1.26.25.25.33-.33.41-.55A.62.62,0,0,1,31,8.33l.3,2.1a1.38,1.38,0,0,1,0,.72c-.12.22-.15.3-.13.39s.11.16.28.13l1.08-.15c.17,0,.24-.09.23-.2s-.06-.17-.23-.35-.15-.3-.2-.69l-.3-2.1a.66.66,0,0,1,.67.29c.13.19.29.44.54.4A.2.2,0,0,0,33.43,8.58Z" transform="translate(0 0)"/><path class="cls-5" d="M37.14,9.49c-.26,0-.34.31-.42.53a.63.63,0,0,1-.56.46h-.07c-.37.06-.5,0-.59-.65l-.06-.47a.68.68,0,0,1,.4,0c.16.11.2.22.32.21s.13-.17.11-.34l-.08-.57c0-.17,0-.32-.2-.3s-.13.14-.25.29a.71.71,0,0,1-.38.15l0-.39c-.09-.6,0-.73.35-.79a.65.65,0,0,1,.66.29c.13.19.29.44.54.41s.22-.13.17-.3l-.24-.76A.32.32,0,0,0,36.38,7l-2.31.32c-.16,0-.23.09-.22.21s0,.16.22.34.15.31.2.69l.2,1.38a1.42,1.42,0,0,1,0,.73c-.12.21-.15.29-.13.39s.11.15.28.13L37,10.89c.22,0,.31-.12.31-.36s0-.56,0-.81S37.27,9.47,37.14,9.49Z" transform="translate(0 0)"/><path class="cls-6" d="M30.68,19.54a9.63,9.63,0,1,0-10.87-8.2A9.63,9.63,0,0,0,30.68,19.54Zm.05.37a10,10,0,1,0-11.3-8.51A10,10,0,0,0,30.73,19.91Z" transform="translate(0 0)"/></svg>