<svg id="Layer_1" data-name="Layer 1" xmlns="http://www.w3.org/2000/svg" viewBox="0 0 76.64 63.98"><defs><style>.cls-1{fill:#ffad43;}.cls-2{fill:#dd0031;}.cls-3{fill:#fff;}.cls-4{fill:#007ae5;}.cls-5,.cls-6{fill:#0e1e25;}.cls-6{fill-opacity:0.12;fill-rule:evenodd;}</style></defs><path class="cls-1" d="M64.24,44.94l.32-.72V43.9l-.32.32ZM15.76,2.7l-.24-.32-.64.8-4,.88-1,1L4,6.38.8,9.74,0,11.9l3,2,1.92,2.24,3,.8,2,5.52,1.84,2.32.56,1.68L17,30.14l1.52,3.2,1.84.72,2,2,.16,2.16,1.36,1.12-.16.88,1.2,1,.16,1,4,2.32.32,2.16L31,50.22v2.24l3.36,2.8,1.12,3.2L35,60.94l1.36,2h1.2l1.84,1L41,59.82l.16.8-.72,1.84,2.32-2-1.84-2-1.12-4.32,1.2,1,.48,2.56,1.28,1.12v-3h.4l.32,3.76,2.8-1.2.56-1.68L45,57.82l1.44-1.36-2.16-.64,1.84-.4L42.8,55.1l.08-.48H45.2L45,53.74l2.48,1.68L48,54.3l.56,1,2-1.52-.88-1.28L51,53.58l2.72-.8-.24-.72,1.2-.16,1.2-1,.16-.72-1.68-.8H55l-.32-1.36h.88l-.24,1,1.36.8,3.84-3.12.32-.4-.64.4-.32-.4.64-1.52,1-.48.48.88,1.68-.4.32-1,1.2-.88-.72-1,1,.64v-.8l.8.48.56-.8-1.84-2.24,1.12-2.16.56-.64L65.6,39l.88.32L67,40.86l.8-3.84,3-4.48L73.6,30l3-1.36L76.16,28l.48-.16L59,10.54l-18-.48L41,7.42,38.64,4.54l-1.84.88-.16-1.68Z"/><path class="cls-2" d="M67.91,5.23,49.35,7.84A10,10,0,0,1,67.91,5.23Z"/><path class="cls-3" d="M68.89,12.17A10.09,10.09,0,0,0,69,8.61a9.82,9.82,0,0,0-1.11-3.38L49.35,7.84a10,10,0,0,0,1,6.93Z"/><path class="cls-4" d="M68.89,12.17a10,10,0,0,1-18.57,2.6Z"/><path class="cls-3" d="M54.43,5.39l-.49.37a.13.13,0,0,1-.18,0,.16.16,0,0,1,0-.09l0-.63-.49-.37a.14.14,0,0,1,0-.19s0,0,.07,0l.58-.18.18-.59a.13.13,0,0,1,.17-.09.15.15,0,0,1,.06,0l.35.53h.6a.14.14,0,0,1,.13.14.19.19,0,0,1,0,.08l-.37.5.19.6a.14.14,0,0,1-.09.17H55Z"/><path class="cls-3" d="M58.29,4.09l-.49.37a.13.13,0,0,1-.18,0,.16.16,0,0,1,0-.09V3.71l-.48-.37a.13.13,0,0,1,0-.19.07.07,0,0,1,.06,0l.58-.18.19-.59a.12.12,0,0,1,.16-.09.13.13,0,0,1,.07,0l.35.53h.6a.14.14,0,0,1,.13.14.11.11,0,0,1,0,.08l-.36.5.18.6a.13.13,0,0,1-.08.17.11.11,0,0,1-.08,0Z"/><path class="cls-3" d="M62.35,4.28l-.49.37a.12.12,0,0,1-.18,0,.11.11,0,0,1,0-.08V3.9l-.49-.38a.14.14,0,0,1,0-.19.18.18,0,0,1,.07-.05l.58-.17.19-.6a.13.13,0,0,1,.23,0l.34.52h.61a.13.13,0,0,1,.13.14.11.11,0,0,1,0,.08l-.37.5.19.6A.13.13,0,0,1,63,4.5h-.09Z"/><path class="cls-3" d="M56.1,17.28l-.49.37a.13.13,0,0,1-.18,0,.11.11,0,0,1,0-.08l0-.63-.49-.38a.14.14,0,0,1,0-.19.18.18,0,0,1,.07,0l.58-.17.18-.6a.13.13,0,0,1,.17-.08s.05,0,.06.05l.35.52h.6a.13.13,0,0,1,.13.14.19.19,0,0,1,0,.08l-.37.5.19.6a.14.14,0,0,1-.09.17.11.11,0,0,1-.08,0Z"/><path class="cls-3" d="M60.13,17.22l-.49.36a.12.12,0,0,1-.18,0,.11.11,0,0,1,0-.08l0-.63L59,16.46a.14.14,0,0,1,0-.19.18.18,0,0,1,.07-.05l.58-.17.18-.6a.14.14,0,0,1,.17-.09.13.13,0,0,1,.07.06l.34.52h.6a.14.14,0,0,1,.14.14.13.13,0,0,1,0,.08l-.37.49.19.61a.15.15,0,0,1-.08.17.1.1,0,0,1-.09,0Z"/><path class="cls-3" d="M64,16.17l-.49.36a.12.12,0,0,1-.18,0,.24.24,0,0,1,0-.08v-.63l-.49-.38a.14.14,0,0,1,0-.19.12.12,0,0,1,.07-.05l.58-.17.19-.6a.13.13,0,0,1,.16-.09.13.13,0,0,1,.07.06l.34.52h.61A.15.15,0,0,1,65,15a.16.16,0,0,1,0,.09l-.37.49.19.6a.13.13,0,0,1-.08.17.14.14,0,0,1-.09,0Z"/><path class="cls-5" d="M54.44,8.69l-.63.08c-.17,0-.22.09-.23.21,0,.31.38.23.19,1.07l-.42,1.82-.88-1.64c-.38-.71.07-.77,0-1.09,0-.11-.14-.15-.31-.13l-1.21.17c-.17,0-.24.09-.23.21,0,.29.28.17.73,1s1.06,2,1.12,2c.21.41.35.42.71.37s.44-.16.52-.53c0-.12.3-1.35.51-2.3s.5-.84.46-1.15C54.73,8.7,54.6,8.66,54.44,8.69Z"/><path class="cls-5" d="M57,8.29a1.89,1.89,0,0,0-1.69,2.25A2,2,0,1,0,59.21,10,1.88,1.88,0,0,0,57,8.29Zm.49,3.46c-.51.07-.9-.49-1-1.37s.09-1.52.6-1.6.9.5,1,1.37S58,11.68,57.45,11.75Z"/><path class="cls-5" d="M63.2,8.58C63.13,8.34,63,8,63,7.82s-.18-.31-.41-.27l-2.62.36c-.22,0-.31.13-.32.38s0,.55,0,.79.1.26.24.25.33-.33.41-.55a.65.65,0,0,1,.56-.45l.3,2.1c0,.38.07.57,0,.72s-.14.3-.12.39.11.16.27.13l1.09-.15c.16,0,.23-.09.23-.2s-.06-.17-.23-.35-.15-.3-.21-.69l-.29-2.1a.65.65,0,0,1,.66.29c.14.19.3.44.55.4S63.25,8.74,63.2,8.58Z"/><path class="cls-5" d="M66.91,9.49c-.25,0-.33.31-.41.53a.63.63,0,0,1-.56.46h-.07c-.37.06-.5,0-.59-.65l-.07-.47a.72.72,0,0,1,.41,0c.16.11.2.22.32.21s.13-.17.1-.34L66,8.71c0-.17,0-.32-.19-.3s-.13.14-.25.29a.71.71,0,0,1-.38.15l0-.39c-.09-.6,0-.73.35-.79A.66.66,0,0,1,66.1,8c.13.19.29.44.54.41s.22-.13.16-.3l-.24-.76c-.07-.23-.18-.3-.4-.27l-2.31.32c-.16,0-.24.09-.23.21s.06.16.23.34.15.31.2.69l.2,1.38a1.29,1.29,0,0,1,0,.73c-.11.21-.14.29-.12.39s.11.15.27.13l2.42-.34c.23,0,.31-.12.32-.36s0-.56,0-.81A.2.2,0,0,0,66.91,9.49Z"/><path class="cls-6" d="M60.46,19.54a9.63,9.63,0,1,0-10.88-8.2A9.63,9.63,0,0,0,60.46,19.54Zm0,.37a10,10,0,1,0-11.3-8.51A10,10,0,0,0,60.51,19.91Z"/></svg>