<svg id="Layer_1" data-name="Layer 1" xmlns="http://www.w3.org/2000/svg" viewBox="0 0 98.21 29.89"><defs><style>.cls-1{fill:#ffad43;}.cls-2{fill:#dd0031;}.cls-3{fill:#fff;}.cls-4{fill:#007ae5;}.cls-5,.cls-6{fill:#0e1e25;}.cls-6{fill-opacity:0.12;fill-rule:evenodd;}</style></defs><path class="cls-1" d="M74,7.65,28.24,7.17l-2.48-.72.08,2.64L10.56,8.61l-.64.8-.72-.8.16,1.52-1,.56L9,11.81l-1.52.08.88,1.44L7.28,14.85l.4,2.08-1-.4L7,17.65,4.48,18.93l.32,2.56L2.4,23.73l.48,3.12L0,28.61l40.16,1.28L67,29.65l.4-3.28,2.32-.4.72-2.24,1.36-1.12,4.48-1,3.44-2.72,2.08-.4.72-2.32,1.28.32,1.92-1.84.64,1.36,3.92-2.8,1.52.48,1.84-2.8,1.92-.4L96,6.85Z"/><path class="cls-2" d="M97,5.23,78.44,7.84A10,10,0,0,1,97,5.23Z"/><path class="cls-3" d="M98,12.17a10.09,10.09,0,0,0,.13-3.56A9.82,9.82,0,0,0,97,5.23L78.44,7.84a10,10,0,0,0,1,6.93Z"/><path class="cls-4" d="M98,12.17a10,10,0,0,1-18.57,2.6Z"/><path class="cls-3" d="M83.52,5.39,83,5.76a.13.13,0,0,1-.18,0,.16.16,0,0,1,0-.09l0-.63-.49-.37a.14.14,0,0,1,0-.19s0,0,.07,0L83,4.22l.18-.59a.14.14,0,0,1,.17-.09.18.18,0,0,1,.07,0l.34.53h.6a.13.13,0,0,1,.13.14.19.19,0,0,1,0,.08l-.37.5.19.6a.14.14,0,0,1-.09.17h-.08Z"/><path class="cls-3" d="M87.38,4.09l-.49.37a.13.13,0,0,1-.18,0,.16.16,0,0,1,0-.09l0-.63-.49-.37a.13.13,0,0,1,0-.19.08.08,0,0,1,.07,0l.57-.18L87,2.33a.13.13,0,0,1,.17-.09.15.15,0,0,1,.06,0l.35.53h.6a.14.14,0,0,1,.13.14.11.11,0,0,1,0,.08l-.36.5.19.6a.14.14,0,0,1-.09.17.11.11,0,0,1-.08,0Z"/><path class="cls-3" d="M91.44,4.28,91,4.65a.13.13,0,0,1-.19,0,.19.19,0,0,1,0-.08V3.9l-.49-.38a.14.14,0,0,1,0-.19.18.18,0,0,1,.07-.05l.58-.17.19-.6a.13.13,0,0,1,.23,0l.34.52h.61a.13.13,0,0,1,.13.14.11.11,0,0,1,0,.08l-.37.5.19.6a.13.13,0,0,1-.08.17H92Z"/><path class="cls-3" d="M85.19,17.28l-.49.37a.13.13,0,0,1-.18,0,.11.11,0,0,1,0-.08l0-.63L84,16.52a.14.14,0,0,1,0-.19.18.18,0,0,1,.07,0l.58-.17.18-.6a.13.13,0,0,1,.17-.08.12.12,0,0,1,.07.05l.34.52H86a.13.13,0,0,1,.13.14.11.11,0,0,1,0,.08l-.37.5.19.6a.14.14,0,0,1-.09.17.11.11,0,0,1-.08,0Z"/><path class="cls-3" d="M89.22,17.22l-.49.36a.12.12,0,0,1-.18,0,.11.11,0,0,1,0-.08v-.63l-.49-.38a.14.14,0,0,1,0-.19.18.18,0,0,1,.07-.05l.58-.17.19-.6a.13.13,0,0,1,.16-.09.13.13,0,0,1,.07.06l.34.52H90a.13.13,0,0,1,.13.14.13.13,0,0,1,0,.08l-.37.49.19.61a.14.14,0,0,1-.08.17.1.1,0,0,1-.09,0Z"/><path class="cls-3" d="M93.11,16.17l-.48.36a.13.13,0,0,1-.19,0,.24.24,0,0,1,0-.08v-.63l-.49-.38a.14.14,0,0,1,0-.19.12.12,0,0,1,.07-.05l.58-.17.19-.6a.13.13,0,0,1,.16-.09.13.13,0,0,1,.07.06l.34.52h.61a.15.15,0,0,1,.13.14.16.16,0,0,1,0,.09l-.37.49.19.6a.13.13,0,0,1-.08.17.14.14,0,0,1-.09,0Z"/><path class="cls-5" d="M83.53,8.69l-.63.08c-.17,0-.22.09-.23.21,0,.31.38.23.19,1.07l-.42,1.82-.88-1.64c-.38-.71.08-.77,0-1.09,0-.11-.14-.15-.31-.13L80,9.18c-.17,0-.24.09-.23.21,0,.29.29.17.73,1l1.12,2c.22.41.35.42.71.37s.44-.16.52-.53c0-.12.3-1.35.51-2.3s.5-.84.46-1.15C83.82,8.7,83.7,8.66,83.53,8.69Z"/><path class="cls-5" d="M86.05,8.29a1.89,1.89,0,0,0-1.69,2.25A2,2,0,1,0,88.3,10,1.88,1.88,0,0,0,86.05,8.29Zm.49,3.46c-.51.07-.9-.49-1-1.37s.09-1.52.6-1.6.9.5,1,1.37S87.05,11.68,86.54,11.75Z"/><path class="cls-5" d="M92.29,8.58c-.07-.24-.17-.54-.24-.76s-.18-.31-.4-.27L89,7.91c-.23,0-.32.13-.32.38s0,.55,0,.79.1.26.24.25.34-.33.42-.55a.62.62,0,0,1,.55-.45l.3,2.1c0,.38.07.57,0,.72s-.14.3-.12.39.11.16.28.13l1.08-.15c.17,0,.23-.09.23-.2s-.06-.17-.23-.35-.15-.3-.21-.69l-.29-2.1a.68.68,0,0,1,.67.29c.13.19.29.44.54.4A.2.2,0,0,0,92.29,8.58Z"/><path class="cls-5" d="M96,9.49c-.26,0-.34.31-.42.53a.63.63,0,0,1-.56.46H95c-.37.06-.5,0-.59-.65l-.07-.47a.71.71,0,0,1,.41,0c.16.11.2.22.32.21s.13-.17.1-.34l-.08-.57c0-.17,0-.32-.19-.3s-.13.14-.25.29a.71.71,0,0,1-.38.15l0-.39c-.09-.6,0-.73.35-.79a.66.66,0,0,1,.66.29c.13.19.29.44.54.41a.21.21,0,0,0,.17-.3c-.08-.23-.17-.53-.24-.76S95.47,7,95.25,7l-2.31.32c-.16,0-.24.09-.22.21s0,.16.22.34.15.31.2.69l.2,1.38a1.29,1.29,0,0,1,0,.73c-.11.21-.14.29-.12.39s.11.15.28.13l2.41-.34c.23,0,.31-.12.32-.36s0-.56,0-.81S96.14,9.47,96,9.49Z"/><path class="cls-6" d="M89.55,19.54a9.63,9.63,0,1,0-10.88-8.2A9.63,9.63,0,0,0,89.55,19.54Zm0,.37A10,10,0,1,0,78.3,11.4,10,10,0,0,0,89.6,19.91Z"/></svg>