<svg id="Layer_1" data-name="Layer 1" xmlns="http://www.w3.org/2000/svg" viewBox="0 0 74.57 70"><defs><style>.cls-1{fill:#ffad43;}.cls-2{fill:#dd0031;}.cls-3{fill:#fff;}.cls-4{fill:#007ae5;}.cls-5,.cls-6{fill:#0e1e25;}.cls-6{fill-opacity:0.12;fill-rule:evenodd;}</style></defs><path class="cls-1" d="M52.88,63.28,54.56,68l-1.44-7-.24.08-.16.16Zm.88-4.48.32-.8.8-1.68L53.76,58l-.88,2.8Zm1.84-4.08L55,56.32l.8-1.12v-.56Zm1-.72,1.76-.88-2,.88-.56.88ZM59,52.4l-.4.08.88-.4Zm8.48-6.48h-.4v.24L65.76,47.6ZM36.72,0H20.8l-.88,29.68L0,28.88.32,30,6.8,37l2.4,1.52,2.64,6.64L18,49.28l1.36.32L21,47.76l1-3.36,1.6-.16.48-.64,1,.4,4.16.24.56,1.36.64-.16,3.2,3L35.92,54l1.2,1.2,1.44,2.4,1.92,1,.4,3.6,1.44,1.68.8,2.64,1.6.16,3.92,1.76,3.12.16L53.6,70l.16-.72,1.12-.56-.32-.4-.24.24.16-.56-.72-.08-1.68-4.64.48-.48-.48-.64.64-1.76H50.8l.72-.16-.72-1.12.88,1.12.72-.8-.32,1,.64-.24,1-2.56-1.68-1.28,2,.24,1-1.84-.72.72-.24-1,1-.56.32.72.32-.16.72-.72-.08-1.36.8.8,1.28-.72-.8-.08.4-.48-.88-1.28,1,.32-.16.72.4-.4.08-.32-.32-.64.24.08.24.56,1-.32L60,51l-.48.32,1.28-.56-1.28,1.36,2.8-1.76-1.2.4v-.08l3-1.44,1.44-1.44V47l1.6-1-.56-.48-.8-2,1,.24.72-.56-.32,1.52,2.08-.4v.16L67.76,45l-.24,1,3.84-2.48,1.12-.32L72,42.24l1.2-1.6-.48-3.28,1.2-3.12L71.68,30.8V29.44l-1.36-1.2-.64-10.32-1.92.24L63,15.68l-.64.72-1.2-.24L60,16.64l-.72-.24-2.16,1.28-1.76-1-.8.32-.8-.56-1.2,1.52-.32-1.28-1.28.8-1.28-1.12L48.32,17l-1-1.6-2.16.72-.48-.72-3-.48-1.28-1.36-.24.32h-1.2l-2.08-1.2Z"/><path class="cls-2" d="M73.36,12,54.79,14.65A10,10,0,0,1,73.36,12Z"/><path class="cls-3" d="M74.33,19a10,10,0,0,0-1-6.93L54.79,14.65a10,10,0,0,0-.13,3.55,9.82,9.82,0,0,0,1.11,3.38Z"/><path class="cls-4" d="M74.33,19a10,10,0,0,1-18.56,2.61Z"/><path class="cls-3" d="M59.88,12.2l-.49.36a.13.13,0,0,1-.19,0,.19.19,0,0,1,0-.08v-.63l-.49-.38a.15.15,0,0,1,0-.19l.07-.05.58-.17.19-.6a.13.13,0,0,1,.16-.09.13.13,0,0,1,.07.06l.34.52h.61a.13.13,0,0,1,.13.14.11.11,0,0,1,0,.08l-.36.49.18.61a.13.13,0,0,1-.08.17h-.08Z"/><path class="cls-3" d="M63.73,10.9l-.49.36a.12.12,0,0,1-.18,0,.11.11,0,0,1,0-.08v-.63l-.49-.38a.14.14,0,0,1,0-.19.18.18,0,0,1,.07,0l.58-.17.19-.6a.12.12,0,0,1,.16-.08s0,0,.07,0l.34.52h.61a.13.13,0,0,1,.13.14.11.11,0,0,1,0,.08l-.37.5.19.6a.13.13,0,0,1-.08.17.14.14,0,0,1-.09,0Z"/><path class="cls-3" d="M67.8,11.09l-.49.36a.13.13,0,0,1-.18,0,.16.16,0,0,1,0-.09l0-.63-.49-.37a.14.14,0,0,1,0-.19.12.12,0,0,1,.07-.05l.58-.18.18-.59a.14.14,0,0,1,.17-.09.15.15,0,0,1,.06,0l.35.53h.6a.15.15,0,0,1,.13.14.29.29,0,0,1,0,.09l-.37.49.19.6a.14.14,0,0,1-.09.17h-.08Z"/><path class="cls-3" d="M61.55,24.09l-.49.36a.14.14,0,0,1-.19,0,.29.29,0,0,1,0-.09V23.7l-.49-.37a.14.14,0,0,1,0-.19s0,0,.06-.05l.58-.18.19-.59a.12.12,0,0,1,.16-.09.18.18,0,0,1,.07.05l.34.53h.61a.14.14,0,0,1,.13.14.11.11,0,0,1,0,.08l-.36.5.18.6a.13.13,0,0,1-.08.17h-.08Z"/><path class="cls-3" d="M65.58,24l-.49.37a.13.13,0,0,1-.18,0,.16.16,0,0,1,0-.09l0-.63-.49-.37a.13.13,0,0,1,0-.19.08.08,0,0,1,.07,0l.57-.18.19-.6a.13.13,0,0,1,.17-.08.15.15,0,0,1,.06,0l.35.53h.6a.13.13,0,0,1,.13.14.11.11,0,0,1,0,.08l-.36.5.19.6a.14.14,0,0,1-.09.17.11.11,0,0,1-.08,0Z"/><path class="cls-3" d="M69.47,23l-.49.37a.12.12,0,0,1-.18,0,.11.11,0,0,1,0-.08l0-.63-.49-.38a.14.14,0,0,1,0-.19.18.18,0,0,1,.07-.05l.58-.17.18-.6a.13.13,0,0,1,.17-.08l.07.05.34.52h.6a.13.13,0,0,1,.13.14.19.19,0,0,1,0,.08l-.37.5.19.6a.14.14,0,0,1-.09.17H70Z"/><path class="cls-5" d="M59.88,15.49l-.62.09c-.17,0-.22.09-.23.21,0,.31.38.22.19,1.06l-.42,1.83L57.92,17c-.39-.71.07-.77,0-1.09,0-.12-.15-.16-.32-.14l-1.2.17c-.17,0-.24.09-.23.21,0,.3.28.18.72,1L58,19.24c.22.4.35.41.71.36s.44-.15.53-.53c0-.11.3-1.34.51-2.29s.5-.85.46-1.16C60.18,15.51,60.05,15.47,59.88,15.49Z"/><path class="cls-5" d="M62.41,15.09a1.9,1.9,0,0,0-1.7,2.26,2,2,0,1,0,3.95-.56A1.9,1.9,0,0,0,62.41,15.09Zm.49,3.47c-.52.07-.9-.5-1-1.38s.09-1.52.6-1.59.89.49,1,1.37S63.41,18.48,62.9,18.56Z"/><path class="cls-5" d="M68.65,15.38c-.07-.23-.18-.53-.25-.76a.31.31,0,0,0-.4-.27l-2.62.37c-.23,0-.31.13-.32.37s0,.55,0,.8a.21.21,0,0,0,.25.24c.25,0,.33-.32.41-.54a.64.64,0,0,1,.56-.46l.29,2.1c.06.39.08.57,0,.72s-.15.3-.12.4.1.15.27.13l1.08-.15c.17,0,.24-.09.23-.2s0-.17-.22-.35-.16-.31-.21-.69L67.28,15a.63.63,0,0,1,.66.28c.13.19.3.44.55.41S68.7,15.55,68.65,15.38Z"/><path class="cls-5" d="M72.36,16.29c-.25,0-.34.32-.42.54a.63.63,0,0,1-.55.46h-.07c-.38.05-.51,0-.59-.66l-.07-.47a.76.76,0,0,1,.4,0c.16.11.21.23.33.21s.12-.17.1-.33l-.08-.58c0-.16,0-.31-.19-.29s-.13.14-.26.29a.68.68,0,0,1-.37.14l-.06-.39c-.08-.6,0-.72.36-.79a.65.65,0,0,1,.65.3c.13.19.3.44.55.4s.21-.13.16-.3L72,14.11a.32.32,0,0,0-.41-.27l-2.3.33c-.17,0-.24.09-.23.2s.06.17.23.34a1.35,1.35,0,0,1,.2.7l.19,1.38c.06.39.08.57,0,.72s-.14.3-.12.4.11.15.27.13l2.42-.34a.32.32,0,0,0,.31-.37c0-.24,0-.55,0-.8S72.5,16.27,72.36,16.29Z"/><path class="cls-6" d="M65.9,26.34A9.63,9.63,0,1,0,55,18.15,9.63,9.63,0,0,0,65.9,26.34Zm.06.37a10,10,0,1,0-11.3-8.51A10,10,0,0,0,66,26.71Z"/></svg>