<svg id="Layer_1" data-name="Layer 1" xmlns="http://www.w3.org/2000/svg" viewBox="0 0 52.92 60"><defs><style>.cls-1{fill:#ffad43;}.cls-2{fill:#dd0031;}.cls-3{fill:#fff;}.cls-4{fill:#007ae5;}.cls-5,.cls-6{fill:#0e1e25;}.cls-6{fill-opacity:0.12;fill-rule:evenodd;}</style></defs><path class="cls-1" d="M14.88,12.24,15,12l-.16-.24-.08.08Zm3.36,1.52v-1.2l-.64-1.2v1.28Zm-1.36-3.12L16.64,10l-.4.16ZM5,.16,1.68,0,0,59.6l23.84.4,23.84-.4L46.48,12l-18.08.24V.4Zm7,4.4.8-.56.72.56-.32,1.68.8.8,1.12.16L16,9.84l.64-.4-.4-2.64,1,.16V7.6h2l-.4.64L17.6,8.16l-.72.8.56.08,1.36,2.4,1.6,1.2-1.76,1.12L18.08,15l-1.44,1-.56-.24-.8-2.8-.48,1.28L14.08,13l-1.2-.8L12.8,10l-.56-1-.64-.72L11,9l-.4-.16.64-.56-.64-2.4.4-.4L10.64,5Z"/><path class="cls-2" d="M51.72,5.87,33.15,8.48A10,10,0,0,1,51.72,5.87Z"/><path class="cls-3" d="M52.69,12.8a10,10,0,0,0,.14-3.55,10.27,10.27,0,0,0-1.11-3.38L33.15,8.48A10,10,0,0,0,33,12a9.82,9.82,0,0,0,1.11,3.38Z"/><path class="cls-4" d="M52.69,12.8a10,10,0,0,1-18.56,2.61Z"/><path class="cls-3" d="M38.23,6l-.48.37a.13.13,0,0,1-.19,0,.19.19,0,0,1,0-.08V5.65l-.49-.38a.14.14,0,0,1,0-.19.18.18,0,0,1,.07,0l.58-.17.19-.6a.13.13,0,0,1,.23,0l.34.52h.61a.13.13,0,0,1,.13.14.11.11,0,0,1,0,.08l-.37.5.19.6a.13.13,0,0,1-.08.17H38.8Z"/><path class="cls-3" d="M42.09,4.73l-.49.37a.12.12,0,0,1-.18,0,.11.11,0,0,1,0-.08l0-.63L40.92,4a.14.14,0,0,1,0-.19.18.18,0,0,1,.07,0l.58-.17.18-.6a.13.13,0,0,1,.17-.08.18.18,0,0,1,.07.05l.34.52h.6A.13.13,0,0,1,43,3.6a.11.11,0,0,1,0,.08l-.37.5.19.6a.14.14,0,0,1-.09.17h-.08Z"/><path class="cls-3" d="M46.16,4.92l-.49.36a.12.12,0,0,1-.18,0,.11.11,0,0,1,0-.08l0-.63L45,4.16A.13.13,0,0,1,45,4,.13.13,0,0,1,45,3.92l.57-.17.19-.6A.13.13,0,0,1,46,3.06a.11.11,0,0,1,.07.06l.35.52H47a.13.13,0,0,1,.13.13.16.16,0,0,1,0,.09l-.36.49.19.6a.15.15,0,0,1-.09.18h-.08Z"/><path class="cls-3" d="M39.9,17.92l-.48.36a.13.13,0,0,1-.19,0,.19.19,0,0,1,0-.08v-.63l-.49-.38a.14.14,0,0,1,0-.19.12.12,0,0,1,.07,0l.58-.17.19-.6a.13.13,0,0,1,.16-.09.13.13,0,0,1,.07.06l.34.52h.61a.13.13,0,0,1,.13.13.16.16,0,0,1,0,.09l-.37.49.19.6a.15.15,0,0,1-.08.18h-.09Z"/><path class="cls-3" d="M43.94,17.86l-.49.36a.14.14,0,0,1-.19,0,.29.29,0,0,1,0-.09v-.63l-.49-.37a.14.14,0,0,1,0-.24l.58-.18.19-.59a.13.13,0,0,1,.16-.09.18.18,0,0,1,.07.05l.34.53h.61a.14.14,0,0,1,.13.14.11.11,0,0,1,0,.08l-.36.5.18.6a.13.13,0,0,1-.08.17h-.08Z"/><path class="cls-3" d="M47.83,16.8l-.49.37a.13.13,0,0,1-.18,0,.16.16,0,0,1,0-.09l0-.63-.49-.37a.14.14,0,0,1,0-.2.13.13,0,0,1,.07,0l.57-.17.19-.6a.13.13,0,0,1,.17-.08.15.15,0,0,1,.06.05l.35.52h.6a.13.13,0,0,1,.13.14.11.11,0,0,1,0,.08l-.36.5.19.6a.14.14,0,0,1-.09.17.11.11,0,0,1-.08,0Z"/><path class="cls-5" d="M38.24,9.32l-.62.09c-.17,0-.22.09-.24.21,0,.31.39.23.19,1.06l-.42,1.83-.88-1.64c-.38-.71.08-.77,0-1.09,0-.12-.14-.16-.31-.13l-1.21.17c-.16,0-.23.09-.23.2,0,.3.29.18.73,1l1.12,2.06c.22.4.35.41.71.36s.44-.15.53-.53c0-.11.29-1.34.5-2.29s.51-.85.46-1.16C38.54,9.34,38.41,9.3,38.24,9.32Z"/><path class="cls-5" d="M40.77,8.92a1.9,1.9,0,0,0-1.7,2.26,2,2,0,1,0,4-.56A1.9,1.9,0,0,0,40.77,8.92Zm.48,3.47c-.51.07-.89-.5-1-1.38s.1-1.52.61-1.59.89.49,1,1.37S41.76,12.32,41.25,12.39Z"/><path class="cls-5" d="M47,9.21c-.07-.23-.18-.53-.25-.76a.31.31,0,0,0-.4-.27l-2.62.37c-.23,0-.32.13-.32.37s0,.56,0,.8.11.26.25.24.33-.32.41-.54A.64.64,0,0,1,44.61,9l.29,2.1c.06.39.08.57,0,.73s-.15.29-.12.39.1.15.27.13l1.08-.15c.17,0,.24-.09.23-.2s0-.17-.22-.35-.16-.3-.21-.69l-.3-2.1a.67.67,0,0,1,.67.28c.13.19.29.45.54.41S47.06,9.38,47,9.21Z"/><path class="cls-5" d="M50.72,10.12c-.26,0-.34.32-.42.54a.63.63,0,0,1-.55.46h-.08c-.37,0-.5,0-.59-.65L49,10a.69.69,0,0,1,.4,0c.16.11.21.23.33.21s.12-.17.1-.33l-.08-.58c0-.16-.05-.31-.19-.29s-.13.14-.26.29a.76.76,0,0,1-.38.15l0-.4c-.09-.6,0-.72.35-.78a.65.65,0,0,1,.66.29c.13.19.3.44.55.4s.21-.13.16-.29-.17-.54-.24-.76-.18-.31-.41-.27L47.65,8c-.16,0-.23.09-.22.21s0,.16.22.34.15.31.21.69l.19,1.38c.06.39.08.57,0,.72s-.14.3-.12.4.11.15.27.13l2.42-.34c.22,0,.31-.12.31-.37s0-.55,0-.8S50.85,10.1,50.72,10.12Z"/><path class="cls-6" d="M44.26,20.17A9.62,9.62,0,1,0,33.39,12,9.62,9.62,0,0,0,44.26,20.17Zm.05.37A10,10,0,1,0,33,12,10,10,0,0,0,44.31,20.54Z"/></svg>