<svg id="Layer_1" data-name="Layer 1" xmlns="http://www.w3.org/2000/svg" viewBox="0 0 84 41.12"><defs><style>.cls-1{fill:#ffad43;}.cls-2{fill:#dd0031;}.cls-3{fill:#fff;}.cls-4{fill:#007ae5;}.cls-5,.cls-6{fill:#0e1e25;}.cls-6{fill-opacity:0.12;fill-rule:evenodd;}</style></defs><path class="cls-1" d="M77.84,40.4l-.4.16.32.32h.08Zm.88-8.16L78.8,32v-.72l-.56,1Zm.88-2,.32-.72.16-.08-.56.64Zm2.64-6.56.56-1.36-2.64.24-1,1.28.72.8-1.2.4-.16,1.6-1.12.88-.8,3.68.64,2.16.56-1,.32.56.56-3.44.88-.64-.4-.16.4-.56.48.72.56-.48Zm1,.16.8-1.92-1.52,2.16h.4ZM58.08,8.64,53.44,5.12l-.8,3.52L48.32,13.2,47,12.48l-2.88,5.36L42,17.12l-.24-1.2-1.12-.48L39.12,19.6l-4.88,7.2.56.8L34.08,29l-1.6,1.12-.72-.56-2.16,1-1.12-.4-.24,1.12-3.52.8-1.44-1.12L21.12,32.4l-3.44-2.16-.24-2.08-3.76,3L10.24,33,8.16,35.84l-2,.4-.72,1.2L0,39l35.68,2.16H56.32l20.32-.24-.16-.56.8.56v-2.4l1.28,2.4L77,36.24l-3.28-.4.16,1.2-.8-.4L71.6,37l.56-1.2-1.84-1.12L70.08,33l-.64.4-2.32-1-.56-.72L66,32l-1.92-.4.16-.56,2.08.8.32-.56.72,1.12.8-1.12L69.44,33l.88-.4,2.4,3,1-.4.4-1.12-.64-.08.24-.48-.8-1L71.44,32l-2.72-3,.16-.24L72.24,32l.88-.32-.72-.48.32-1.52,1.44,1.6L74.32,29l-1.52-.24,1-.56-2.4-.8L67.2,21.92l-1.92-1L66,20.8l1.2,1,4.4,5.44.4-.64,1.6.8-.4-2.72,1,.4V23.92l-2.8-1.36L70.64,21,69.28,21l-2.08-.8L66,18.88l.56-.24-.24-.72-3.2.72.72-.32-.88-.8.56.4.72-3,.64.08.16-.8,1-.56V11.76L63.84,9.92,61.6,9l.48-1.2L61,6.72l-1.68-.24Z"/><path class="cls-2" d="M79.08,5.23,60.52,7.84A10,10,0,0,1,79.08,5.23Z"/><path class="cls-3" d="M80.06,12.17a10,10,0,0,0-1-6.94L60.52,7.84a10.08,10.08,0,0,0,1,6.93Z"/><path class="cls-4" d="M80.06,12.17a10,10,0,0,1-18.56,2.6Z"/><path class="cls-3" d="M65.6,5.39l-.49.37a.13.13,0,0,1-.18,0,.15.15,0,0,1,0-.09V5l-.49-.37a.14.14,0,0,1,0-.19s0,0,.07,0l.58-.18.19-.59a.12.12,0,0,1,.16-.09.18.18,0,0,1,.07,0l.34.53h.61a.14.14,0,0,1,.13.14.11.11,0,0,1,0,.08l-.37.5.19.6a.13.13,0,0,1-.08.17h-.09Z"/><path class="cls-3" d="M69.46,4.09,69,4.46a.13.13,0,0,1-.18,0,.16.16,0,0,1,0-.09l0-.63-.49-.37a.14.14,0,0,1,0-.19s0,0,.07,0l.58-.18.18-.59a.14.14,0,0,1,.17-.09.18.18,0,0,1,.07,0l.34.53h.6A.13.13,0,0,1,70.4,3a.19.19,0,0,1,0,.08l-.37.5.19.6a.14.14,0,0,1-.09.17.11.11,0,0,1-.08,0Z"/><path class="cls-3" d="M73.53,4.28,73,4.65a.13.13,0,0,1-.19,0,.19.19,0,0,1,0-.08V3.9l-.49-.38a.14.14,0,0,1,0-.19.15.15,0,0,1,.06-.05L73,3.11l.19-.6a.12.12,0,0,1,.16-.08s.06,0,.07,0l.34.52h.61a.13.13,0,0,1,.13.14.11.11,0,0,1,0,.08l-.36.5.18.6a.13.13,0,0,1-.08.17H74.1Z"/><path class="cls-3" d="M67.27,17.28l-.49.37a.13.13,0,0,1-.18,0,.11.11,0,0,1,0-.08V16.9l-.49-.38a.14.14,0,0,1,0-.19.18.18,0,0,1,.07,0l.58-.17.19-.6a.13.13,0,0,1,.23,0l.34.52h.61a.13.13,0,0,1,.13.14.11.11,0,0,1,0,.08l-.37.5.19.6a.13.13,0,0,1-.08.17.14.14,0,0,1-.09,0Z"/><path class="cls-3" d="M71.3,17.22l-.48.36a.13.13,0,0,1-.19,0,.19.19,0,0,1,0-.08v-.63l-.49-.38a.14.14,0,0,1,0-.19.18.18,0,0,1,.07-.05l.58-.17.19-.6a.13.13,0,0,1,.16-.09.13.13,0,0,1,.07.06l.34.52h.61a.13.13,0,0,1,.13.14.13.13,0,0,1,0,.08l-.37.49.19.61a.14.14,0,0,1-.08.17.1.1,0,0,1-.09,0Z"/><path class="cls-3" d="M75.2,16.17l-.49.36a.12.12,0,0,1-.18,0,.13.13,0,0,1,0-.08v-.63L74,15.41a.13.13,0,0,1,0-.19s0,0,.06-.05l.58-.17.19-.6a.13.13,0,0,1,.16-.09.11.11,0,0,1,.07.06l.35.52H76a.15.15,0,0,1,.13.14.16.16,0,0,1,0,.09l-.36.49.18.6a.12.12,0,0,1-.08.17.11.11,0,0,1-.08,0Z"/><path class="cls-5" d="M65.61,8.69,65,8.77c-.16,0-.22.09-.23.21,0,.31.38.23.19,1.07l-.42,1.82-.88-1.64c-.38-.71.08-.77,0-1.09,0-.11-.14-.15-.31-.13l-1.21.17c-.16,0-.23.09-.23.21,0,.29.29.17.73,1l1.12,2c.22.41.35.42.71.37s.44-.16.52-.53c0-.12.3-1.35.51-2.3s.51-.84.46-1.15C65.91,8.7,65.78,8.66,65.61,8.69Z"/><path class="cls-5" d="M68.14,8.29a1.89,1.89,0,0,0-1.7,2.25,2,2,0,1,0,4-.55A1.89,1.89,0,0,0,68.14,8.29Zm.48,3.46c-.51.07-.89-.49-1-1.37s.09-1.52.61-1.6.89.5,1,1.37S69.13,11.68,68.62,11.75Z"/><path class="cls-5" d="M74.38,8.58c-.07-.24-.18-.54-.25-.76s-.17-.31-.4-.27l-2.62.36c-.23,0-.32.13-.32.38s0,.55,0,.79a.22.22,0,0,0,.25.25c.25,0,.33-.33.41-.55A.62.62,0,0,1,72,8.33l.3,2.1a1.38,1.38,0,0,1,0,.72c-.12.22-.15.3-.13.39s.11.16.28.13l1.08-.15c.17,0,.24-.09.23-.2s-.06-.17-.22-.35-.16-.3-.21-.69L73,8.18a.66.66,0,0,1,.67.29c.13.19.29.44.54.4A.2.2,0,0,0,74.38,8.58Z"/><path class="cls-5" d="M78.09,9.49c-.26,0-.34.31-.42.53a.62.62,0,0,1-.56.46H77c-.37.06-.5,0-.59-.65l-.06-.47a.67.67,0,0,1,.4,0c.16.11.2.22.32.21s.13-.17.11-.34l-.08-.57c0-.17,0-.32-.2-.3s-.12.14-.25.29a.71.71,0,0,1-.38.15l0-.39c-.09-.6,0-.73.35-.79a.65.65,0,0,1,.66.29c.13.19.29.44.54.41s.22-.13.17-.3l-.24-.76A.32.32,0,0,0,77.33,7L75,7.36c-.16,0-.23.09-.22.21s0,.16.22.34.15.31.21.69L75.42,10a1.42,1.42,0,0,1,0,.73c-.12.21-.15.29-.13.39s.11.15.28.13L78,10.89c.22,0,.31-.12.31-.36s0-.56,0-.81S78.22,9.47,78.09,9.49Z"/><path class="cls-6" d="M71.63,19.54a9.63,9.63,0,1,0-10.87-8.2A9.62,9.62,0,0,0,71.63,19.54Zm.05.37A10,10,0,1,0,60.39,11.4,10,10,0,0,0,71.68,19.91Z"/></svg>