<svg id="Layer_1" data-name="Layer 1" xmlns="http://www.w3.org/2000/svg" viewBox="0 0 45.27 71.19"><defs><style>.cls-1{fill:#ffad43;}.cls-2{fill:#dd0031;}.cls-3{fill:#fff;}.cls-4{fill:#007ae5;}.cls-5,.cls-6{fill:#0e1e25;}.cls-6{fill-opacity:0.12;fill-rule:evenodd;}</style></defs><path class="cls-1" d="M37.76,19.43v-.56l-1.84-4,.48-1.76,2-2.64-.48-2.16.56-1.12-36.4.32.16,1.76-.88,2.4.88,1.92-1,4.56L3,23l-.88,2.48.16,3.28L1.12,30.07,0,33.91l1.36,7.84L0,46.55l.24,1.12,1.28-1.52H2.4l1.28,2-1,20.72.72,1.6,16.08.72-1.52-2.88L17.68,67l.64-2.72,1-1,.88-6.8.64-1.36.32-7,1-1.6.56-3,1.84-1.92.72-2.72,1.6-2.56-.4-.64,1.36-3,.16-4.8,1.28-1.76,2.4-.16,3.6-2.8,1.52-2L37,19.67Z"/><path class="cls-2" d="M44.06,5.23,25.5,7.84A10,10,0,0,1,44.06,5.23Z"/><path class="cls-3" d="M45,12.17a9.86,9.86,0,0,0,.13-3.56,9.82,9.82,0,0,0-1.11-3.38L25.5,7.84a9.93,9.93,0,0,0,1,6.93Z"/><path class="cls-4" d="M45,12.17a10,10,0,0,1-18.56,2.6Z"/><path class="cls-3" d="M30.58,5.39l-.49.37a.13.13,0,0,1-.18,0,.1.1,0,0,1,0-.09V5l-.49-.37a.14.14,0,0,1,0-.19s0,0,.07,0L30,4.22l.18-.59a.14.14,0,0,1,.17-.09.18.18,0,0,1,.07,0l.34.53h.6a.14.14,0,0,1,.14.14.11.11,0,0,1,0,.08l-.37.5.19.6a.14.14,0,0,1-.08.17h-.09Z"/><path class="cls-3" d="M34.44,4.09,34,4.46a.13.13,0,0,1-.18,0,.16.16,0,0,1,0-.09l0-.63-.49-.37a.14.14,0,0,1,0-.19s0,0,.07,0l.58-.18.18-.59a.13.13,0,0,1,.17-.09.15.15,0,0,1,.06,0l.35.53h.6a.14.14,0,0,1,.13.14.19.19,0,0,1,0,.08l-.37.5.19.6a.14.14,0,0,1-.09.17.11.11,0,0,1-.08,0Z"/><path class="cls-3" d="M38.51,4.28,38,4.65a.13.13,0,0,1-.19,0,.19.19,0,0,1,0-.08V3.9l-.49-.38a.14.14,0,0,1,0-.19.15.15,0,0,1,.06-.05L38,3.11l.19-.6a.13.13,0,0,1,.23,0l.34.52h.61a.13.13,0,0,1,.13.14.11.11,0,0,1,0,.08l-.36.5.18.6a.13.13,0,0,1-.08.17h-.08Z"/><path class="cls-3" d="M32.25,17.28l-.49.37a.13.13,0,0,1-.18,0,.11.11,0,0,1,0-.08V16.9l-.49-.38a.14.14,0,0,1,0-.19.18.18,0,0,1,.07,0l.58-.17.19-.6a.13.13,0,0,1,.23,0l.34.52h.61a.13.13,0,0,1,.13.14.11.11,0,0,1,0,.08l-.37.5.19.6a.13.13,0,0,1-.08.17.14.14,0,0,1-.09,0Z"/><path class="cls-3" d="M36.28,17.22l-.48.36a.13.13,0,0,1-.19,0,.19.19,0,0,1,0-.08v-.63l-.49-.38a.14.14,0,0,1,0-.19.18.18,0,0,1,.07-.05l.58-.17.19-.6a.13.13,0,0,1,.16-.09.13.13,0,0,1,.07.06l.34.52h.61a.13.13,0,0,1,.13.14.13.13,0,0,1,0,.08l-.37.49.19.61a.14.14,0,0,1-.08.17.1.1,0,0,1-.09,0Z"/><path class="cls-3" d="M40.18,16.17l-.49.36a.13.13,0,0,1-.19,0,.24.24,0,0,1,0-.08v-.63L39,15.41a.14.14,0,0,1,0-.19s0,0,.06-.05l.58-.17.19-.6a.13.13,0,0,1,.16-.09.13.13,0,0,1,.07.06l.34.52H41a.15.15,0,0,1,.13.14.16.16,0,0,1,0,.09l-.36.49.18.6a.12.12,0,0,1-.08.17.11.11,0,0,1-.08,0Z"/><path class="cls-5" d="M30.59,8.69,30,8.77c-.16,0-.22.09-.23.21,0,.31.38.23.19,1.07l-.42,1.82-.88-1.64c-.38-.71.08-.77,0-1.09,0-.11-.14-.15-.31-.13l-1.21.17c-.17,0-.23.09-.23.21,0,.29.29.17.73,1l1.12,2c.22.41.35.42.71.37s.44-.16.52-.53c0-.12.3-1.35.51-2.3s.5-.84.46-1.15C30.88,8.7,30.76,8.66,30.59,8.69Z"/><path class="cls-5" d="M33.11,8.29a1.89,1.89,0,0,0-1.69,2.25A2,2,0,1,0,35.37,10,1.89,1.89,0,0,0,33.11,8.29Zm.49,3.46c-.51.07-.89-.49-1-1.37s.09-1.52.6-1.6.9.5,1,1.37S34.11,11.68,33.6,11.75Z"/><path class="cls-5" d="M39.36,8.58l-.25-.76c-.07-.24-.18-.31-.4-.27l-2.62.36c-.23,0-.32.13-.32.38s0,.55,0,.79.1.26.25.25.33-.33.41-.55A.62.62,0,0,1,37,8.33l.3,2.1a1.38,1.38,0,0,1,0,.72c-.12.22-.15.3-.13.39s.11.16.28.13l1.08-.15c.17,0,.24-.09.23-.2s-.06-.17-.23-.35-.15-.3-.2-.69L38,8.18a.66.66,0,0,1,.67.29c.13.19.29.44.54.4A.2.2,0,0,0,39.36,8.58Z"/><path class="cls-5" d="M43.07,9.49c-.26,0-.34.31-.42.53a.62.62,0,0,1-.56.46H42c-.37.06-.5,0-.59-.65l-.06-.47a.67.67,0,0,1,.4,0c.16.11.2.22.32.21s.13-.17.11-.34l-.08-.57c0-.17,0-.32-.2-.3s-.13.14-.25.29a.71.71,0,0,1-.38.15l0-.39c-.09-.6,0-.73.35-.79a.65.65,0,0,1,.66.29c.13.19.29.44.54.41s.22-.13.17-.3l-.24-.76A.32.32,0,0,0,42.31,7L40,7.36c-.16,0-.23.09-.22.21s0,.16.22.34.15.31.21.69L40.4,10a1.42,1.42,0,0,1,0,.73c-.12.21-.15.29-.13.39s.11.15.28.13L43,10.89c.22,0,.31-.12.31-.36s0-.56,0-.81S43.2,9.47,43.07,9.49Z"/><path class="cls-6" d="M36.61,19.54a9.63,9.63,0,1,0-10.87-8.2A9.63,9.63,0,0,0,36.61,19.54Zm0,.37a10,10,0,1,0-11.3-8.51A10,10,0,0,0,36.66,19.91Z"/></svg>