<svg id="Layer_1" data-name="Layer 1" xmlns="http://www.w3.org/2000/svg" viewBox="0 0 84 59.97"><defs><style>.cls-1{fill:#ffad43;}.cls-2{fill:#dd0031;}.cls-3{fill:#fff;}.cls-4{fill:#007ae5;}.cls-5,.cls-6{fill:#0e1e25;}.cls-6{fill-opacity:0.12;fill-rule:evenodd;}</style></defs><path class="cls-1" d="M6.8,46.29,7,45.81l-.32-.64-.32.88Zm13.12-9.76.32-.48-.32-.32-.48.32Zm-1.6-.8V34.45l.16-.48-.8,1Zm4.48-3.36-.32-1.44-.48.8-.16,1.76.64-1,.24.16-.4.8,1.12-.64Zm-.56-2.88-.56-1.6-.32,1.6.88.48Zm-1.6-6.72-.4-.64-.08-.24.08,1.44Zm.88-5.2-.8.16-1,2.32.88,1.2h.56l.48,2.48h.8l.8,1.2.16-1.6-1.2-1-.4,1.28-.32-2.88-1.36-.64,1.2-1.2.88.32Zm-2.56-1L18.64,15l-.56,1.28,1,1Zm1.68-1.2.08-.32-.48-.56-.08.48Zm-3.12.32-1-1.44-.8.24.32,1.6,1.6.56ZM19,12.77h-.8l-.8,1,.16.72.16-.48.48.56.64-.08-.32-1.52.8,1.52.64-.88Zm2.4,1-.24-.48-.72-.8v.32ZM17.2,8.61l.16-.16h-.64v.32ZM76.4,8l-27.12.8L20.16,8.61l.08.48-.64.32.56.32.56,2.72,1-.56.8.4L23,14.93l-.24.24-1-.48.8,1.92-.8-.48v.48l-.56-.8-.72.24.24,1,.24.4.8-.48L22,18l1.44,1.12v1h-1.2l.08,1.6,1.44,1.12-1-1.6L23,20.05l.72.24.08,2,1.6,1-1.2,1.2-1,2.16-.4,2.08,1,.88-.08.48L23,30l.8,3.2-1,1.44-1-.8-.48,1.6L19.6,37l-1-1-.32.48v-.48l-.48,1.6-.32-1.28-.8.8.8-1.44L16.08,37l.64-.64h-.64l.16-.16,1-.48L19,32.53l.32,3.36.48-2.56,1-1v.48L20.16,34l1.2.64L22,30.77l-.48-1-1.28.8.48-.8-.56-.64.08-.48,1,1.12-.56-2.32.56.72.48-.8.8-.16-.64-2.32-.72-.56.4,1.92-.64-.48-1.44,2.72-1.92,1-1.76,3,.64.32,2.24-1-2.4,1.28-1-.16,3.36-5.76-.16-1.12.32.64.32-1v2.4l2-2.88-1.68-3,.16-.88-1.12.32L19,22.85l-.48.72-.4-1.68-1.2.88-1.28-1.6.48-.48-1.44,1-6.72-1L.24,17l.64,1L0,20.53l.4,2.32,2.88,5.36.24,4.32,1.12,2.56v3.84l1-1.76,1,1.12,1.76.48-2.32.8v1l-1-1.12.4,2.72,2.08-.08,1.28,1-.72.08-.56-.48-.16,1.52-.64-.4.4,1.12L7,46.05l1,.72-.8-.24-.48.72-.8-3.76-.72,5.36,1-.48,1.52,1,1.76-.72.88.64h1.68l1.44,1.6,1.92-.4,1.44.88,1.76,2.4.64,5L23.92,60l5-2.24,5.44.32,1.28,1.28L38.24,59l2.88-1.28,4.16-.16,3-1.52,3-.56,1-.8,4.88-.48,1-.72,22.24-.88-1-1.44.48-1-.48-1.44-1.12-1.6Z"/><path class="cls-2" d="M82.79,5.23,64.23,7.84A10,10,0,0,1,82.79,5.23Z"/><path class="cls-3" d="M83.76,12.17a10,10,0,0,0-1-6.94L64.23,7.84a10,10,0,0,0,1,6.93Z"/><path class="cls-4" d="M83.76,12.17a10,10,0,0,1-18.56,2.6Z"/><path class="cls-3" d="M69.31,5.39l-.49.37a.13.13,0,0,1-.18,0,.16.16,0,0,1,0-.09l0-.63-.49-.37a.14.14,0,0,1,0-.19s0,0,.07,0l.58-.18.18-.59a.13.13,0,0,1,.17-.09.15.15,0,0,1,.06,0l.35.53h.6a.14.14,0,0,1,.13.14.19.19,0,0,1,0,.08l-.37.5.19.6a.14.14,0,0,1-.09.17h-.08Z"/><path class="cls-3" d="M73.17,4.09l-.49.37a.14.14,0,0,1-.19,0,.29.29,0,0,1,0-.09V3.71L72,3.34a.14.14,0,0,1,0-.19.07.07,0,0,1,.06,0l.58-.18.19-.59A.12.12,0,0,1,73,2.24a.13.13,0,0,1,.07,0l.34.53H74a.14.14,0,0,1,.13.14.11.11,0,0,1,0,.08l-.36.5.18.6a.13.13,0,0,1-.08.17.11.11,0,0,1-.08,0Z"/><path class="cls-3" d="M77.23,4.28l-.49.37a.12.12,0,0,1-.18,0,.11.11,0,0,1,0-.08V3.9l-.49-.38a.14.14,0,0,1,0-.19.18.18,0,0,1,.07-.05l.58-.17.19-.6a.13.13,0,0,1,.23,0l.34.52h.61a.13.13,0,0,1,.13.14.11.11,0,0,1,0,.08l-.37.5.19.6a.13.13,0,0,1-.08.17H77.8Z"/><path class="cls-3" d="M71,17.28l-.49.37a.13.13,0,0,1-.18,0,.11.11,0,0,1,0-.08l0-.63-.49-.38a.14.14,0,0,1,0-.19.18.18,0,0,1,.07,0l.58-.17.18-.6a.13.13,0,0,1,.17-.08s0,0,.06.05l.35.52h.6a.13.13,0,0,1,.13.14.19.19,0,0,1,0,.08l-.37.5.19.6a.14.14,0,0,1-.09.17.11.11,0,0,1-.08,0Z"/><path class="cls-3" d="M75,17.22l-.49.36a.12.12,0,0,1-.18,0,.11.11,0,0,1,0-.08l0-.63-.49-.38a.14.14,0,0,1,0-.19.18.18,0,0,1,.07-.05l.58-.17.18-.6a.14.14,0,0,1,.17-.09.13.13,0,0,1,.07.06l.34.52h.6a.13.13,0,0,1,.13.14.12.12,0,0,1,0,.08l-.37.49.19.61a.14.14,0,0,1-.09.17.08.08,0,0,1-.08,0Z"/><path class="cls-3" d="M78.9,16.17l-.49.36a.12.12,0,0,1-.2-.11v-.63l-.49-.38a.14.14,0,0,1,0-.19.12.12,0,0,1,.07-.05l.58-.17.19-.6a.13.13,0,0,1,.16-.09.13.13,0,0,1,.07.06l.34.52h.61a.15.15,0,0,1,.13.14.16.16,0,0,1,0,.09l-.37.49.19.6a.13.13,0,0,1-.08.17.14.14,0,0,1-.09,0Z"/><path class="cls-5" d="M69.32,8.69l-.63.08c-.17,0-.22.09-.23.21,0,.31.38.23.19,1.07l-.42,1.82-.88-1.64c-.38-.71.07-.77,0-1.09C67.3,9,67.19,9,67,9l-1.21.17c-.17,0-.24.09-.23.21,0,.29.28.17.73,1s1.06,2,1.12,2c.21.41.35.42.71.37s.44-.16.52-.53c0-.12.3-1.35.51-2.3s.5-.84.46-1.15C69.61,8.7,69.48,8.66,69.32,8.69Z"/><path class="cls-5" d="M71.84,8.29a1.89,1.89,0,0,0-1.69,2.25A2,2,0,1,0,74.09,10,1.88,1.88,0,0,0,71.84,8.29Zm.49,3.46c-.51.07-.9-.49-1-1.37s.09-1.52.6-1.6.9.5,1,1.37S72.84,11.68,72.33,11.75Z"/><path class="cls-5" d="M78.08,8.58c-.07-.24-.17-.54-.24-.76s-.18-.31-.41-.27l-2.62.36c-.22,0-.31.13-.32.38s0,.55,0,.79.1.26.24.25.33-.33.41-.55a.65.65,0,0,1,.56-.45l.3,2.1c0,.38.07.57,0,.72s-.14.3-.12.39.11.16.27.13l1.09-.15c.16,0,.23-.09.23-.2s-.06-.17-.23-.35-.15-.3-.21-.69l-.29-2.1a.65.65,0,0,1,.66.29c.14.19.3.44.55.4S78.13,8.74,78.08,8.58Z"/><path class="cls-5" d="M81.79,9.49c-.25,0-.33.31-.41.53a.63.63,0,0,1-.56.46h-.07c-.38.06-.5,0-.59-.65l-.07-.47a.72.72,0,0,1,.41,0c.16.11.2.22.32.21s.13-.17.1-.34l-.08-.57c0-.17,0-.32-.19-.3s-.13.14-.25.29a.71.71,0,0,1-.38.15L80,8.46c-.08-.6,0-.73.36-.79A.66.66,0,0,1,81,8c.13.19.29.44.54.41s.22-.13.16-.3l-.24-.76A.32.32,0,0,0,81,7l-2.3.32c-.16,0-.24.09-.23.21s.06.16.23.34.15.31.2.69l.2,1.38a1.29,1.29,0,0,1,0,.73c-.11.21-.14.29-.12.39s.11.15.27.13l2.42-.34c.23,0,.31-.12.32-.36s0-.56,0-.81A.2.2,0,0,0,81.79,9.49Z"/><path class="cls-6" d="M75.34,19.54a9.63,9.63,0,1,0-10.88-8.2A9.63,9.63,0,0,0,75.34,19.54Zm0,.37a10,10,0,1,0-11.3-8.51A10,10,0,0,0,75.39,19.91Z"/></svg>