<svg id="Layer_1" data-name="Layer 1" xmlns="http://www.w3.org/2000/svg" viewBox="0 0 59.36 64"><defs><style>.cls-1{fill:#ffad43;}.cls-2{fill:#dd0031;}.cls-3{fill:#fff;}.cls-4{fill:#007ae5;}.cls-5,.cls-6{fill:#0e1e25;}.cls-6{fill-opacity:0.12;fill-rule:evenodd;}</style></defs><path class="cls-1" d="M57.6,24.48l-.88,1.36-1.2.48L55.28,28l-1,1.28-.08,1,.72,1,1.52-1.84-.08-.56L57.68,27l-.56-.56.56.16L57.6,25.2l.64-.16-.16-.56Zm1-1.68-.32,1h1l.08-.88ZM21.28,4.08l1.44-.8-.16-.48-2,1.6ZM23,2l.24-.32L22,2.16l1,.24Zm-2.56-.16-.64-.4-.8.4L17.6,3l-1-.4L14.72,4,11,5.12l-1.68.16L8.08,4,6.88,5.52H6.24l-.16,8.16-.72.64H4.64l-2.88,1.6L0,18.8v1.84l1.28.08.8,2.08L1,24.56v2.32l-.48.72L1,29.68.24,32.16l2.16,2,1.92.4,1,1.52,1.84.64,1.6,1.44,1.28,2.56,1.52,1.36,2.48.72,1.12,1.28.4,2.72v3.68l.4,1.44,1.12.8-.8,2.16.8,5.12.8,1.2,3.2.8.48,2H51.2l.08-4.08-1.36-3.36-.16-3.36L51.68,47l-.4-3.28.88-2.32,1.44-1.44L53,38.16l1.92-6.72-1.12-1.12-1.28.56-1.76,2.64-1.6,1.6-.64.16-.64-.48L49.76,30l1.92-1.12.48-1.6-1.28-1.12.4-2.72-2,.16L50,21.92l-.08-2.72L49,18.32l-2.16-.56L47,16.64l-1-1-3.44-1-3-.16L37,13,27.12,10.4l-1-2.48-1.52-.4-.24-.72-1.6-.16L21,5.28l-.24.88-1.52.4,1.76-4Zm1.12.32V1.84l-.48-.32-.24.32Zm-2.4-.72.24-.32L19.2.88l-.32.4ZM24.32.88V0l-.64,1.12Z"/><path class="cls-2" d="M55.76,8.83,37.2,11.44A10,10,0,0,1,55.76,8.83Z"/><path class="cls-3" d="M56.73,15.77a10,10,0,0,0-1-6.94L37.2,11.44a10,10,0,0,0,1,6.93Z"/><path class="cls-4" d="M56.73,15.77a10,10,0,0,1-18.56,2.6Z"/><path class="cls-3" d="M42.28,9l-.49.37a.13.13,0,0,1-.18,0,.16.16,0,0,1,0-.09l0-.63-.49-.37a.14.14,0,0,1,0-.19A.08.08,0,0,1,41.15,8l.58-.18.18-.59a.13.13,0,0,1,.17-.09.15.15,0,0,1,.06.05l.35.53h.6a.14.14,0,0,1,.13.14.19.19,0,0,1,0,.08l-.37.5L43,9a.14.14,0,0,1-.09.17h-.08Z"/><path class="cls-3" d="M46.14,7.69l-.49.37a.14.14,0,0,1-.19,0,.29.29,0,0,1,0-.09V7.31L45,6.94a.14.14,0,0,1,0-.19.07.07,0,0,1,.06,0l.58-.18.19-.59a.12.12,0,0,1,.16-.09.18.18,0,0,1,.07,0l.34.53H47a.14.14,0,0,1,.13.14.11.11,0,0,1,0,.08l-.36.5.18.6a.13.13,0,0,1-.08.17h-.08Z"/><path class="cls-3" d="M50.2,7.88l-.49.37a.12.12,0,0,1-.18,0,.11.11,0,0,1,0-.08V7.5L49,7.12a.14.14,0,0,1,0-.19.18.18,0,0,1,.07,0l.58-.17.19-.6a.13.13,0,0,1,.23,0l.34.52H51a.13.13,0,0,1,.13.14.11.11,0,0,1,0,.08l-.37.5.19.6a.13.13,0,0,1-.08.17h-.09Z"/><path class="cls-3" d="M44,20.88l-.49.37a.13.13,0,0,1-.18,0,.11.11,0,0,1,0-.08l0-.63-.49-.38a.14.14,0,0,1,0-.19.18.18,0,0,1,.07-.05l.58-.17.18-.6a.13.13,0,0,1,.17-.08s0,0,.06,0l.35.52h.6a.13.13,0,0,1,.13.14.19.19,0,0,1,0,.08l-.37.5.19.6a.14.14,0,0,1-.09.17h-.08Z"/><path class="cls-3" d="M48,20.82l-.49.36a.12.12,0,0,1-.18,0,.11.11,0,0,1,0-.08l0-.63-.49-.38a.14.14,0,0,1,0-.19.18.18,0,0,1,.07-.05l.58-.17.18-.6a.14.14,0,0,1,.17-.09.13.13,0,0,1,.07.06l.34.52h.6a.13.13,0,0,1,.13.14.12.12,0,0,1,0,.08l-.37.49.19.61a.14.14,0,0,1-.09.17.08.08,0,0,1-.08,0Z"/><path class="cls-3" d="M51.87,19.77l-.49.36a.12.12,0,0,1-.2-.11v-.63L50.7,19a.14.14,0,0,1,0-.19.12.12,0,0,1,.07-.05l.58-.17.19-.6a.13.13,0,0,1,.16-.09.13.13,0,0,1,.07.06l.34.52h.61a.15.15,0,0,1,.13.14.16.16,0,0,1,0,.09l-.37.49.19.6a.13.13,0,0,1-.08.17h-.09Z"/><path class="cls-5" d="M42.29,12.29l-.63.08c-.17,0-.22.09-.23.21,0,.31.38.23.19,1.07l-.42,1.82-.88-1.64c-.38-.71.07-.77,0-1.09,0-.11-.14-.15-.31-.13l-1.21.17c-.17,0-.24.09-.23.21,0,.29.28.17.73,1s1.06,2,1.12,2.05c.21.41.35.42.71.37s.44-.16.52-.53c0-.12.3-1.35.51-2.3s.5-.84.46-1.15C42.58,12.3,42.45,12.26,42.29,12.29Z"/><path class="cls-5" d="M44.81,11.89a1.89,1.89,0,0,0-1.69,2.25,2,2,0,1,0,3.94-.55A1.88,1.88,0,0,0,44.81,11.89Zm.49,3.46c-.51.07-.9-.49-1-1.37s.09-1.52.6-1.6.9.5,1,1.37S45.81,15.28,45.3,15.35Z"/><path class="cls-5" d="M51.05,12.18c-.07-.24-.17-.54-.24-.76s-.18-.31-.41-.27l-2.62.36c-.22,0-.31.13-.32.38s0,.55,0,.79a.21.21,0,0,0,.24.25c.25,0,.33-.33.41-.55a.65.65,0,0,1,.56-.45L49,14c0,.38.07.57,0,.72s-.14.3-.12.39.11.16.27.13l1.09-.15c.16,0,.23-.09.23-.2s-.06-.17-.23-.35-.15-.3-.21-.69l-.29-2.1a.65.65,0,0,1,.66.29c.14.19.3.44.55.4S51.1,12.34,51.05,12.18Z"/><path class="cls-5" d="M54.76,13.09c-.25,0-.33.31-.41.53a.63.63,0,0,1-.56.46h-.07c-.38.06-.5,0-.59-.65L53.06,13a.72.72,0,0,1,.41,0c.16.11.2.22.32.21s.13-.17.1-.34l-.08-.57c0-.17,0-.32-.19-.3s-.13.14-.25.29a.71.71,0,0,1-.38.15l-.06-.39c-.08-.6,0-.73.36-.79a.66.66,0,0,1,.66.29c.13.19.29.44.54.41s.21-.13.16-.3l-.24-.76a.32.32,0,0,0-.41-.27L51.7,11c-.16,0-.24.09-.23.21s.06.16.23.34.15.31.2.69l.2,1.38a1.29,1.29,0,0,1,0,.73c-.11.21-.14.29-.12.39s.11.15.27.13l2.42-.34c.23,0,.31-.12.32-.36s0-.56,0-.81A.2.2,0,0,0,54.76,13.09Z"/><path class="cls-6" d="M48.31,23.14a9.63,9.63,0,1,0-10.88-8.2A9.63,9.63,0,0,0,48.31,23.14Zm0,.37A10,10,0,1,0,37.06,15,10,10,0,0,0,48.36,23.51Z"/></svg>