<svg id="Layer_1" data-name="Layer 1" xmlns="http://www.w3.org/2000/svg" viewBox="0 0 77 65.6"><defs><style>.cls-1{fill:#ffad43;}.cls-2{fill:#dd0031;}.cls-3{fill:#fff;}.cls-4{fill:#007ae5;}.cls-5,.cls-6{fill:#0e1e25;}.cls-6{fill-opacity:0.12;fill-rule:evenodd;}</style></defs><path class="cls-1" d="M47.6,17.76H32.16L32.4,0,30.24.72l.88,2.72L30.72,5l.4,1.28-2,4.64-.32,2.8-.72.16v1L27,16.8l.56,1-.8,1.68-5.12,4.24-2.16,1-.72-1.2H18l-1.12,1.2-.64,1.36H14.8l-1,1.76v1.28l-1.12.48.72,2.8-.88-.32-1.12,1.44-.64-2.24-.88-.64-.8.4L6.72,35.2,7,38.4l-1.44.4-.88,2.8-3.76.32L1,45.28,0,47l2.32,3.44-.16.72,2.64,5,2.64,2.32,2.32.64-.4,1.28,2.16,3.44,2.72,1.6,1.6.16L19,63l1.84,1.84,5.36-1.36.56-1.84,1.6.88,3.2-1.76,1.28.88L35.12,60,35,59l1.36-1L35.2,56.8l1.36-2.48,3.12-3.6L41,47.28l1.68-1.68,2.4-6.08,1.52.48.48,1.6,3.44,1.12,4.24-8.16,1.92,1L58.48,33h1L61,31.76l2.32-3.28.24-2,1.2-3.6,7.36,5.84L73.44,25l-.24-1.76-.88-.48.64-1-.88.16-.16-1-.32.64-.32-1,.64-.24-.24-.64L69.76,20l-3-2.08L65.2,19.28,63,19.6l.24.48-.48.24.24.56-.4.48L59.36,21l-1-.4.16-.72-.56-.4-.48,1.28-2.16,2.16-1.36-.48-.88.24-2.64,3-3,1.92Z"/><path class="cls-2" d="M75.79,9.79l-18.56,2.6a10,10,0,0,1,18.56-2.6Z"/><path class="cls-3" d="M76.76,16.72a10,10,0,0,0-1-6.93l-18.56,2.6a10,10,0,0,0,1,6.94Z"/><path class="cls-4" d="M76.76,16.72A10,10,0,0,1,58.2,19.33Z"/><path class="cls-3" d="M62.31,10l-.49.36a.12.12,0,0,1-.18,0,.11.11,0,0,1,0-.08l0-.63-.49-.38a.14.14,0,0,1,0-.19A.18.18,0,0,1,61.18,9l.58-.17.18-.6a.14.14,0,0,1,.17-.09.12.12,0,0,1,.06.06l.35.52h.6a.13.13,0,0,1,.13.13.29.29,0,0,1,0,.09l-.37.49.19.61a.14.14,0,0,1-.09.17.12.12,0,0,1-.08,0Z"/><path class="cls-3" d="M66.17,8.65,65.68,9a.13.13,0,0,1-.19,0,.19.19,0,0,1,0-.08V8.27L65,7.89a.14.14,0,0,1,0-.19.15.15,0,0,1,.06,0l.58-.17.19-.6A.13.13,0,0,1,66,6.79a.11.11,0,0,1,.07.06l.34.52H67a.13.13,0,0,1,.13.13.16.16,0,0,1,0,.09l-.36.49.18.61a.13.13,0,0,1-.08.17.11.11,0,0,1-.08,0Z"/><path class="cls-3" d="M70.23,8.83l-.49.37a.13.13,0,0,1-.18,0,.15.15,0,0,1,0-.09V8.45l-.49-.37a.14.14,0,0,1,0-.19s0,0,.07,0l.58-.18.19-.59A.12.12,0,0,1,70,7a.18.18,0,0,1,.07,0l.34.53h.61a.14.14,0,0,1,.13.14.11.11,0,0,1,0,.08l-.37.5.19.6a.13.13,0,0,1-.08.17H70.8Z"/><path class="cls-3" d="M64,21.83l-.49.37a.13.13,0,0,1-.18,0,.16.16,0,0,1,0-.09l0-.63-.49-.37a.14.14,0,0,1,0-.19s0-.05.07-.05l.58-.18.18-.59a.13.13,0,0,1,.17-.09.15.15,0,0,1,.06.05l.35.53h.6a.13.13,0,0,1,.13.14.19.19,0,0,1,0,.08l-.37.5.19.6a.14.14,0,0,1-.09.17h-.08Z"/><path class="cls-3" d="M68,21.77l-.49.37a.12.12,0,0,1-.18,0,.11.11,0,0,1,0-.08l0-.63L66.84,21a.15.15,0,0,1,0-.2.18.18,0,0,1,.07-.05l.58-.17.18-.6a.13.13,0,0,1,.17-.08.18.18,0,0,1,.07,0l.34.52h.6a.13.13,0,0,1,.13.14.11.11,0,0,1,0,.08l-.37.5.19.6a.14.14,0,0,1-.09.17.11.11,0,0,1-.08,0Z"/><path class="cls-3" d="M71.9,20.72l-.49.37a.13.13,0,0,1-.18,0,.11.11,0,0,1,0-.08v-.63L70.73,20a.14.14,0,0,1,0-.19.18.18,0,0,1,.07-.05l.58-.17.19-.6a.13.13,0,0,1,.23,0l.34.52h.61a.13.13,0,0,1,.13.14.11.11,0,0,1,0,.08l-.37.5.19.6a.13.13,0,0,1-.08.17h-.09Z"/><path class="cls-5" d="M62.32,13.24l-.63.09c-.17,0-.22.09-.23.2,0,.32.38.23.19,1.07l-.42,1.82-.88-1.64c-.38-.7.07-.76,0-1.09,0-.11-.14-.15-.31-.13l-1.21.17c-.17,0-.24.09-.23.21,0,.3.28.17.73,1s1.06,2,1.12,2.06c.21.4.35.41.71.36s.44-.15.52-.53c0-.12.3-1.34.51-2.29s.5-.85.46-1.16C62.61,13.25,62.48,13.22,62.32,13.24Z"/><path class="cls-5" d="M64.84,12.84a1.89,1.89,0,0,0-1.69,2.26,2,2,0,1,0,3.94-.56A1.9,1.9,0,0,0,64.84,12.84Zm.49,3.46c-.51.08-.9-.49-1-1.37s.09-1.52.6-1.59.9.49,1,1.36S65.84,16.23,65.33,16.3Z"/><path class="cls-5" d="M71.08,13.13l-.24-.76a.32.32,0,0,0-.41-.27l-2.62.37c-.22,0-.31.13-.32.37s0,.55,0,.8.1.26.24.24.33-.32.41-.54a.66.66,0,0,1,.56-.46L69,15c0,.39.07.57,0,.72s-.14.3-.12.4.11.15.27.13l1.09-.15c.16,0,.23-.09.23-.21s-.06-.16-.23-.34-.15-.31-.21-.69l-.29-2.1a.63.63,0,0,1,.66.28c.14.19.3.44.55.41S71.13,13.3,71.08,13.13Z"/><path class="cls-5" d="M74.79,14c-.25,0-.33.32-.41.54a.66.66,0,0,1-.56.46h-.07c-.38,0-.5,0-.59-.66l-.07-.47a.82.82,0,0,1,.41,0c.16.11.2.23.32.21s.13-.17.1-.34l-.08-.57c0-.17,0-.32-.19-.29s-.13.14-.25.28a.64.64,0,0,1-.38.15L73,13c-.08-.6,0-.73.36-.79a.7.7,0,0,1,.66.29c.13.19.29.45.54.41s.22-.13.16-.3l-.24-.76a.32.32,0,0,0-.41-.27l-2.3.33c-.16,0-.24.09-.23.2s.06.16.23.34.15.31.2.7l.2,1.38c.05.38.07.57,0,.72s-.14.3-.12.39.11.16.27.13l2.42-.34c.23,0,.31-.12.32-.36s0-.56,0-.8S74.93,14,74.79,14Z"/><path class="cls-6" d="M68.34,24.09A9.63,9.63,0,1,0,57.46,15.9,9.63,9.63,0,0,0,68.34,24.09Zm0,.37A10,10,0,1,0,57.09,16,10,10,0,0,0,68.39,24.46Z"/></svg>