<svg id="Layer_1" data-name="Layer 1" xmlns="http://www.w3.org/2000/svg" viewBox="0 0 82.99 65.63"><defs><style>.cls-1{fill:#ffad43;}.cls-2{fill:#dd0031;}.cls-3{fill:#fff;}.cls-4{fill:#007ae5;}.cls-5,.cls-6{fill:#0e1e25;}.cls-6{fill-opacity:0.12;fill-rule:evenodd;}</style></defs><path class="cls-1" d="M76.16,36.67l-.4-28.88L39.12,7.47,3.92,5.63,0,63.47l37.36,1.84,39.12.32Z"/><path class="cls-2" d="M81.78,5.23,63.22,7.84A10,10,0,0,1,81.78,5.23Z"/><path class="cls-3" d="M82.76,12.17a10.09,10.09,0,0,0,.13-3.56,9.82,9.82,0,0,0-1.11-3.38L63.22,7.84a10.08,10.08,0,0,0-.14,3.56,10.29,10.29,0,0,0,1.11,3.37Z"/><path class="cls-4" d="M82.76,12.17a10,10,0,0,1-18.57,2.6Z"/><path class="cls-3" d="M68.3,5.39l-.49.37a.13.13,0,0,1-.18,0,.16.16,0,0,1,0-.09l0-.63-.49-.37a.14.14,0,0,1,0-.19s0,0,.07,0l.58-.18.18-.59a.14.14,0,0,1,.17-.09.18.18,0,0,1,.07,0l.34.53h.6a.13.13,0,0,1,.13.14.11.11,0,0,1,0,.08l-.37.5.19.6a.14.14,0,0,1-.09.17h-.08Z"/><path class="cls-3" d="M72.16,4.09l-.49.37a.13.13,0,0,1-.18,0,.16.16,0,0,1,0-.09l0-.63L71,3.34a.14.14,0,0,1,0-.19.08.08,0,0,1,.07,0l.58-.18.18-.59A.13.13,0,0,1,72,2.24a.15.15,0,0,1,.06,0l.35.53H73A.14.14,0,0,1,73.1,3a.19.19,0,0,1,0,.08l-.37.5.19.6a.14.14,0,0,1-.09.17.11.11,0,0,1-.08,0Z"/><path class="cls-3" d="M76.22,4.28l-.48.37a.13.13,0,0,1-.19,0,.19.19,0,0,1,0-.08V3.9l-.49-.38a.14.14,0,0,1,0-.19.18.18,0,0,1,.07-.05l.58-.17.19-.6a.13.13,0,0,1,.23,0l.34.52H77a.13.13,0,0,1,.13.14.11.11,0,0,1,0,.08l-.37.5.19.6a.13.13,0,0,1-.08.17h-.09Z"/><path class="cls-3" d="M70,17.28l-.49.37a.13.13,0,0,1-.18,0,.11.11,0,0,1,0-.08l0-.63-.49-.38a.14.14,0,0,1,0-.19.18.18,0,0,1,.07,0l.58-.17.18-.6a.13.13,0,0,1,.17-.08.12.12,0,0,1,.07.05l.34.52h.6a.13.13,0,0,1,.13.14.11.11,0,0,1,0,.08l-.37.5.19.6a.14.14,0,0,1-.08.17.14.14,0,0,1-.09,0Z"/><path class="cls-3" d="M74,17.22l-.49.36a.12.12,0,0,1-.18,0,.11.11,0,0,1,0-.08v-.63l-.49-.38a.14.14,0,0,1,0-.19.18.18,0,0,1,.07-.05l.58-.17.19-.6a.13.13,0,0,1,.16-.09.13.13,0,0,1,.07.06l.34.52h.61a.13.13,0,0,1,.13.14.13.13,0,0,1,0,.08l-.37.49.19.61a.14.14,0,0,1-.08.17.1.1,0,0,1-.09,0Z"/><path class="cls-3" d="M77.89,16.17l-.48.36a.13.13,0,0,1-.19,0,.24.24,0,0,1,0-.08v-.63l-.49-.38a.14.14,0,0,1,0-.19.15.15,0,0,1,.07-.05l.58-.17.19-.6a.13.13,0,0,1,.16-.09.13.13,0,0,1,.07.06l.34.52h.61a.15.15,0,0,1,.13.14.16.16,0,0,1,0,.09l-.36.49.18.6a.12.12,0,0,1-.08.17.14.14,0,0,1-.09,0Z"/><path class="cls-5" d="M68.31,8.69l-.63.08c-.17,0-.22.09-.23.21,0,.31.38.23.19,1.07l-.42,1.82-.88-1.64c-.38-.71.08-.77,0-1.09C66.29,9,66.18,9,66,9l-1.21.17c-.17,0-.23.09-.23.21,0,.29.29.17.73,1l1.12,2c.22.41.35.42.71.37s.44-.16.52-.53c0-.12.3-1.35.51-2.3s.5-.84.46-1.15C68.6,8.7,68.48,8.66,68.31,8.69Z"/><path class="cls-5" d="M70.83,8.29a1.89,1.89,0,0,0-1.69,2.25A2,2,0,1,0,73.08,10,1.88,1.88,0,0,0,70.83,8.29Zm.49,3.46c-.51.07-.89-.49-1-1.37s.09-1.52.6-1.6.9.5,1,1.37S71.83,11.68,71.32,11.75Z"/><path class="cls-5" d="M77.07,8.58c-.07-.24-.17-.54-.24-.76s-.18-.31-.4-.27l-2.62.36c-.23,0-.32.13-.32.38s0,.55,0,.79.1.26.24.25.34-.33.42-.55a.62.62,0,0,1,.55-.45l.3,2.1c0,.38.07.57,0,.72s-.14.3-.12.39.11.16.28.13l1.08-.15c.17,0,.23-.09.23-.2s-.06-.17-.23-.35-.15-.3-.2-.69l-.3-2.1a.67.67,0,0,1,.67.29c.13.19.29.44.54.4A.2.2,0,0,0,77.07,8.58Z"/><path class="cls-5" d="M80.79,9.49c-.26,0-.34.31-.42.53a.63.63,0,0,1-.56.46h-.07c-.37.06-.5,0-.59-.65l-.07-.47a.71.71,0,0,1,.41,0c.16.11.2.22.32.21s.13-.17.1-.34l-.08-.57c0-.17,0-.32-.19-.3s-.13.14-.25.29a.71.71,0,0,1-.38.15L79,8.46c-.09-.6,0-.73.35-.79A.66.66,0,0,1,80,8c.13.19.29.44.54.41a.21.21,0,0,0,.17-.3c-.08-.23-.17-.53-.24-.76S80.25,7,80,7l-2.31.32c-.16,0-.23.09-.22.21s0,.16.22.34.15.31.2.69l.2,1.38a1.29,1.29,0,0,1,0,.73c-.11.21-.14.29-.12.39s.11.15.28.13l2.41-.34c.23,0,.31-.12.32-.36s0-.56,0-.81S80.92,9.47,80.79,9.49Z"/><path class="cls-6" d="M74.33,19.54a9.63,9.63,0,1,0-10.87-8.2A9.63,9.63,0,0,0,74.33,19.54Zm0,.37a10,10,0,1,0-11.3-8.51A10,10,0,0,0,74.38,19.91Z"/></svg>